<?xml version="1.0" encoding="UTF-8"?>
<svg id="Layer_2" data-name="Layer 2" xmlns="http://www.w3.org/2000/svg" viewBox="0 0 587.18 311.86">
  <defs>
    <style>
      .cls-1 {
        letter-spacing: 0em;
      }

      .cls-2 {
        stroke: #363b47;
        stroke-width: 1.5px;
      }

      .cls-2, .cls-3, .cls-4 {
        fill: none;
        stroke-miterlimit: 10;
      }

      .cls-5 {
        letter-spacing: 0em;
      }

      .cls-6 {
        font-family: AcuminConcept-Regular, 'Acumin Variable Concept';
        font-variation-settings: 'wght' 400, 'wdth' 100, 'slnt' 0;
      }

      .cls-6, .cls-7 {
        font-size: 15px;
      }

      .cls-8 {
        letter-spacing: 0em;
      }

      .cls-9 {
        letter-spacing: 0em;
      }

      .cls-10 {
        letter-spacing: 0em;
      }

      .cls-11 {
        letter-spacing: 0em;
      }

      .cls-12 {
        fill: #f59797;
      }

      .cls-13 {
        fill: #f7b2b2;
      }

      .cls-14 {
        fill: #f7dcdc;
      }

      .cls-15 {
        fill: #677ec7;
      }

      .cls-16 {
        fill: #fefefe;
      }

      .cls-17 {
        fill: #9195d0;
      }

      .cls-18 {
        fill: #6b7bc6;
      }

      .cls-19 {
        fill: #826ebd;
      }

      .cls-20 {
        fill: #7377c2;
      }

      .cls-21 {
        fill: #c97c5e;
      }

      .cls-22 {
        fill: #363b47;
      }

      .cls-23 {
        fill: #538fd2;
      }

      .cls-24 {
        fill: #528fd3;
      }

      .cls-25 {
        fill: #6e79c4;
      }

      .cls-26 {
        fill: #896abb;
      }

      .cls-27 {
        fill: #647fc8;
      }

      .cls-28 {
        fill: #558cd1;
      }

      .cls-29 {
        fill: #5b86cd;
      }

      .cls-30 {
        fill: #5789d0;
      }

      .cls-31 {
        fill: #5988ce;
      }

      .cls-32 {
        fill: #6182ca;
      }

      .cls-33 {
        fill: #5e84cb;
      }

      .cls-34 {
        fill: #5292d4;
      }

      .cls-35 {
        fill: #5c86cd;
      }

      .cls-36 {
        fill: #7674c1;
      }

      .cls-37 {
        fill: #79addf;
      }

      .cls-38 {
        fill: #5d85cc;
      }

      .cls-39 {
        fill: #5190d4;
      }

      .cls-40 {
        fill: #4f96d7;
      }

      .cls-41 {
        fill: #7c71bf;
      }

      .cls-42 {
        fill: #4c9cdb;
      }

      .cls-43 {
        fill: #4c9edc;
      }

      .cls-44 {
        fill: #4d98d9;
      }

      .cls-45 {
        fill: #5093d5;
      }

      .cls-46 {
        letter-spacing: 0em;
      }

      .cls-47 {
        letter-spacing: 0em;
      }

      .cls-48 {
        letter-spacing: 0em;
      }

      .cls-49 {
        letter-spacing: -.06em;
      }

      .cls-50 {
        letter-spacing: 0em;
      }

      .cls-51 {
        letter-spacing: -.01em;
      }

      .cls-52 {
        font-size: 17px;
      }

      .cls-52, .cls-7 {
        font-family: AcuminConcept-Semibold, 'Acumin Variable Concept';
        font-variation-settings: 'wght' 600, 'wdth' 100, 'slnt' 0;
        font-weight: 600;
      }

      .cls-53 {
        letter-spacing: -.02em;
      }

      .cls-54 {
        letter-spacing: 0em;
      }

      .cls-55 {
        letter-spacing: 0em;
      }

      .cls-56 {
        letter-spacing: 0em;
      }

      .cls-57 {
        letter-spacing: -.02em;
      }

      .cls-58 {
        letter-spacing: -.08em;
      }

      .cls-59 {
        letter-spacing: -.02em;
      }

      .cls-60 {
        letter-spacing: 0em;
      }

      .cls-61 {
        letter-spacing: .02em;
      }

      .cls-62 {
        letter-spacing: 0em;
      }

      .cls-63 {
        letter-spacing: 0em;
      }

      .cls-64 {
        letter-spacing: 0em;
      }

      .cls-65 {
        letter-spacing: 0em;
      }

      .cls-66 {
        letter-spacing: 0em;
      }

      .cls-67 {
        letter-spacing: 0em;
      }

      .cls-68 {
        letter-spacing: 0em;
      }

      .cls-69 {
        letter-spacing: 0em;
      }

      .cls-70 {
        letter-spacing: 0em;
      }

      .cls-71 {
        letter-spacing: .02em;
      }

      .cls-3 {
        stroke: #bababa;
      }

      .cls-4 {
        stroke: #91959c;
      }

      .cls-72 {
        letter-spacing: 0em;
      }

      .cls-73 {
        letter-spacing: 0em;
      }

      .cls-74 {
        letter-spacing: 0em;
      }

      .cls-75 {
        letter-spacing: 0em;
      }

      .cls-76 {
        letter-spacing: -.02em;
      }

      .cls-77 {
        letter-spacing: 0em;
      }

      .cls-78 {
        letter-spacing: 0em;
      }

      .cls-79 {
        letter-spacing: 0em;
      }

      .cls-80 {
        letter-spacing: -.02em;
      }

      .cls-81 {
        letter-spacing: .02em;
      }

      .cls-82 {
        letter-spacing: 0em;
      }

      .cls-83 {
        letter-spacing: 0em;
      }

      .cls-84 {
        letter-spacing: 0em;
      }

      .cls-85 {
        letter-spacing: 0em;
      }
    </style>
  </defs>
  <g id="Layer_1-2" data-name="Layer 1">
    <g>
      <g>
        <text class="cls-6" transform="translate(508.49 124.08)"><tspan class="cls-56" x="0" y="0">H</tspan><tspan class="cls-54" x="11.04" y="0">L</tspan><tspan class="cls-50" x="19.37" y="0">E</tspan></text>
        <rect class="cls-2" x="487.77" y="112.89" width="11.96" height="11.96"/>
      </g>
      <g>
        <text class="cls-6" transform="translate(507.49 143.23)"><tspan class="cls-79" x="0" y="0">G</tspan><tspan class="cls-48" x="11" y="0">P</tspan><tspan class="cls-46" x="20.49" y="0">Q</tspan><tspan class="cls-65" x="31.72" y="0">A</tspan></text>
        <rect class="cls-12" x="487.77" y="132.05" width="11.96" height="11.96"/>
      </g>
      <g>
        <text class="cls-6" transform="translate(508.49 162.1)"><tspan x="0" y="0">M</tspan><tspan class="cls-58" x="13.02" y="0">A</tspan><tspan class="cls-50" x="21.66" y="0">TH</tspan></text>
        <rect class="cls-13" x="487.77" y="150.92" width="11.96" height="11.96"/>
      </g>
      <g>
        <text class="cls-6" transform="translate(508.49 181.1)"><tspan class="cls-5" x="0" y="0">MM</tspan><tspan class="cls-53" x="26.22" y="0">L</tspan><tspan x="34.27" y="0">U</tspan></text>
        <rect class="cls-14" x="487.77" y="169.91" width="11.96" height="11.96"/>
      </g>
      <polyline class="cls-22" points="487.69 123.38 498.66 112.67 499.35 113.38 488.38 124.1"/>
      <rect class="cls-22" x="487.18" y="114.89" width="6.23" height="1" transform="translate(54.15 367.36) rotate(-43.26)"/>
    </g>
    <rect class="cls-3" x="469.87" y="79.91" width="116.8" height="110.43" rx="13.4" ry="13.4"/>
    <text class="cls-7" transform="translate(486.47 100.63)"><tspan x="0" y="0">B</tspan><tspan class="cls-11" x="9.97" y="0">e</tspan><tspan x="18.17" y="0">n</tspan><tspan class="cls-67" x="26.92" y="0">c</tspan><tspan x="34.8" y="0">h</tspan><tspan class="cls-54" x="43.56" y="0">m</tspan><tspan class="cls-50" x="56.42" y="0">a</tspan><tspan class="cls-1" x="64.65" y="0">r</tspan><tspan class="cls-56" x="70.3" y="0">k</tspan><tspan x="78.48" y="0">s</tspan></text>
    <line class="cls-4" x1="58.76" y1="207.97" x2="453.5" y2="207.97"/>
    <line class="cls-4" x1="58.76" y1="165.56" x2="453.5" y2="165.56"/>
    <line class="cls-4" x1="58.76" y1="123.74" x2="453.5" y2="123.74"/>
    <line class="cls-4" x1="58.76" y1="81.39" x2="453.5" y2="81.39"/>
    <line class="cls-4" x1="58.76" y1="38.4" x2="453.5" y2="38.4"/>
    <rect class="cls-12" x="99.37" y="143.94" width="15.64" height="105.54"/>
    <rect class="cls-13" x="115" y="105.02" width="15.64" height="144.46"/>
    <rect class="cls-14" x="130.64" y="66.83" width="15.64" height="182.65"/>
    <rect class="cls-12" x="195.58" y="92.66" width="15.64" height="156.82"/>
    <rect class="cls-13" x="211.21" y="46.07" width="15.64" height="203.41"/>
    <rect class="cls-14" x="226.85" y="55.97" width="15.64" height="193.51"/>
    <rect class="cls-12" x="292.41" y="112.92" width="15.64" height="136.55"/>
    <rect class="cls-13" x="308.05" y="84.93" width="15.64" height="164.55"/>
    <rect class="cls-14" x="323.68" y="62.15" width="15.64" height="187.33"/>
    <rect class="cls-12" x="388.85" y="152.72" width="15.64" height="96.76"/>
    <rect class="cls-13" x="404.48" y="107.33" width="15.64" height="142.15"/>
    <rect class="cls-14" x="420.12" y="69.2" width="15.64" height="180.28"/>
    <text class="cls-6" transform="translate(30.12 43.61)"><tspan class="cls-72" x="0" y="0">1</tspan><tspan class="cls-48" x="5.5" y="0">0</tspan><tspan class="cls-65" x="13.95" y="0">0</tspan></text>
    <text class="cls-6" transform="translate(35.8 85.95)"><tspan x="0" y="0">80</tspan></text>
    <text class="cls-6" transform="translate(35.74 128.43)"><tspan class="cls-56" x="0" y="0">6</tspan><tspan x="8.33" y="0">0</tspan></text>
    <text class="cls-6" transform="translate(35.83 170.71)"><tspan class="cls-60" x="0" y="0">4</tspan><tspan x="8.23" y="0">0</tspan></text>
    <text class="cls-6" transform="translate(36.1 212.6)"><tspan class="cls-56" x="0" y="0">2</tspan><tspan x="7.96" y="0">0</tspan></text>
    <text class="cls-6" transform="translate(44.07 254.68)"><tspan x="0" y="0">0</tspan></text>
    <text class="cls-6" transform="translate(215.83 307.93)"><tspan class="cls-70" x="0" y="0">M</tspan><tspan class="cls-56" x="12.92" y="0">o</tspan><tspan x="21.25" y="0">d</tspan><tspan class="cls-72" x="29.82" y="0">e</tspan><tspan class="cls-78" x="37.71" y="0">l</tspan><tspan class="cls-65" x="41.19" y="0">s</tspan></text>
    <text class="cls-52" transform="translate(91.16 14.47)"><tspan class="cls-64" x="0" y="0">A</tspan><tspan class="cls-82" x="11.49" y="0">c</tspan><tspan class="cls-68" x="20.54" y="0">c</tspan><tspan x="29.43" y="0">u</tspan><tspan class="cls-80" x="39.2" y="0">r</tspan><tspan class="cls-64" x="45.37" y="0">a</tspan><tspan class="cls-71" x="54.67" y="0">c</tspan><tspan x="63.89" y="0">y </tspan><tspan class="cls-83" x="76.67" y="0">o</tspan><tspan class="cls-57" x="86.39" y="0">f</tspan><tspan x="91.36" y="0"> </tspan><tspan class="cls-74" x="95.54" y="0">L</tspan><tspan class="cls-55" x="105.28" y="0">L</tspan><tspan class="cls-59" x="115" y="0">M</tspan><tspan class="cls-75" x="129.66" y="0">s </tspan><tspan class="cls-64" x="142.36" y="0">A</tspan><tspan class="cls-9" x="153.85" y="0">c</tspan><tspan class="cls-47" x="162.81" y="0">r</tspan><tspan class="cls-82" x="169.11" y="0">o</tspan><tspan class="cls-10" x="178.89" y="0">s</tspan><tspan x="187.47" y="0">s B</tspan><tspan class="cls-77" x="211.48" y="0">e</tspan><tspan x="220.76" y="0">n</tspan><tspan class="cls-62" x="230.69" y="0">c</tspan><tspan x="239.61" y="0">h</tspan><tspan class="cls-55" x="249.54" y="0">m</tspan><tspan x="264.11" y="0">a</tspan><tspan class="cls-8" x="273.44" y="0">r</tspan><tspan class="cls-73" x="279.85" y="0">k</tspan><tspan x="289.11" y="0">s</tspan></text>
    <text class="cls-6" transform="translate(12.76 188.2) rotate(-90)"><tspan class="cls-66" x="0" y="0">A</tspan><tspan class="cls-79" x="9.88" y="0">c</tspan><tspan class="cls-78" x="17.55" y="0">c</tspan><tspan class="cls-65" x="25.06" y="0">u</tspan><tspan class="cls-76" x="33.42" y="0">r</tspan><tspan class="cls-66" x="38.44" y="0">a</tspan><tspan class="cls-81" x="46.36" y="0">c</tspan><tspan x="54.24" y="0">y (%)</tspan></text>
    <g>
      <text class="cls-6" transform="translate(100.19 266.77)"><tspan class="cls-79" x="0" y="0">G</tspan><tspan class="cls-61" x="11" y="0">P</tspan><tspan class="cls-49" x="20.68" y="0">T</tspan><tspan class="cls-79" x="28.15" y="0">-</tspan><tspan x="33.9" y="0">4o</tspan></text>
      <g id="AkalBY.tif">
        <path d="M82.61,264.16c0-.38,.05-.73,.16-1.07,.01-.04,.01-.06-.02-.1-.45-.52-.74-1.12-.84-1.81-.16-1.12,.16-2.11,.92-2.95,.49-.54,1.1-.87,1.81-1.03,.04,0,.05-.03,.06-.06,.46-1.26,1.35-2.07,2.67-2.33,1.26-.25,2.36,.11,3.27,1.04,.04,.04,.08,.05,.14,.04,1.09-.19,2.07,.06,2.92,.76,.67,.55,1.08,1.27,1.23,2.13,.1,.55,.06,1.1-.11,1.64-.01,.04,0,.06,.02,.1,.47,.55,.77,1.18,.85,1.9,.14,1.26-.28,2.31-1.23,3.14-.43,.38-.94,.62-1.5,.74-.04,0-.06,.03-.07,.07-.31,.87-.86,1.53-1.67,1.97-.6,.33-1.25,.46-1.93,.41-.93-.07-1.71-.44-2.35-1.12-.03-.03-.05-.04-.1-.03-1.26,.22-2.35-.12-3.24-1.03-.57-.58-.88-1.28-.97-2.09-.01-.12-.02-.24-.02-.33Zm6.83-4.52s.03,.02,.04,.03c1.11,.64,2.22,1.28,3.33,1.92,.17,.1,.26,.24,.26,.45,0,1.07,0,2.13,0,3.2,0,.02,0,.03,0,.05,0,.03,0,.04,.04,.03,.01,0,.03-.01,.04-.02,1.1-.45,1.77-1.58,1.62-2.75-.11-.85-.53-1.5-1.27-1.94-.93-.55-1.87-1.08-2.81-1.63-.04-.02-.06-.02-.1,0-.21,.12-.42,.25-.64,.37-.17,.1-.34,.19-.51,.3Zm-1.29,4.25s-.04-.03-.06-.03c-1.1-.64-2.21-1.28-3.31-1.91-.18-.1-.26-.25-.26-.45,0-1.07,0-2.14,0-3.21q0-.07-.07-.05c-1.09,.44-1.77,1.57-1.63,2.74,.11,.86,.54,1.53,1.29,1.97,.93,.55,1.86,1.08,2.79,1.62,.04,.02,.07,.02,.11,0,.26-.15,.52-.3,.77-.45,.12-.07,.24-.14,.37-.21Zm-1.51-1.62c0-.31,0-.6,0-.9,0-.99,0-1.99,0-2.98,0-.22,.09-.37,.28-.47,.93-.53,1.85-1.07,2.78-1.6,.04-.02,.05-.03,0-.07-.65-.5-1.39-.68-2.19-.51-1.23,.26-2.07,1.32-2.07,2.58,0,1.06,0,2.13,0,3.19,0,.05,.01,.08,.06,.1,.24,.14,.48,.28,.72,.42,.14,.08,.28,.16,.42,.24Zm3.67,1.12s-.05,.03-.07,.04c-1.1,.64-2.21,1.27-3.31,1.91-.17,.1-.34,.1-.51,0-.42-.24-.83-.48-1.25-.72-.52-.3-1.04-.6-1.55-.9-.04-.02-.05-.02-.06,.03-.02,.16-.03,.32-.03,.48,.03,.72,.31,1.33,.83,1.83,.83,.78,2.1,.94,3.09,.37,.94-.54,1.87-1.08,2.8-1.62,.04-.02,.06-.05,.06-.1,0-.42,0-.84,0-1.26,0-.02,0-.03,0-.06Zm.65-2.11s0,.05,0,.07c0,1.28,0,2.55,0,3.83,0,.19-.08,.33-.24,.42-.94,.54-1.87,1.08-2.81,1.62-.05,.03-.04,.04,0,.07,.68,.52,1.43,.68,2.26,.49,1.16-.28,2-1.34,2-2.52,0-1.08,0-2.16,0-3.24,0-.05-.01-.08-.06-.1-.36-.21-.73-.42-1.09-.63-.02,0-.03-.02-.05-.02Zm-3.68-1.83c0,.2,0,.41,0,.61q0,.09,.08,.04c1.1-.64,2.2-1.27,3.3-1.91,.18-.1,.35-.1,.52,0,.93,.54,1.86,1.08,2.8,1.62,.03,.02,.05,.03,.06-.02,.05-.33,.03-.66-.04-.99-.25-1.09-1.21-1.93-2.31-2.02-.56-.05-1.08,.07-1.57,.35-.92,.53-1.85,1.07-2.77,1.6-.04,.02-.06,.05-.06,.1,0,.21,0,.41,0,.62Zm3.04,2.32c0-.27,0-.54,0-.81,0-.05-.01-.08-.06-.1-.47-.27-.94-.54-1.41-.81-.04-.02-.06-.02-.1,0-.47,.28-.95,.55-1.42,.82-.04,.02-.05,.04-.05,.08,0,.55,0,1.09,0,1.64,0,.04,.01,.06,.05,.08,.48,.27,.95,.55,1.43,.82,.03,.02,.06,.02,.09,0,.47-.27,.95-.55,1.42-.82,.04-.02,.05-.05,.05-.09,0-.27,0-.54,0-.81Z"/>
      </g>
    </g>
    <g>
      <text class="cls-6" transform="translate(214.9 266.77)"><tspan x="0" y="0">o</tspan><tspan class="cls-63" x="8.25" y="0">1</tspan></text>
      <g id="AkalBY.tif-2" data-name="AkalBY.tif">
        <path d="M197.43,264.16c0-.38,.05-.73,.16-1.07,.01-.04,.01-.06-.02-.1-.45-.52-.74-1.12-.84-1.81-.16-1.12,.16-2.11,.92-2.95,.49-.54,1.1-.87,1.81-1.03,.04,0,.05-.03,.06-.06,.46-1.26,1.35-2.07,2.67-2.33,1.26-.25,2.36,.11,3.27,1.04,.04,.04,.08,.05,.14,.04,1.09-.19,2.07,.06,2.92,.76,.67,.55,1.08,1.27,1.23,2.13,.1,.55,.06,1.1-.11,1.64-.01,.04,0,.06,.02,.1,.47,.55,.77,1.18,.85,1.9,.14,1.26-.28,2.31-1.23,3.14-.43,.38-.94,.62-1.5,.74-.04,0-.06,.03-.07,.07-.31,.87-.86,1.53-1.67,1.97-.6,.33-1.25,.46-1.93,.41-.93-.07-1.71-.44-2.35-1.12-.03-.03-.05-.04-.1-.03-1.26,.22-2.35-.12-3.24-1.03-.57-.58-.88-1.28-.97-2.09-.01-.12-.02-.24-.02-.33Zm6.83-4.52s.03,.02,.04,.03c1.11,.64,2.22,1.28,3.33,1.92,.17,.1,.26,.24,.26,.45,0,1.07,0,2.13,0,3.2,0,.02,0,.03,0,.05,0,.03,0,.04,.04,.03,.01,0,.03-.01,.04-.02,1.1-.45,1.77-1.58,1.62-2.75-.11-.85-.53-1.5-1.27-1.94-.93-.55-1.87-1.08-2.81-1.63-.04-.02-.06-.02-.1,0-.21,.12-.42,.25-.64,.37-.17,.1-.34,.19-.51,.3Zm-1.29,4.25s-.04-.03-.06-.03c-1.1-.64-2.21-1.28-3.31-1.91-.18-.1-.26-.25-.26-.45,0-1.07,0-2.14,0-3.21q0-.07-.07-.05c-1.09,.44-1.77,1.57-1.63,2.74,.11,.86,.54,1.53,1.29,1.97,.93,.55,1.86,1.08,2.79,1.62,.04,.02,.07,.02,.11,0,.26-.15,.52-.3,.77-.45,.12-.07,.24-.14,.37-.21Zm-1.51-1.62c0-.31,0-.6,0-.9,0-.99,0-1.99,0-2.98,0-.22,.09-.37,.28-.47,.93-.53,1.85-1.07,2.78-1.6,.04-.02,.05-.03,0-.07-.65-.5-1.39-.68-2.19-.51-1.23,.26-2.07,1.32-2.07,2.58,0,1.06,0,2.13,0,3.19,0,.05,.01,.08,.06,.1,.24,.14,.48,.28,.72,.42,.14,.08,.28,.16,.42,.24Zm3.67,1.12s-.05,.03-.07,.04c-1.1,.64-2.21,1.27-3.31,1.91-.17,.1-.34,.1-.51,0-.42-.24-.83-.48-1.25-.72-.52-.3-1.04-.6-1.55-.9-.04-.02-.05-.02-.06,.03-.02,.16-.03,.32-.03,.48,.03,.72,.31,1.33,.83,1.83,.83,.78,2.1,.94,3.09,.37,.94-.54,1.87-1.08,2.8-1.62,.04-.02,.06-.05,.06-.1,0-.42,0-.84,0-1.26,0-.02,0-.03,0-.06Zm.65-2.11s0,.05,0,.07c0,1.28,0,2.55,0,3.83,0,.19-.08,.33-.24,.42-.94,.54-1.87,1.08-2.81,1.62-.05,.03-.04,.04,0,.07,.68,.52,1.43,.68,2.26,.49,1.16-.28,2-1.34,2-2.52,0-1.08,0-2.16,0-3.24,0-.05-.01-.08-.06-.1-.36-.21-.73-.42-1.09-.63-.02,0-.03-.02-.05-.02Zm-3.68-1.83c0,.2,0,.41,0,.61q0,.09,.08,.04c1.1-.64,2.2-1.27,3.3-1.91,.18-.1,.35-.1,.52,0,.93,.54,1.86,1.08,2.8,1.62,.03,.02,.05,.03,.06-.02,.05-.33,.03-.66-.04-.99-.25-1.09-1.21-1.93-2.31-2.02-.56-.05-1.08,.07-1.57,.35-.92,.53-1.85,1.07-2.77,1.6-.04,.02-.06,.05-.06,.1,0,.21,0,.41,0,.62Zm3.04,2.32c0-.27,0-.54,0-.81,0-.05-.01-.08-.06-.1-.47-.27-.94-.54-1.41-.81-.04-.02-.06-.02-.1,0-.47,.28-.95,.55-1.42,.82-.04,.02-.05,.04-.05,.08,0,.55,0,1.09,0,1.64,0,.04,.01,.06,.05,.08,.48,.27,.95,.55,1.43,.82,.03,.02,.06,.02,.09,0,.47-.27,.95-.55,1.42-.82,.04-.02,.05-.05,.05-.09,0-.27,0-.54,0-.81Z"/>
      </g>
    </g>
    <text class="cls-6" transform="translate(285.79 266.77)"><tspan class="cls-48" x="0" y="0">S</tspan><tspan x="9.15" y="0">onn</tspan><tspan class="cls-84" x="34.38" y="0">e</tspan><tspan class="cls-69" x="42.3" y="0">t</tspan><tspan x="46.96" y="0">-</tspan><tspan class="cls-48" x="52.63" y="0">3</tspan><tspan class="cls-79" x="60.94" y="0">.</tspan><tspan x="64.06" y="0">5</tspan></text>
    <g id="o1FhZM.tif">
      <path class="cls-21" d="M272.27,254.75h.15c.08,.04,.18,.04,.27,.05,.24,.02,.4,.15,.49,.36,.36,.8,.71,1.61,1.09,2.4,.4,.81,.91,1.57,1.15,2.46,0,.04,.02,.08,.07,.07,.06,0,.04-.06,.04-.09,.03-.34,.04-.69,.08-1.03,.11-.94,.19-1.89,.28-2.84,.04-.46,.13-.9,.61-1.13,.06-.03,.11-.04,.17-.02,.24,.07,.35,.26,.48,.45,.04,.05,.05,.1,.04,.17-.07,.42-.12,.85-.2,1.27-.16,.9-.34,1.79-.51,2.69,0,.04-.04,.09,.01,.12,.05,.03,.1,0,.14-.04,.06-.07,.12-.13,.17-.2,.73-.97,1.47-1.93,2.32-2.81,.2-.2,.41-.37,.72-.32,.06,.01,.12,0,.18,0,.06,0,.1,.02,.14,.07,.11,.17,.23,.35,.35,.52,.04,.05,.03,.1,.02,.15-.09,.39-.23,.74-.52,1.03-.06,.06-.11,.13-.16,.2-.61,.8-1.27,1.57-1.75,2.46-.03,.06-.11,.11-.06,.18,.05,.08,.14,.02,.2,0,1.05-.23,2.11-.44,3.17-.62,.27-.05,.51-.05,.75,.1,.15,.09,.21,.22,.15,.39-.04,.09-.08,.19-.11,.28-.02,.07-.07,.11-.14,.12-.34,.08-.67,.18-1.01,.25-1.1,.22-2.19,.47-3.28,.73-.04,0-.09,0-.12,.06,.02,0,.04,.02,.05,.02,.43,.04,.85,.11,1.28,.1,.87-.01,1.73,.06,2.6,.13,.04,0,.08,0,.11,.02,.26,.16,.51,.33,.67,.61,.06,.11,.01,.33-.1,.39-.18,.09-.36,.18-.53,.27-.06,.03-.12,.04-.18,.02-1.25-.3-2.51-.6-3.76-.9-.05-.01-.09-.02-.14-.02-.02,0-.05,0-.06,.02-.02,.02,0,.05,.02,.07,.02,.02,.05,.05,.07,.07,.98,.96,2.02,1.85,3.01,2.79,.13,.12,.2,.26,.22,.42,.02,.15-.09,.23-.17,.31-.06,.06-.17,.02-.25-.03-.45-.33-.9-.66-1.33-1.01-.5-.4-.98-.83-1.47-1.25-.04-.03-.08-.09-.13-.05-.05,.04,0,.1,.03,.15,.01,.02,.02,.03,.04,.05,.5,.75,.99,1.49,1.49,2.24,.03,.05,.06,.1,.07,.16,.01,.15,.03,.3,.05,.46,.02,.17-.07,.28-.22,.35-.17,.08-.33,.06-.5,.03-.08-.02-.14-.05-.19-.12-.76-1.05-1.48-2.13-2.13-3.26-.03-.06-.04-.16-.13-.14-.09,.02-.06,.12-.07,.19-.12,1.29-.25,2.57-.36,3.86-.02,.27-.15,.42-.39,.5-.08,.03-.16,.06-.23,.1h-.03s-.04-.05-.06-.06c-.22-.12-.35-.32-.43-.56-.02-.06-.03-.12-.02-.18,.32-1.39,.57-2.8,.83-4.21,0-.03,.03-.06-.01-.08-.03-.01-.06,0-.08,.03-.02,.03-.04,.05-.06,.08-.44,.6-.88,1.19-1.31,1.79-.5,.7-1.05,1.35-1.65,1.97-.2,.2-.54,.19-.71-.03-.02-.03,0-.06-.01-.1-.02-.27,.13-.47,.28-.66,.91-1.13,1.75-2.31,2.69-3.41,.02-.03,.05-.05,.06-.08,0-.02,0-.05,0-.07-.01-.02-.04,0-.06,.01-.02,.01-.04,.03-.06,.04-1.17,.76-2.33,1.51-3.5,2.27-.07,.04-.13,.07-.21,.08-.14,.02-.29,.04-.43,.06-.11,.01-.37-.15-.4-.26-.05-.15,.04-.48,.16-.57,.37-.26,.73-.53,1.12-.76,.88-.51,1.77-1,2.65-1.49,.03-.01,.06-.03,.08-.05,.04-.04,.07-.1,.05-.16-.02-.06-.07-.05-.12-.05-.39-.02-.78-.04-1.17-.05-1.19-.03-2.39-.08-3.58-.16-.13,0-.29,0-.39-.12-.09-.1-.16-.21-.24-.31-.06-.09-.04-.2,.03-.27,.12-.11,.26-.18,.46-.16,.69,.06,1.38,.11,2.07,.15,.73,.05,1.46,.08,2.19,.17,.23,.03,.46,.07,.7,.06,.04,0,.07,0,.09-.05,.02-.05-.02-.07-.05-.09-.06-.05-.12-.1-.18-.14-1.29-.89-2.62-1.73-3.88-2.65-.14-.1-.26-.23-.3-.4-.03-.12-.03-.25-.06-.38-.03-.1,.02-.17,.07-.25,.17-.25,.39-.36,.7-.29,.11,.03,.22,.03,.31,.1,1.04,.82,2.11,1.61,3.17,2.41,.04,.03,.07,.06,.12,.01,.05-.04,.03-.08,0-.12-.05-.09-.11-.18-.16-.28-.56-1.01-1.11-2.02-1.73-3-.18-.28-.27-.58-.33-.9-.01-.07-.04-.16,0-.21,.2-.23,.29-.56,.62-.65Z"/>
    </g>
    <text class="cls-6" transform="translate(390.73 266.77)"><tspan class="cls-56" x="0" y="0">G</tspan><tspan class="cls-85" x="11.01" y="0">e</tspan><tspan x="18.87" y="0">mini </tspan><tspan class="cls-51" x="50.95" y="0">1</tspan><tspan class="cls-79" x="56.23" y="0">.</tspan><tspan x="59.35" y="0">5</tspan></text>
    <g>
      <path class="cls-22" d="M194.07,248.97h-14.13v-16.02h14.13v16.02Zm-3.2,.51h4.7v-18.03h-17.13v18.03h5.66l.25,.26,.28-.26h6.24Z"/>
      <polygon class="cls-22" points="179.94 241.5 179.43 240.6 188.72 231.84 189.41 232.57 179.94 241.5"/>
      <polygon class="cls-22" points="194.63 240.05 194.07 240.58 185.17 248.97 184.63 249.48 184.35 249.74 184.1 249.48 183.66 249.01 183.7 248.97 194.07 239.2 194.63 240.05"/>
      <polygon class="cls-22" points="190.87 249.48 191.44 248.97 194.07 246.64 195.52 245.35 194.86 244.61 194.07 245.31 189.95 248.97 189.6 249.28 189.78 249.48 190.87 249.48"/>
      <rect class="cls-22" x="177.88" y="233.84" width="7.04" height="1" transform="translate(-109.83 179.52) rotate(-41.6)"/>
      <polygon class="cls-22" points="179.94 247.79 179.43 246.9 194.4 232.46 195.1 233.18 179.94 247.79"/>
    </g>
    <g>
      <path class="cls-22" d="M97.88,248.98h-14.14v-4.1h14.14v4.1Zm-2.45,.5h3.95v-6.1h-17.14v6.1h6.7l.22,.23,.24-.23h6.03Z"/>
      <rect class="cls-22" x="82.15" y="245.78" width="6.23" height="1" transform="translate(-145.6 125.35) rotate(-43.26)"/>
      <polygon class="cls-22" points="94.32 244.81 94.25 244.88 89.93 248.98 89.4 249.48 89.16 249.71 88.94 249.48 88.47 248.98 92.8 244.88 93.64 244.08 94.32 244.81"/>
      <polygon class="cls-22" points="95.43 249.48 95.96 248.98 97.88 247.17 99.31 245.82 98.62 245.09 97.88 245.79 94.49 248.98 94.08 249.37 94.18 249.48 95.43 249.48"/>
    </g>
    <g>
      <path class="cls-22" d="M275.27,240.94v8.54h3.87l.31,.32,.33-.32h12.62v-8.54h-17.13Zm15.63,8.03h-14.13v-6.53h14.13v6.53Z"/>
      <rect class="cls-22" x="275.39" y="243.62" width="6.23" height="1" transform="translate(-91.61 257.2) rotate(-43.26)"/>
      <polygon class="cls-22" points="287.27 242.24 287.06 242.44 280.31 248.97 279.78 249.48 279.45 249.8 279.14 249.48 278.75 249.08 278.86 248.97 285.62 242.44 286.57 241.52 287.27 242.24"/>
      <polygon class="cls-22" points="291.94 243.92 290.9 244.92 286.67 248.97 286.14 249.48 284.99 249.48 284.85 249.33 285.23 248.97 290.9 243.54 291.25 243.2 291.94 243.92"/>
    </g>
    <g>
      <path class="cls-22" d="M371.71,240.25v9.23h3.2l.17,.17,.18-.17h5.39l.34,.35,.36-.35h7.5v-9.23h-17.14Zm15.64,8.72h-14.14v-7.22h14.14v7.22Z"/>
      <rect class="cls-22" x="371.42" y="242.88" width="6.23" height="1" transform="translate(-65.01 322.81) rotate(-43.26)"/>
      <polygon class="cls-22" points="383.39 241.6 383.24 241.75 375.78 248.97 375.26 249.48 375.08 249.65 374.91 249.48 374.42 248.97 374.38 248.93 381.79 241.75 382.69 240.88 383.39 241.6"/>
      <polygon class="cls-22" points="388.09 242.99 387.35 243.7 381.88 248.97 381.35 249.48 380.99 249.83 380.65 249.48 380.3 249.11 380.45 248.97 387.35 242.31 387.39 242.27 388.09 242.99"/>
    </g>
    <polyline class="cls-4" points="58.76 249.48 82.24 249.48 88.94 249.48 89.4 249.48 94.18 249.48 95.43 249.48 99.38 249.48 178.44 249.48 184.1 249.48 184.63 249.48 189.78 249.48 190.87 249.48 195.57 249.48 275.27 249.48 279.14 249.48 279.78 249.48 284.99 249.48 286.14 249.48 292.4 249.48 371.71 249.48 374.91 249.48 375.26 249.48 380.65 249.48 381.35 249.48 388.85 249.48 453.5 249.48"/>
    <rect class="cls-22" x="490.91" y="121.17" width="9.85" height="1" transform="translate(54.16 377.76) rotate(-43.89)"/>
    <g>
      <path class="cls-16" d="M372.25,269.33v-.15c0-5.27,0-10.54,0-15.81,0-.13,.03-.15,.15-.15,5.27,0,10.55,0,15.82,0,.08,0,.14-.02,.14,.11,0,5.33,0,10.66,0,15.99h-16.1Z"/>
      <path class="cls-18" d="M377.62,263.55c-.11-.09-.22-.17-.31-.28-.01-.07,0-.14-.04-.21-.02-.04-.01-.12,.02-.13,.16-.04,.11-.21,.19-.3,0,0,.02-.02,.01-.03-.11-.22,.13-.33,.16-.51,.01-.08,.09-.16,.04-.25-.02-.03-.03-.07,0-.09,.14-.08,.11-.26,.19-.37,.06-.07,.06-.17,.06-.25,0-.12,.07-.21,.08-.33,0-.01,0-.02,0-.03,0-.1,.14-.09,.15-.17,0-.07-.05-.14,.04-.2,.04-.03,.05-.1,.05-.17-.01-.13-.02-.26,.11-.38,.05-.04,.07-.19,.11-.27,.1-.22,.07-.49,.27-.67,.05-.04,.01-.09,0-.13,0-.07-.05-.14,.07-.17,.05-.01,.06-.1,.05-.15-.04-.19,.1-.31,.15-.46,0-.02,.04-.04,.03-.07-.02-.29,.15-.53,.22-.79,.03-.1,.08-.19,.09-.3,0-.05,0-.1,.05-.13,.09-.07,.09-.17,.09-.26,.25-.57,.47-1.15,.61-1.75,.11-.46,.17-.92,.22-1.39,.06,.53,.14,1.05,.26,1.57-.02,.02-.04,.02-.06,.01-.02,0-.04,0-.06,0,.02,.02,.04,0,.06,.02,.02,.02,.02,.06,0,.06-.11,0-.06,.09-.07,.14-.02,.07,.01,.15-.06,.22-.03,.02-.05,.09-.04,.13,.04,.11,0,.16-.08,.22-.04,.03-.07,.07-.05,.12,.05,.12,.01,.23-.07,.33-.04,.05,.01,.13-.07,.16-.05,.02-.04,.02-.05,.04-.04,.19-.02,.4-.17,.57-.02,.02-.08,.11-.02,.2,.05,.06-.02,.15-.05,.21-.05,.08-.08,.15-.08,.25,0,.09-.09,.16-.13,.25-.06,.12-.05,.23-.04,.35,0,.04,.02,.07,0,.1-.17,.21-.2,.27-.25,.56-.01,.07-.09,.13,0,.2,0,0,0,.03-.01,.04-.12,.06-.08,.21-.18,.29-.03,.02-.03,.06-.02,.1,0,.02,.03,.06,0,.07-.13,.08-.12,.19-.09,.31,0,0,0,.02,0,.03-.19,.16-.12,.43-.22,.62-.04,.08-.08,.17-.11,.24-.03,.07-.11,.13-.1,.23,0,.07-.07,.11-.11,.16,.13,.02,.15,.06,.08,.15-.1,.11-.17,.23-.15,.39,.01,.09-.04,.08-.11,.03,0,.25-.08,.48-.16,.71-.02,.05-.02,.11-.09,.11,0,0-.02,0-.02,0,.05,.06,.01,.12,0,.16-.14,.26-.24,.53-.32,.81,0,.03-.03,.05-.07,.06Z"/>
      <path class="cls-28" d="M380,267.38c-.13-.34-.25-.67-.38-1.01,.06-.14,.16-.04,.23-.05,0,0,.02,0,.01,0-.08-.02-.12-.07-.1-.16,.02-.06,0-.15,.11-.15,.03,.02,.05,.03,.05,.07,.03,0,.01-.02,.01-.03,.02-.08-.06,.01-.06-.03-.04-.09-.05-.15,.02-.24,.05-.06,.06-.18,.09-.27,.03-.08,.08-.16,.11-.24,.02-.06,.07-.09,.14-.05,0,0,.03-.06,.06-.06,.07,0,.04-.02,.04-.07-.01-.09,0-.18-.04-.28-.02-.06,.04-.14,.11-.18,.11-.06,.13-.16,.06-.26-.09-.14-.05-.27,.12-.31,.04,0,.09,.01,.09-.06,0-.05-.03-.18-.06-.19-.05-.02-.07-.06-.03-.09,.08-.08,.1-.21,.22-.25,.05-.02,.06-.06,.01-.09-.03-.02-.06-.05-.07-.08-.02-.05-.04-.1,.05-.11,.12,0,.17-.04,.1-.17-.05-.1,.03-.11,.12-.08-.04-.09-.05-.18,0-.26,.02-.02,0-.04,0-.07-.03-.15,.04-.2,.21-.18-.03-.06-.16-.14-.08-.18,.16-.08,.04-.15,.02-.22-.03-.11-.02-.16,.12-.13-.04-.02-.1,0-.1-.07,0-.07,.04-.1,.09-.11,.12-.03,.16-.12,.2-.22,.02-.06-.04-.12,0-.18,.02-.05,.03-.11,.09-.1,.07,0,.06,.07,.05,.12,.01-.02,0-.04,0-.05-.05-.11-.16-.21-.03-.34-.13-.1,.01-.12,.05-.17,.05-.08,.08-.17,.06-.27-.02-.12,.03-.11,.11-.06,.02,.01,.01,.04,.03,.05,0-.02-.02-.03-.03-.05-.04-.06-.03-.15,.02-.17,.1-.05,.05-.17,.13-.22,.04-.03-.02-.07-.05-.1-.04-.04-.09-.07-.06-.13,.04-.08,.09,.03,.13,0,.09-.15,.09-.33,.17-.47,.08-.15,.04-.33,.17-.45,.06-.06,.06-.16,.07-.25,.01-.11,.07-.16,.18-.15,.12,.11,.24,.21,.33,.35-.07,.18-.12,.36-.17,.55,0,.01-.01,.03-.02,.04-.04,.03-.05,.08-.08,.11-.06,.05,.01,.21-.15,.17,.05,.04-.07,.13,.05,.15,.05,0,.1,.05,.06,.08-.12,.09-.03,.17-.02,.26,0,.12-.11,.12-.18,.17-.04,.03-.12-.03-.12,.02,0,.11-.1,.23-.02,.3,.12,.11,.03,.17-.02,.25,0,.01,0,.03,0,.04,.02,.08,.01,.15-.1,.14-.1-.01-.12,.08-.18,.12-.04,.02,0,.05,.02,.07,.04,.07,.07,.13,0,.19-.01,0-.02-.02-.04-.02,.01,0,.02,.02,.03,.03-.02,.07-.12,.16,.04,.21,.04,.01,0,.08-.03,.08-.14-.01-.16,.07-.17,.18,0,.06,0,.14-.08,.18,.12,.09-.04,.12-.04,.19,0,.02,.01,.03,.02,.04,0,.01,0,.03,0,.04-.05,.05-.11,.08-.05,.17,.03,.04,0,.06-.02,.09-.02,.04-.06,.1,0,.16,.05,.06,0,.13-.03,.16-.06,.05-.1,.14-.2,.13-.02,0-.04-.03-.04-.05-.03,.07,.17,.13,0,.2-.01,.02-.04,0-.05,0,0,0,0,0,0,0,.02,0,.04-.01,.05-.02,.05,.01,.05,.05,.05,.09,0,.07-.11,.14,.02,.23,.04,.03-.03,.12-.11,.12-.06,0-.09,.01-.08,.08,0,.05-.03,.08-.05,.11-.05,.05-.11,.09-.09,.18,.01,.06-.08,.05-.11,.08,.09-.03,.08,.03,.07,.08-.01,.08-.08,.08-.14,.09-.02-.01,0,.03,0,.01,0-.01,0,0,.01,0,.07,.02,.09,.09,.06,.14-.09,.17-.05,.37-.16,.53,.06,.08-.11,.06-.06,.13,0,.02,0,.03-.01,.04-.04,.04-.17,.02-.06,.13,.03,.03,.09,.03,.07,.09-.02,.05-.07,.06-.13,.04,.05,.03,.13,.04,.11,.11-.02,.07-.09,.04-.13,.04-.03,0-.05-.02-.08,0,0,.01-.01,.02-.02,.03-.01,.05,0,.1,.02,.14,.09,.15,.02,.28-.03,.41-.01,.04-.02,.12-.1,.04-.03-.03-.06,.02-.06,.04,.04,.16-.08,.25-.15,.36-.01,.02-.06,.04,.01,.06,.04,.01,.04,.1,0,.14-.13,.15-.11,.33-.08,.51,.02,.13-.06,.09-.12,.06Z"/>
      <path class="cls-39" d="M381.8,265c-.22,.37-.45,.74-.64,1.13-.25,.54-.45,1.1-.6,1.68-.05,.2-.08,.4-.12,.6-.04,.04,0,.09-.02,.13,0,.03,0,.06,0,.09-.03,.06-.08,.08-.14,.06,0-.04,0-.08,0-.12,.09-.05-.06-.05-.02-.09-.02-.12-.05-.23-.07-.35,.03-.05,.05-.12,.12-.14-.15-.13-.15-.13-.01-.25,.06-.05,.04-.07,0-.11-.05-.07-.07-.16,.04-.19,.07-.03,.04-.07,.05-.11,.01-.05,.02-.11,.1-.09q-.1-.06-.02-.14s.08-.08-.02-.09c-.04,0-.07-.03-.09-.05-.06-.05-.04-.09,.03-.11,.08-.02,.16,0,.24-.03-.14-.15,.03-.26,.07-.38,.03-.08,.1-.17,.12-.24,.02-.08,.07-.18,.05-.27-.03-.19,.13-.3,.16-.45,0-.03,.06-.05,.02-.09-.09-.09-.04-.16,.02-.23,.08-.08,.11-.18,.15-.29,.07-.19,.14-.38,.24-.55,.03-.05,.04-.09,.01-.14-.09-.16-.05-.21,.13-.2,.02,0,.04,.01,.05,0-.08,.01-.11-.05-.14-.1-.03-.04,.03-.05,.06-.08,.03-.03,.06-.05,0-.09-.07-.05-.05-.12,.04-.15,.02,0,.05-.01,.08-.02,.04-.02,.1-.04,.1-.09,0-.05-.06-.05-.09-.07-.1-.06-.11-.09-.02-.15,.02,.02,.03,0,.03-.02,.02-.02,.03-.03,.05-.03,.1-.03,.22-.04,.09-.2-.07-.08,.05-.16,.09-.25,.02-.04,.07-.06,.02-.11-.02-.02-.02-.06,0-.07,.15-.08,.15-.24,.21-.37,0-.01,.02,0,.02-.02,0,.01-.02,.02-.03,.03-.05,0-.09-.02-.09-.07,0-.05,.04-.05,.08-.07,.04-.02,.1-.02,.1-.06,0-.16,.1-.28,.18-.4,.02-.03,.04-.09,0-.13-.05-.06-.07-.13,.01-.17,.08-.05,.1,.04,.13,.07,0,0,0-.03-.02-.05-.1-.12-.1-.2,.04-.31,.05-.04,.07-.06,.04-.13-.03-.09,0-.2,.08-.27,.05-.05,.07-.09,.02-.17-.04-.07-.05-.16-.06-.25,.03-.04,.07-.07,.13-.08,.14-.03,.21-.23,.12-.33-.03-.03-.07-.05-.04-.1,.03-.04,.07-.04,.11-.03,.04,0,.07,.03,.1,.03,0-.06,.03-.15-.1-.1-.02,0-.05-.03-.04-.05,.01-.04-.01-.09,.04-.11,.12-.03,.19-.14,.31-.17,.13,.11,.25,.21,.38,.32-.02,.05-.08,.06-.09,.12-.03,.1-.07,.04-.11,0,.07,.11,.13,.22,.04,.35-.03,.05-.06,.11-.13,.04-.02-.03-.04-.01-.04,0,0,.02-.04,.04,0,.04,.11,.03,.05,.09,.03,.14-.04,.1-.1,.2-.18,.27-.1,.09-.11,.17-.03,.26,.05,.07,.06,.1-.04,.12-.09,.01-.05,.06-.01,.09,.12,.12,.11,.15-.04,.2-.13,.04-.12,.16-.14,.27,0,.04,.02,.11-.05,.11-.06,0-.07-.05-.08-.07,.11,.17,.06,.35-.04,.53-.01,.03,0,.03,0,.05,.08,.13,0,.26,.01,.4,0,.03-.04,.07-.08,.07-.14-.02-.14,.08-.17,.17,0,.01-.02,.02-.03,.02,.02,.01,.02,0,.03-.01,.01-.02,0-.06,.05-.05,.04,0,.05,.04,.04,.07-.03,.08-.07,.14-.17,.16-.06,.01-.16,.06-.02,.12,.05,.02,.05,.07,.02,.09-.1,.06-.08,.2-.18,.24-.04,.02-.02,.03,0,.05,.02,.03,.03,.06-.02,.09-.14,.07,.01,.15,0,.23,0,.02,.09,.02,.05,.08-.04,.05-.08,.11-.17,.09-.04-.01-.09-.02-.12-.07,.1,.1,.11,.11,.05,.21-.07,.11-.11,.23-.16,.35-.02,.04-.04,.09-.09,.1-.02,0-.02-.03-.04-.04,0,0,0,0,0,.01,0,.01,.02,.01,.03,.02,.18,.07,.21,.17,.09,.32-.05,.06-.09,.14-.09,.22Z"/>
      <path class="cls-30" d="M382.56,258.52c-.11,.05-.14,.13-.15,.25-.01,.08,0,.22-.14,.26-.05,.02,.05,.1-.03,.13,.08,.1,.03,.15-.07,.18-.02,0-.02,.03,0,.05,.04,.05,.04,.05-.01,.07-.02,0-.04,0-.03,.03,.09,.16-.1,.25-.1,.4,0,.08-.09-.04-.16-.05,0,.07,.07,.08,.1,.12,.05,.05,.13,.11,0,.15,0,0-.01,0-.02,0,.1,.16-.2,.2-.12,.36-.03,0-.06-.01-.11-.03,.08,.14,.02,.26-.03,.38,0,.01-.02,.02-.03,.03-.04-.04-.09-.02-.09,.02,0,.07,.07,.02,.11,.04-.14,.1-.13,.13-.04,.29,.03,.05,0,.14,0,.23-.02-.03-.02-.04-.03-.06-.01-.05,.02-.11-.04-.14-.02-.01-.05,0-.05,.03,0,.06-.08,.12,.01,.18,.03,.02,0,.04,0,.06-.06,.14-.15,.22-.29,.27-.03,0-.03,.05-.02,.07,.02,.07,.08,0,.12,.03,0,0,0,.02-.01,.02-.13,.05-.13,.05-.12,.08,.01,.05,0,.13,.07,.15,.08,.02-.06,.07,0,.1,.02,.01-.03,.02-.05,.02-.14-.01-.08,.04-.04,.1,.03,.05,.08,.09,.05,.16-.02-.03-.03-.05-.05-.08-.06,0-.02,.09-.12,.1,0,0,.04-.07-.01-.07-.04,.18-.03,.37-.03,.56-.05-.01-.08-.11-.12-.04-.04,.07,.04,.1,.14,.16-.16-.04-.12,.26-.32,.09,.04,.05,.02,.11,.11,.13,.07,.01,.06,.16,0,.16-.17,.02-.16,.2-.28,.26,.08,.06,.09-.05,.16-.03-.02,.1-.03,.21-.04,.32,0,.09-.12,.05-.18,.05-.07,0-.06,0-.06,.06,0,.09,0,.16,.07,.23,.05,.04-.05,.25-.11,.27-.07,.03-.11,.11-.07,.17,.04,.06,0,.12,0,.18,0,.05,0,.09,.07,.12-.08,.04-.18,0-.2,.11,0,.03-.07,.05-.03-.03,.01-.03-.03-.02-.04-.01-.03,.01-.04,.03-.05,.07-.04,.12-.09,.23-.15,.34,0,0-.02,.01-.03,.02,.16,.15-.05,.13-.09,.2,.19,.02-.04,.11,.03,.15-.1,.04-.09,.13-.09,.21,0,.09,.11,.05,.18,.08-.12,.07-.25-.02-.35,.05-.07-.16-.15-.31-.22-.47q0-.19,.14-.12s0-.03,0-.01c0,0,0,0-.01,0-.02-.01,0,0-.01,0-.04-.05-.12-.1-.05-.17,.07-.07,.1,.03,.15,.05,0,0,.02,.01,.03,.02,0,0,0,0,0-.01,0-.01,0-.02,0-.04,.05-.11,.07-.22,.11-.34,.03-.09,.08-.2-.06-.27-.04-.02-.05-.06-.03-.09,.1-.15,.15-.32,.24-.47,.04-.06,.06-.1,.05-.17,0-.08-.03-.19,.09-.22,.03,0,.03-.03,.02-.05-.05-.12,.03-.17,.1-.23,.07-.05,.1-.12,.14-.2-.03-.04-.08-.02-.11-.03-.03-.01-.07-.05-.04-.07,.08-.05,.07-.14,.12-.2,.03-.04,.09-.06,.16-.05-.1-.05-.11-.11-.04-.17,.04-.04,.06-.07,0-.13-.07-.08,.03-.13,.06-.19,0-.01,.02-.02,.03-.03,.16-.08,.16-.08,.08-.25-.05-.09,0-.21,.06-.24,.12-.07,.11-.14,.07-.24-.05-.12-.01-.22,.1-.29,0,0,.04,.03,.02-.01-.05-.12-.04-.12,.07-.16,.02,0,.05,0,.09-.03-.06-.09-.07-.16,.06-.2,.03,0,.12-.04,.02-.1-.02,0,0-.04,.01-.05,0,0,.01-.01,.02-.01,0,0,0,0,0,0-.02,.01,0,0-.02,0-.05,0-.08-.03-.08-.07,0-.07,.07-.12,.12-.15,.09-.04,.03,.11,.12,.1-.08-.07-.07-.17-.11-.26-.01-.03,.08-.07,.14-.08,.03,.02,.06,.01,.09,.02-.03-.02-.06,.01-.08-.01-.02-.08,.04-.08,.08-.1-.09,.02-.14-.02-.15-.11,0-.1,.07-.1,.14-.1,.09,0,.1-.04,.07-.11-.05-.12-.02-.16,.13-.18-.13-.14-.12-.25,.03-.36,.01,0,.06,0,.03-.03-.13-.14,.05-.16,.09-.25-.05-.04-.11-.06-.17-.09-.03-.06-.02-.08,.05-.11,.13-.05,.17-.14,.15-.27,0-.02-.01,0,0-.01,.05-.1,.02-.24,.08-.32,.06-.08,.08-.16,.1-.25,.02-.11,.11-.18,.13-.29,0-.07,.09-.04,.15-.01,.13,.15,.25,.29,.38,.44Z"/>
      <path class="cls-15" d="M377.62,263.55c.05-.18,.12-.35,.17-.53,.03-.1,.08-.21,.13-.3,.04-.07,.1-.12,.03-.21,0-.01,0-.05,.01-.05,.03-.02,.02,.02,.04,.03,.05,.04,.05,0,.06-.03,.07-.23,.16-.46,.17-.71,0-.05,0-.09,.04-.11,.08-.03,.01,.09,.09,.07-.06-.17,0-.31,.12-.43,.05-.05,.04-.06,0-.09-.03-.02-.05-.05-.07-.08,.09-.05,.17-.11,.12-.24-.01-.03,0-.05,.04-.03,.03,.02,.04,0,.04-.02,.02-.18,.13-.32,.18-.49,.03-.12,.04-.25,.07-.37,.01-.05-.04-.16,.1-.09,.03,.01,.02-.04,.02-.06-.01-.06-.06-.13-.05-.16,.07-.09,.12-.17,.13-.3,0-.07,.1-.16,.12-.25,.01-.07,.08-.03,.1-.08-.1-.01-.16-.03-.07-.13,.04-.04,.06-.07,.03-.14-.03-.09,.09-.16,.09-.26,0-.06,.1-.1,.04-.2-.02-.04,.09-.07,.16-.06-.03-.14-.08-.29,.02-.42,.05-.07,.04-.17,.14-.24,.08-.05-.07-.01-.06-.08,.07-.02,.1-.06,.1-.15,0-.05,.06-.11,.09-.17,.02-.04,.09-.07-.02-.06-.05,0-.01-.07,0-.1,.05-.13,.16-.23,.16-.37,0-.12,.09-.23,.04-.35-.03-.07,.07-.04,.05-.09,.05,0,0,.07,.06,.07-.07-.15,.13-.22,.1-.36,0-.02,.05-.04,.01-.06-.16-.13,.02-.16,.07-.22,.04-.04,.1-.05,.03-.1-.09-.07,.06-.13,.01-.19,.09-.04,.06-.13,.08-.2,0-.02,.02-.04,.02-.06-.03-.13-.03-.13,.09-.13-.02-.06-.08-.02-.11-.04,.06-.05,.12-.04,.18-.02,.07,.23,.13,.46,.2,.69-.03,.08-.06,.14-.05,.24,0,.12-.03,.28-.15,.37-.03,.02-.03,.03-.03,.05,0,.19-.1,.36-.12,.55,0,.04-.02,.09-.06,.11-.13,.06-.11,.2-.11,.29,0,.09-.02,.12-.07,.16-.11,.08-.15,.17-.08,.3,.01,.02,.04,.05,.02,.07-.08,.09-.05,.24-.12,.3-.11,.09-.11,.2-.12,.3,0,.11-.05,.21-.06,.32,0,.06-.02,.12-.08,.15-.06,.03-.08,.08-.06,.14,.02,.08-.06,.14-.08,.21-.07,.18-.04,.4-.21,.54-.02,.01-.03,.01,0,.04,.11,.18,.05,.33-.08,.47-.07,.07-.12,.13-.08,.25,.02,.07-.03,.14-.1,.2-.05,.05-.08,.09-.04,.17,.03,.06,0,.14-.05,.19-.11,.11-.14,.23-.15,.39,0,.1,.04,.28-.12,.34-.03,.19-.19,.34-.19,.54,0,.02,.02,.04,0,.04-.16,.15-.06,.42-.27,.55-.05,.03-.06,.1-.04,.14,.05,.16-.03,.28-.1,.41-.03,.06-.05,.14-.06,.21-.02,.11-.07,.22-.13,.32-.13-.13-.25-.25-.38-.38Z"/>
      <path class="cls-32" d="M381.01,256.11c.11,.23,.21,.45,.32,.68,.02,.06,.02,.1-.06,.06-.04-.02-.1-.03-.07,.06,.01,.03-.04,.06-.07,.08-.13,.13-.23,.27-.1,.45,.03,.05-.04,.09,.01,.13,.01,0,.02,.02,.02,.03,0,.07-.05,.07-.09,.1,.05,.06-.04,.12,.01,.18-.09,.06-.06,.15-.08,.24-.01,.06-.05,.04-.08,0,.09,.11,.14,.23,.02,.32-.07,.05-.08,.09-.09,.17,0,.09-.12,.11-.17,.17,0,0-.08-.04,0,0,.07,.05,.04,.08,0,.12-.06,.04-.06,.07,0,.1,.03,.01,.08,.01,.07,.06,0,.04-.03,.06-.07,.08-.03,.01-.06,.02-.09,.03-.04,.02-.1,.03-.04,.1,.02,.02,.02,.06,0,.07-.16,.03-.08,.15-.08,.23,0,.09-.02,.16-.11,.2,.03,.05,.1,0,.11,.06,0,.05-.03,.08-.07,.09-.07,.02,0,.1-.06,.13-.06,.02-.11,0-.12-.06-.02,.03,.04,.06,.03,.1-.1,.12-.1,.17,0,.22,.06,.07,.1,.13-.03,.17-.07,.02-.08,.06-.04,.13,.05,.09,.02,.17-.09,.2-.11,.03-.2,.09-.14,.24,.03,.07-.06,.12-.03,.19,0,.01-.02,.04,0,.06,.16,.13,.04,.12-.06,.1-.01,0-.02,0-.03,0-.05,.1-.09,.2-.17,.28-.03,.03-.02,.11,0,.17,.04,.08,.09,.17-.02,.19,.02-.03,.06-.03,.09,.02,.03,.03,.05,.07,0,.11-.04,.04-.08,.08-.13,.09-.09,.02-.12,.08-.15,.14,.05,.04,.11,.08,.16,.13,.02,.02,.04,.05,.02,.09-.01,.04-.05,.03-.08,.02-.02,0-.06-.03-.07,0-.02,.11-.11,.09-.17,.11,0,.05,.03,.06,.05,.08,.06,.05,.03,.09,0,.13-.04,.05-.09,.04-.14,.03,.08,.1-.05,.08-.07,.14,.07,0,.13,.02,.13,.09,0,.06-.01,.13-.06,.17-.05,.05-.06,.05-.03,.1,.03,.06-.02,.12-.04,.11-.12-.02-.09,.13-.18,.13,.05,.05-.05,.12,.02,.17,.03,.02,.07,.04,.03,.09-.03,.04-.06,.02-.1,.01-.02,0-.05-.02-.04-.01,.05,0,.07,.08,.09,.15,.02,.07,.02,.13-.08,.09-.09-.03-.09,.01-.1,.08-.02,.12,0,.25-.11,.33-.13-.16-.26-.32-.4-.48,.01-.05,0-.1,0-.16,0-.03,0-.06,.03-.06,.05,0,.1-.04,.14,.01,.02-.02,0-.02-.01-.03-.06-.04-.04-.08,0-.12,.04-.04,.02-.12,.05-.14,.13-.11,.02-.27,.09-.38,.08-.12,.1-.26,.11-.4,0-.08,.08-.07,.12-.11,.09-.1,.1-.24,.11-.34,.03-.25,.15-.47,.21-.7,.04-.16,.09-.31,.11-.47,0-.04,.05-.06,.08-.09,.05-.04,.11-.09,.06-.17-.01-.02-.01,0,0-.01,.08-.14,.1-.29,.13-.44,0-.03,.06-.06,.03-.11,0-.01-.01-.04,0-.04,.08-.04,.04-.16,.12-.19,.06-.02,0-.02,0-.03-.02-.06-.02-.12,.03-.16,.11-.08,.09-.19,.1-.29,0-.06,0-.13,.07-.16,0,0,.04,.01,.01-.02-.06-.05,0-.09,.02-.13,.05-.1,.1-.19,.06-.32-.03-.08,.06-.21,.14-.28,.05-.05,.07-.1,.07-.16,.02-.12,.01-.25,.14-.32,.04-.02,.02-.08,.02-.11,.01-.21,.09-.4,.17-.59,.03-.06,.04-.1,.02-.16-.05-.17-.05-.17,.15-.18,0-.07-.06-.17,.07-.18-.03-.09,.06-.17,0-.26-.02-.04-.04-.08-.03-.13,.02-.09,.17-.13,.08-.25,.08-.08,.07-.2,.13-.29,.03-.04,.05-.09,.12-.09Z"/>
      <path class="cls-27" d="M381.01,256.11c-.08,.11-.18,.2-.14,.4,0,.01-.09-.08-.1,.01,.03,.04,.08,0,.13,.02-.05,.05-.1,.09-.15,.13-.03,.03-.08,.08-.05,.1,.14,.12-.02,.28,.06,.4-.05,.05-.1-.04-.13,0-.03,.05,.03,.06,.06,.09,.05,.07-.02,.08-.06,.09-.05,0-.1-.01-.16-.02,.02,.07,.03,.13,.06,.19,.02,.05,0,.07-.02,.12-.06,.11-.16,.21-.09,.36,0,0,0,.03,0,.03-.19,.03-.03,.2-.11,.28,0,0,.01,.04,.01,.04-.22,.09-.09,.35-.21,.45-.09,.08-.02,.26-.19,.26,0,0,0,.03,0,.04,.16,.14,.01,.26-.05,.35-.06,.09-.02,.1,.06,.14-.16,0-.11,.08-.14,.16-.04,.09,.06,.22-.09,.28-.12,.05-.07,.13,.01,.2-.11-.04-.1,.08-.15,.11,.02,0,.04,.01,.08,.02-.05,.02-.09,.03-.13,.05-.01,.03,.01,.05,.03,.06,.05,.06,.08,.09-.04,.11-.1,.02-.04,.12-.04,.18,0,.05,.01,.09-.03,.11-.08,.05-.15,.1-.05,.2,0,0-.05,.11-.1,.15-.12,.08-.09,.2-.09,.3,0,.05,0,.08-.03,.12-.05,.1-.09,.2-.1,.33,0,.11-.14,.19-.13,.33,0,.12-.06,.24-.08,.36-.02,.08-.03,.22-.17,.23-.05,0-.02,.03-.02,.05-.02,.11,.03,.24-.08,.34-.04,.04-.06,.11-.05,.19,0,.06,.06,.15-.06,.18,.05,.11-.14,.19-.04,.32,.03,.04-.04,.09-.05,.17-.04-.06,0-.1,0-.14-.1-.01-.14,.02-.11,.12,0,.03-.02,.06-.05,.07-.08-.08-.15-.17-.23-.25,0-.16,.12-.29,.12-.45,0-.03,.02-.03,0-.05-.01-.01-.01-.01,0-.03,.09-.1,.15-.22,.14-.36-.01-.09-.08-.19,.08-.23,.09-.02,.01-.18,.14-.19-.08-.03-.04-.09-.02-.14,.02-.07,.07-.12,.12-.16-.11-.08,.03-.15,0-.23-.02-.05,0-.09,.07-.1,.03,0,.05-.12,.05-.18,0-.06,.01-.09,.07-.13,.06-.04,.2-.07,.03-.15,0,0,0-.01,0-.01,.1-.07,.1-.15,.07-.26,0-.03,.08-.11,.07-.19,0-.02,.01-.04,.04-.06,.13-.06,.12-.1,.07-.24-.02-.05,.04-.12,.09-.17,.07-.06,.11-.12,.07-.21-.02-.05-.03-.09,.02-.14,.07-.08,.13-.17,.2-.25,.02-.03,.04-.03,.01-.07-.03-.03-.08-.06,0-.13,.06-.06-.08-.06-.1-.12,.14-.05,.17-.1,.17-.27,0-.02,.02-.05,.03-.07,.05-.16,.14-.3,.15-.47,0-.03-.02-.11,.07-.1,.04,0,.05-.05,.05-.09,.03-.19,.07-.37,.1-.56,0-.03-.04-.09,.04-.06,.02-.07,.18-.1,.04-.2-.03-.02,0-.04,.01-.05,.13-.05,.14-.15,.08-.24-.09-.15,.04-.19,.11-.27,.04-.04,.03-.03,.03-.1,0-.07,.08-.12,.06-.19-.03-.09,0-.12,.08-.14,.04,0,.02-.09,.03-.14,.01-.05,.07-.09,.08-.16,0-.05,.07-.09,0-.15,.09-.08,.04-.18,.05-.27,0-.03,.04-.02,.07-.01,.04,.01,.04,0,.05-.04,.02-.09-.01-.2,.11-.25,0,0,0-.03,0-.04-.13-.12-.03-.18,.07-.24,.07,.18,.14,.36,.21,.54Z"/>
      <path class="cls-23" d="M382.64,260.16c.12,.05-.03,.24,.14,.28,.03,0-.02,.12-.06,.14-.13,.05-.03,.19-.12,.25,0,0,0,.02,0,.03,.05,.08,.03,.08-.03,.16-.04,.05-.24,.12-.05,.23,.01,0,.02,.03,.02,.04,0,.05,.05,.08,.02,.14-.01-.02-.03-.04-.04-.05-.03-.04-.05-.11-.11-.08-.08,.04-.02,.09,0,.14,.05,.1,0,.19-.06,.26-.04,.04-.08,.05-.08,.13,0,.15-.03,.28-.23,.27,.02,.05,.06,.06,.09,.08-.01,.16-.02,.32-.21,.4,.04,.05,.18,.1,.01,.18-.03,.01-.23,.19-.01,.3,.03,.01,.03,.05,.02,.08-.02,.03-.04,.07-.08,.05-.08-.03-.13,.03-.19,.05-.06,0-.1,0-.05,.07,0,.01,.03,.01,.04,.02,.07,.01,.17,.04,.15,.1-.02,.06-.08,.16-.2,.14-.02,0-.06,0-.07,.02-.04,.03-.01,.07,.02,.09,.07,.04,.08,.07,.03,.13-.05,.06-.03,.12,.04,.12,.04,0,.04,0,.04,.03,0,.02,0,.04-.04,.04-.04,0-.09-.02-.12,0-.03,.03-.08,.02-.11,.05,0,.05,.04,.07,.07,.1,.04,.04,.05,.12,.04,.13-.14,.08-.09,.28-.22,.36,.09,.13-.1,.15-.09,.25,.01,.14-.08,.23-.17,.32-.06,.06-.08,.11,.01,.15,.07,.03,.05,.09,.02,.11-.13,.08-.09,.22-.15,.33-.03,.01-.02-.05-.06-.05-.02,.08,.06,.14,.03,.23,0,.03,0,.06-.04,.07-.04,0-.07,.03-.03,.05,.1,.07,0,.1-.01,.16-.04,.11-.15,.19-.15,.32,0,.04,.03,.17-.13,.05,.07,.1,.11,.17,.12,.26h-.35c.08,.09,.14,.14,.25,.07-.08,.05,0,.22-.16,.18-.01,.07,.03,.04,.06,.04,.07,.01,.05,.07,.03,.1-.04,.08-.03-.02-.05-.02-.06,.01-.03,.06-.04,.1-.01,.05,.06,.13-.08,.12-.07,0-.04,.13,0,.16,.13,.08,0,.1-.02,.14-.02,.04-.21,.04-.02,.15,.1,.06-.03,.16-.1,.21-.06-.25-.11-.5-.17-.75,.03,0,.06,0,.11,0-.14-.12,.02-.27-.03-.37-.1-.17,.2-.17,.1-.32-.03,0-.01,.06-.05,.05,0-.07,.03-.13,.06-.18,.06-.1,.17-.17,.09-.31-.02-.04,.11-.02,.11-.1,.06,0,.01,.07,.04,.08,.09-.06,0-.22,.14-.26-.1-.04-.04-.14-.08-.2-.03-.06-.04-.12,.03-.16,.02,.04,0,.08,.02,.11-.02-.04,0-.08-.02-.11-.02-.05-.01-.09,.04-.05,.06,.05,.11,0,.17,0-.06-.03-.11-.06-.18-.1,.07-.03,.15,.03,.21-.05-.1-.01-.17-.07-.15-.16,.01-.05,.1-.04,.17-.03,0,.01,0,.01,0,.01,0,0,0,0,0-.01,0,0,0-.01,0-.01,0,0,0,.02,0,.01-.04-.04-.07-.07-.12-.11,.06-.03,.12,.04,.16,0,.05-.03-.18-.07,.01-.09,.05,0,.05-.04,.05-.06-.02-.16,.05-.29,.11-.43,.04-.11-.1-.08-.16-.13,.09-.04,.22,0,.23-.15-.06-.02-.06,.1-.12,.05,0-.04,.03-.08,.06-.1,.05-.03,.16-.03,.06-.13-.02-.02,.02-.04,.04-.06,.07-.07,.19-.1,.13-.24-.02-.04,.04-.05,.08-.05,.03,0,.06,.02,.09,.01,.04,0,.06-.04,.06-.08,0-.09-.05,0-.07-.01-.03-.02-.06-.03-.11-.06,.11-.06,.21-.12,.12-.25,.08-.11-.06-.15-.06-.24,0,0,.02,0,.03,0,.06-.01,.05,.13,.1,.07,.06-.06,.15-.09,.18-.19,0-.04,.02-.04-.02-.05-.04-.01-.03-.18,.02-.2,.04-.02,.05,0,.02-.05-.09-.11-.01-.17,.09-.21-.01,0,0,.02,0,0,0,0,0,0,0,0-.08-.04-.11-.08-.02-.13,.03-.02,.07-.04,.03-.11-.02-.04,.05-.12,.03-.19,.13-.02-.02-.03,0-.07,.04-.13,.12-.17,.28-.11-.07-.08-.17-.05-.18-.13,0-.08,.1-.09,.1-.17,.1-.12-.08-.18-.07-.29,.02-.04,.12,.07,.09-.06-.01-.05,.07-.04,.1-.04,.12,.01,.14-.05,.14-.15,.01,0,0,0,0,0,0,0-.01,0-.01,0,0,0,0,0,.01,0,.02-.01,.02,.01,0,0-.02,0-.02,0-.02,0-.09-.1,.2-.11,.06-.18-.13-.06-.03-.14-.06-.2-.03-.06,.12-.13,0-.19,.02-.03,.06-.07,.09-.05,.15,.08,.18-.07,.27-.12,.01-.05,.04-.08,.09-.06Z"/>
      <path class="cls-25" d="M379.5,256.45c.1,.08,.04,.21,0,.24-.09,.05-.09,.14-.1,.2-.02,.13-.1,.23-.12,.34-.02,.13-.12,.23-.1,.37,0,.04-.02,.06-.04,.08-.03,.03-.06,.06-.05,.12,.03,.17-.05,.3-.15,.43-.07,.11,0,.26-.07,.38,0,0,.03,.05,0,.04-.22-.04-.08,.1-.08,.16,0,.05,.01,.09-.04,.14-.07,.07-.12,.18-.14,.28-.02,.08-.03,.16-.05,.25-.03,.15-.1,.31-.18,.41-.07,.09-.09,.19-.1,.28,0,.07,.02,.14-.02,.23-.02,.05-.13,.11-.04,.19,0,0,0,.1-.05,.1-.14,0-.1,.11-.14,.19-.07,.15-.01,.34-.12,.48-.1,.12,0,.32-.19,.4-.04,.02-.01,.2-.01,.3,0,0,.01,.03,0,.03-.14,.07-.07,.28-.23,.34,0,0,0,.02,0,.03,.12,.12-.01,.23-.02,.34,0,.04,0,.14-.12,.14-.07,0-.07,.09-.04,.15,.04,.07,.03,.13,0,.19-.15-.11-.29-.23-.44-.34,.04-.22,.12-.42,.18-.63,.04-.13,.06-.26,.16-.35,.03-.03,.06-.05,.07-.01-.07-.03-.11-.08,0-.15,.03-.02,.03-.07,.02-.1-.01-.09,0-.17,.07-.24,.04-.05-.02-.14,.01-.21,0-.02-.01-.07,0-.07,.17-.02,.08-.21,.19-.29,.02-.01,.07-.08,.02-.14-.05-.07,.07-.11,.04-.17-.06-.1,.05-.11,.07-.16,.03-.04,.06-.08,.07-.14,0-.02,0-.03,.01-.04-.02-.02-.05,0-.06-.02-.03-.04,0-.05,.03-.07,.03-.01,.06-.01,.08-.05,0-.02,.01-.04,.02-.06,.05-.21,.11-.43,.19-.63,.07-.15,.09-.29,.11-.44,.03-.18,.15-.34,.25-.5,.03-.05,.05-.18,.05-.27,0-.03,0-.05,0-.08,.32-.43,.63-.87,.88-1.35,.05-.1,.11-.2,.16-.3Z"/>
      <path class="cls-45" d="M381.8,265c-.09-.1,0-.19,.04-.24,.11-.15,.12-.19-.04-.28,0,0,0-.02,0-.03,.08-.05,.06-.13,.09-.2,.04-.08,.05-.18,.12-.24,.11-.1-.02-.16-.03-.26,.11,.09,.21,.14,.29,0,.02-.06-.21,.04-.07-.13,.04-.05-.11,0-.12-.04-.03-.08,.13-.02,.06-.14-.04-.07,.07,.04,.11,0,0-.05-.08-.12-.06-.12,.16,0,.09-.19,.2-.22,.03,0,.04-.03,.04-.05,0-.03-.03-.02-.05-.02-.04,0-.11,.03-.09-.03,.03-.07,.06-.2,.13-.18,.13,.04,.12-.06,.17-.1,.02-.02,.02-.05,0-.05-.02,0-.04,.02-.06,.04,0-.03,0-.06,0-.09-.03-.13,.07-.15,.14-.13,.08,.02,.1-.02,.09-.06-.03-.1-.03-.23,.01-.28,.09-.11-.18-.04-.05-.15,.04-.04,.05-.12,.07-.2,.02-.12,.05-.22-.04-.32-.03-.03,.03-.06,.03-.1,.06,.03,.03,.11,.09,.14,.06-.07-.03-.14,.02-.23,.05-.09,.06-.19,.19-.19,.02,0,.07,.03,.06-.04,0-.02,0-.05-.05-.06-.06,0-.12-.07-.1-.13,.02-.08,.1-.07,.18-.05-.11-.06-.1-.16-.12-.25,0-.03,0-.06,.02-.06,.14-.06,.16-.21,.25-.3,.01-.01,.1-.11-.04-.09,0-.06,0-.15,.03-.17,.08-.05,.06,.07,.1,.09,.1-.14,.1-.21,0-.34-.02-.03-.02-.05,0-.07,.02-.02,.04-.06,.07-.05,.02,0,.02,.05,.04,.09-.03-.13,.05-.14,.14-.15,.11,.08,.23,.17,.34,.25,.02,.04,.06,.06,.08,.09,.02,.05,0,.1-.04,.08-.1-.05-.06,.04-.09,.07-.07,.07-.08,.13,0,.21,.03,.03,.03,.1,.02,.15-.02,.06-.12,.06-.08,.17,.02,.04-.1,.03-.16,0,.07,.05,.08,.12,.06,.19-.03,.09-.11,.05-.17,.06-.06,.05,.06,.14-.05,.17-.02,0-.01,0,0,.01,.09,.18,.07,.31-.07,.48-.03,.04-.02,.08,0,.12,.04,.09,.02,.16-.04,.23-.02,.02-.03,.05-.04,.08-.04,.14-.06,.16-.21,.18,0,.01,.03,.02,.03,.03,.02,.16-.07,.31-.03,.47,0,.01-.02,.02-.04,.03-.15,.06-.15,.12-.14,.29,0,.11,.02,.22,.02,.33,0,.09-.09,.12-.15,.16-.05,.03-.12,0-.16-.06-.02,.1,.07,.06,.1,.09,.06,.04,.18,.03,.15,.12-.02,.07-.12,.02-.18,0-.04,0-.08-.02-.13,0,.02,.11,.1,.2,.07,.32-.34,.36-.64,.74-.94,1.14Z"/>
      <path class="cls-31" d="M380.51,262.73s-.03,.08-.06,.11c-.02,.02-.04,.04-.02,.07q.09,.11-.04,.22s0,0,0,.01c.02,.07,.09-.07,.1,.03-.06,0,.03,.15-.09,.1,0,0-.14,0-.07,.1,.03,.05,0,.05-.02,.07-.04,.03-.09,.03-.11,.07,.04,.05,.08,0,.11,0,.04,0,.07,.02,.09,.06,.02,.04-.04,.04-.05,.06-.04,.12-.14,.18-.23,.25-.07,.06,.03,.13,.03,.21-.15-.05-.15,.06-.16,.15-.01,.14-.12,.34-.19,.51-.03,.07-.07,.11-.1,.17-.02,.03-.01,.05,.02,.06,.16,.04,.11,.16,.08,.26-.04,.13-.06,.28-.14,.4-.04-.02-.07-.07-.1-.1,0-.07,.08-.08,.08-.14-.03,.05-.12,.06-.08,.15,.03,.04,.05,.08,.09,.09v.1s-.05-.07-.1-.08c-.04,0-.03-.12-.09-.06-.05,.04,.04,.08,.05,.13,0,.05,.09-.05,.07,.03-.01,.06-.06,.03-.1,0-.01,0-.03-.01-.04-.02-.06,.04,.06,.13-.05,.14-.07-.13-.14-.27-.22-.4,.08-.09,.05-.26,.12-.31,.14-.09,0-.23,.11-.31,0-.01,.01-.03,.02-.04,.03-.07,.13-.1,.07-.21-.02-.03,.09-.02,.09-.06,0-.08,.09-.13,.04-.23-.06-.15,.02-.28,.1-.41,.04-.06,.13-.11,.05-.21-.02-.02,.01-.05,.03-.07,.01-.01,.05-.03,.03-.04-.13-.16,.02-.13,.1-.15,.06-.01,.06-.07,.03-.1-.06-.06-.02-.15-.06-.22-.02-.03,0-.07,.04-.09,.03,.01,.05,.03,.08,.04-.01-.02-.05-.02-.07-.04,.06-.14,.05-.32,.22-.41,.09-.05,.06-.27-.02-.32-.04-.02-.06-.05-.04-.09,.07-.11,.08-.24,.15-.35,.02-.04,.06-.1,.08-.16,.02-.03,.05-.03,.08-.01,0,0,.02,.02,.01,0-.03-.07,.01-.11,.07-.13,.08-.03,.1,.03,.13,.08,0-.08-.06-.1-.13-.09-.04,0-.08,0-.12-.01-.05-.02-.08-.07-.01-.1,.06-.02,.08-.12,.17-.07,.01,0,.01-.06,.03-.08,0-.01,.01-.03,.02-.04,.02-.04,0-.08,0-.12,0-.03,0-.1,.07-.05,.03,.02,.02-.02,.03-.03,.01-.01,0,0-.01,0-.05-.02-.12-.02-.11-.09,0-.08,.06-.05,.1-.02,.01,0,.02,0,0,0-.05-.11,.05-.18,.09-.27,0-.01,0-.04,.02-.04,.2-.07,.18-.29,.27-.43,.02-.03,.03-.07,.06-.09,.05-.03,0-.03,0-.04-.04-.04-.07-.08-.05-.14,.02-.05,.05-.08,.1-.06-.01-.02-.04-.03-.06-.04-.09-.03-.09-.09-.02-.13,.08-.04,.1-.1,.1-.18,0-.13,.13-.16,.16-.26,0-.01,.02-.02,.03-.03,.04-.01,.08,0,.11,.03,.01,.01,.02,.03,.03,.05,.08,0,.15,.01,.2,.07,.02,.03,.02,.1-.07,.12-.09,.02-.08,.05,0,.11,.04,.03,.05,.07,0,.1-.23,.15-.23,.17-.05,.35q-.13,0-.22,.12c.07,0,.13,0,.08,.09-.03,.04,.03,.16-.08,.13-.07-.02-.13-.05-.15,.03-.02,.08,.05,.11,.12,.12,0,0,.02,.01,.02,.02-.03,.04-.1,.04-.1,.11-.04,.03-.09,.05-.13,.08,.11,.04,.05,.13,.06,.2,.01,.06,.08-.07,.08,.02,0,.03-.03,.07-.06,.09-.03,.01-.05-.03-.06-.06-.01-.03-.01-.06-.02-.09q-.12,.16-.05,.2s-.01,.03,0,.04c.08,.12,.03,.19-.13,.2,.02,.02,.04,.04,.06,.06,.02,.02,.06,.03,.04,.07-.01,.04-.05,.05-.09,.05-.08-.02-.13,.01-.18,.07q.1,.04,.13,.13c-.05,.04-.13-.08-.15,.01-.02,.07-.09,.13-.01,.22,.1,.12,.05,.19-.13,.28,0,.07,.06-.03,.07,.04-.07,.02-.13,.07-.08,.16,0,.01,.06-.05,.07,.05,0,.15-.05,.2-.18,.23h0s0,0,0,0h.01Z"/>
      <path class="cls-29" d="M380.63,261.32c-.02,.06-.03,.12-.05,.18-.1-.14-.13,.07-.21,.03,.06,.03,.11,.04,.17,.03,.06,0,.12,0,.16,.08,.02,.05-.01,.07-.05,.08-.05,.02-.06,.02-.04-.04,0-.03-.04-.08-.09-.04-.03,.02-.08,.04-.04,.1,.02,.03,.04,.05,.06,.08-.08,.04-.09-.09-.16-.05-.1,.04-.11-.07-.18-.1q-.14-.12,.04-.33c-.09,.03-.14,0-.14-.09,0-.07,.02-.12,.11-.12,0,0,0,0,.01,0,.07,0,.06,0,.05-.06,0-.06-.01-.11-.08-.15-.04-.02,0-.11,.02-.16,.01-.03,0-.05,.01-.07,.02-.08,.04-.16,.13-.21,.16-.09,.2-.35,.12-.56,0-.05,.01-.09,.07-.1q.1,.05,.13,0s0-.09,0-.14c.02-.07-.04-.11-.04-.18,.04-.05,.04-.12,.11-.15,.04-.02,.05-.06,.04-.11-.05-.14,0-.25,.11-.34,.03-.02,.05-.06,.07-.08,.03-.02,.01-.05,0-.06-.05-.03-.02,.02-.03,.04-.07,.04-.11,.04-.11-.05,.02-.08,0-.17,.08-.22,.13,.02,.01-.07,.04-.1,0-.04,.03-.06,.07-.08,.1-.06,.13-.13,.07-.23-.04-.07-.03-.14,.04-.18,.12-.06,.12-.17,.13-.28,.01-.12,.04-.23,.17-.27-.1-.07-.11-.15-.09-.24,.02-.07,.1-.05,.16-.05,.16,.24,.31,.48,.47,.72-.06,.06-.13,.02-.19,.04,.05,.06,.01,.23-.06,.3-.05,.05-.06,.05-.14-.01,.13,.13,.1,.31,.12,.47,0,.02-.01,.05-.03,.05-.12,0-.09,.1-.1,.18-.01,.09-.05,.16-.12,.22-.05,.04-.16,.09-.08,.2-.07,.05,.03,.21-.14,.19-.03,0-.02,.1-.01,.15,0,.07-.01,.12-.08,.13-.13,.02-.08,.05-.01,.1,.03,.02,.08,.03,.08,.09-.03,.03-.09-.08-.11,.02-.02,.07,.02,.1,.06,.13,.01,.01,.06,.01,.06,.02,0,.03-.04,.01-.05,.02-.08,.14-.21,.27-.19,.45,.01,.09-.05,.06-.09,.06-.07,.01-.07,.01-.06,.08,.01,.04-.03,.04-.04,.05-.08,.04-.11,.15-.06,.23-.05,.03-.09-.04-.15-.03,.04,.1,.13,.08,.22,.1-.04,.05-.16,.02-.08,.14-.06-.02-.05-.08-.1-.08-.01,.06,.07,.13,0,.19Z"/>
      <path class="cls-40" d="M382.74,263.86c-.04-.11-.08-.22-.12-.33,.11-.09,.22,.02,.37,.02-.1-.06-.16-.11-.24-.1-.06,0-.07-.03-.09-.07-.02-.04,.04-.04,.05-.06,.05-.05,.02,.03,.05,.04,.04,.02,.11,.03,.11,.02,.02-.08,.17-.1,.12-.18-.08-.12,.02-.25-.06-.38-.03-.04,.08-.15,.08-.25,0,0,.03-.02,.04-.02,.13,0,.13,0,.1-.12-.02-.05-.03-.11,.01-.15,.1-.08,.04-.16,0-.24,.1,.07,.14-.08,.23-.05,0-.01-.02-.03-.01-.04,.02-.06-.06-.13,.05-.17,.07-.03,.07-.1,.05-.16-.04-.15-.05-.15,.07-.2,.03-.01,0-.03,.01-.05,.03-.09-.01-.19,.06-.28,.01-.01,.01-.05-.01-.07-.04-.04-.03-.04,0-.08,.01-.02,0-.04-.01-.06-.02-.08-.08-.2,.1-.11,.03,.02,.07,.01,.08-.02,.01-.04,.02-.09,0-.13-.01-.03-.06-.06-.09-.09,.07-.06,.15,.06,.22,0-.01-.04-.05-.02-.08-.03-.02-.01-.05-.03-.04-.06,0-.02,.03-.03,.05-.03,.07,0,.13,.01,.13-.08,0-.1-.02-.13-.14-.16,0-.1,.19-.12,.11-.26,0-.01,.1,.02,.15,.02,.02-.07-.09-.08-.06-.15,.17,.11,.33,.21,.5,.32-.04,.06-.09,.09-.19,.05,.07,.09,.07,.18,.07,.26,0,.03,0,.07-.03,.08-.12,.05-.12,.17-.13,.26-.01,.09-.04,.12-.12,.12,.05,.02,.19-.08,.12,.1-.03,.08-.05,.18-.03,.27,.01,.06,0,.1-.06,.11-.02,0-.03-.04-.04-.03-.02,.01,0,.01,0,.01,0,0,.02,0,.02,.02,.01,.05-.02,.06-.05,.07-.01-.01-.03-.02-.05-.03,.01,.01,.03,0,.04,.02-.03,.08,.05,.17-.05,.27-.05,.05-.1,.14-.16,.2-.04,.04,0,.09,0,.13,.05,.15,.04,.28-.1,.37-.03,.02-.12,.05-.03,.13,.04,.04,0,.12-.05,.16-.07,.06-.14,.12-.16,.2,.03-.04,.07-.09,.15-.07,.1,.02,.04,.11,.08,.16-.34,.28-.67,.57-.98,.87Z"/>
      <path class="cls-20" d="M378.46,258.11c.11,.09-.03,.18,0,.28,0,.02-.01,.04,.03,.07-.07,.03-.16,.05-.13,.17,0,.04-.06,.09-.09,.14-.06,.11-.15,.2-.06,.34,.02,.04,.06,.14-.06,.17-.05,.02-.08,.07-.08,.15,0,.13-.13,.25-.08,.4,0,0-.03,0-.04,.02-.06,.05-.06,.13-.07,.19-.01,.1-.05,.14-.15,.1,.02,.07,.11,.02,.1,.06-.04,.08-.04,.17-.1,.24-.03,.02-.08,0-.09,.05-.01,.06,.04,.03,.06,.04,0,0,0,.04-.02,.05-.05,.05-.14,.1,0,.15-.03,.06-.06,.11-.09,.16-.02,.03-.06,.07-.04,.11,.07,.16-.03,.15-.13,.14,0,.06,.1,.11,0,.16,0,0-.01,.02-.02,.02,.21,.1-.03,.12-.04,.18-.02,.06,0,.12,0,.17,0,.13,0,.13-.11,.17,.01,.04,.04,.02,.06,.03,.04,.01,.07,.03,.02,.07-.02,.02-.04,.11-.05,0-.04,.05-.12,.05-.13,.14-.02,.12-.08,.24-.08,.37,0,.05-.06,.08-.08,.13-.05,.11,.05,.27-.11,.32-.1-.07-.21-.15-.31-.22-.03-.17-.05-.33,.11-.45,.06-.05-.01-.15,.07-.17,.08-.02,.07-.09,.05-.11-.06-.08-.02-.12,.02-.17,.06-.07,.11-.16,.1-.25,0-.06,.03-.1,.06-.14,.1-.15,.14-.3,.13-.48,0-.1,.04-.23,.1-.29,.12-.15,.15-.32,.19-.49,.01-.05,.02-.11,.06-.14,.05-.04,.1-.07,.02-.13-.02-.01-.01-.05,0-.06,.14-.09,.09-.23,.12-.35,0-.01,0-.04,0-.05,.16-.1,.13-.27,.14-.41,0-.09,.12-.1,.09-.19,.22-.24,.44-.48,.66-.73Z"/>
      <path class="cls-35" d="M380.23,261.63c.05,.04,.1,.08,.16,.13,0,.07-.05,.08-.12,.11,.05,0,.09,.02,.12,.02,0,.01,0,.02,0,.02-.16,0-.13,.14-.16,.23-.07,.17-.07,.17,.12,.2,.01,.05-.21,.08-.02,.15-.1,.04-.01,.18-.09,.2-.16,.03-.15,.16-.19,.26-.02,.04-.05,.08-.07,.12-.07,.09,0,.18,.03,.25,.05,.12,.04,.16-.07,.19-.04,0-.09-.05-.1,0-.02,.07,.08,.06,.1,.1-.01,.05-.24,.07-.03,.17-.14,.17-.29,.33-.24,.58,0,.04,0,.04,.04,.04,.01,0,.03,.01,.03,.02,0,.07-.15,.04-.11,.13,.06,.16-.09,.03-.1,.1,0,.04,.06,0,.08,.03-.05,.06-.11,.12-.18,.16,0,0,0,0,0,0,.01,.01,.01,.01,0,0,0,0,0-.02-.01-.03,0,0,0,0,0,.03,.01,.1-.05,.17-.01,.27,.02,.04-.02,.12-.11,.1-.04-.01-.02,.03-.02,.04,.11,.14-.03,.18-.1,.25-.11-.18-.23-.36-.34-.54-.05-.07,.05-.15,0-.22-.01-.01,.01-.04,.04-.04,.07,0,.07-.03,.06-.08,0-.05,.02-.08,.06-.1,.06-.02,.01-.03,0-.04-.03-.03-.02-.07,0-.1,.06-.09,.09-.18,.05-.27-.04-.08,.04-.11,.07-.16,.04-.08,.1,0,.15,0,0,0,.01,0,.02,0,0,0-.01,0-.02-.02-.02-.02-.05-.04-.08-.05-.04-.01-.09-.03-.08-.08,0-.04,.06-.04,.09-.05,.07-.02,.15-.18,.13-.25-.01-.04-.03-.11,.02-.11,.15,0,.11-.16,.21-.21,.02-.01,.04-.04,0-.08-.07-.09-.03-.15,.05-.2,.05-.03,.1-.06,0-.1-.04-.01-.06-.06-.03-.09,.03-.03,.02-.12,.11-.08,.01,0,0,.02,.02,.02,0-.01-.02-.01-.02-.02-.03-.06-.02-.13-.09-.18-.04-.03-.07-.09,.03-.1,.01,0,.02,0,.02-.02,.07-.16,.13-.33,.27-.46,0-.01,.01-.03,.02-.04,.01-.02,0-.05,.01-.08,.06-.21,.08-.22,.29-.15Z"/>
      <path class="cls-43" d="M388.14,261.31c-.97,.08-1.91,.32-2.8,.73-.06,.03-.12,.05-.17,.07-.11-.06-.16-.25-.08-.35,.07-.08,.1-.16,.09-.25,0-.1,.04-.18,.08-.26,0-.02,.08-.09-.03-.07-.04,0-.07-.02-.07-.06,0-.04,.03-.07,.07-.07,.08,0,.07-.06,.09-.11,.03-.12,.07-.24,.1-.36,.53,.21,1.07,.4,1.63,.52,.4,.09,.81,.14,1.22,.17-.01,.08-.09,.02-.12,.05Z"/>
      <path class="cls-38" d="M380.23,261.63s-.01,0-.02,0c-.17-.01-.21,.03-.22,.21,0,.01-.03,.03-.05,.03-.03-.03-.05-.08-.12-.1,.05,.04,.09,.06,.12,.1q-.02,.18-.17,.19c.03,.09-.07,.32-.15,.34-.05,.01-.02,.05,0,.05,.12,.04,.1,.13,.09,.22-.08-.02-.09,.07-.1,.09-.02,.06,.04,.02,.07,.02,.07,0,.03,.06,.04,.1,.02,.05,0,.07-.05,.07-.04,0-.08,0-.1,.05-.04,.09,.03,.09,.08,.11,.01,.13-.22,.15-.12,.31-.04,0-.07-.01-.1-.01-.08,0-.11,.01-.06,.1,.03,.06,.07,.12-.04,.16-.08,.03-.02,.08,.02,.12-.09-.04-.14,.04-.23,.02,.04,.09,.2,0,.17,.15-.03,.01-.05,.03-.08,.04-.03,.01-.01-.12-.05-.02-.02,.04-.14,.07-.05,.15,.04,.03,.11,.08-.01,.1-.01,0-.01,.07-.02,.11,0,.02,.06,.04,0,.05-.04,0-.09,0-.07,.06,.02,.07,.06-.04,.1,0-.02,.05-.06,.08-.11,.1-.03,.02-.06,.03-.03,.07,.09,.16-.05,.1-.13,.1,.15,.09,0,.16,.01,.23-.08-.1-.16-.2-.22-.31,.03-.12,.08-.23,.06-.36,0-.04,.03-.11,.06-.13,.05-.03,.07,.06,.15,.07-.03-.08,0-.18-.12-.21-.04-.01-.04-.03-.02-.06,.03-.05,.04,0,.06,.01,.04,.02,.09,.02,.15,.02-.2-.02-.01-.2-.14-.26,.05,0,.09,0,.16,0-.06-.04-.12-.07-.07-.12,.02-.02,.06-.09,.11-.02,.03,.05,.05,0,.07-.01,.02-.01,.05-.05,.03-.06-.14-.06,.02-.14-.05-.2,.07,.01,.04,.09,.07,.07,.05-.04,.06-.11,.06-.17,0-.03-.05-.07-.06-.05-.06,.1-.06,.01-.08-.02-.04-.07,.03-.07,.06-.09,.01,0,.04,.02,.05-.02,0-.06-.1-.01-.1-.08,.05-.05,.08,0,.12,.01,.07,.02,.08-.03,.11-.07,.04-.06-.02-.06-.05-.07-.07-.01-.05-.07-.05-.11,0-.05,.04-.04,.08-.03,.12,.03,.1-.06,.1-.15,.05,.02,.11,.04,.2,.07-.1-.11-.17-.19-.3-.2,.04-.05,.13-.06,.1-.16-.01-.04,.02-.07,.08-.04,.08,.03,.11-.08,.18-.1,0-.03-.01-.07-.03-.08-.09-.05-.03,.09-.1,.08,.02-.05-.07-.13,.06-.15,.05,0,0-.04,0-.05-.07-.08-.01-.19-.06-.27,0,0,0-.04,.02-.04,.11-.04,.15-.14,.18-.24,.01-.04,.04-.02,.06-.01,.04,.01,.07,.04,.11,0-.02-.05-.25-.02-.06-.15-.04-.03-.09-.05-.09-.12,.04-.02,.06,.05,.11,.04,0-.07,.02-.13-.06-.18-.04-.03,0-.04,.02-.05,.08-.04,.12-.13,.23-.14,.11,0,0-.11,.04-.16-.11-.08,.01-.17,.04-.16,.17,.01,.03-.09,.05-.13,.02-.08,.08-.13,.14-.18,.05-.04,.1-.06,.1-.14,0-.07,.07-.08,.13-.06,.11,.12,.07,.22,0,.36-.03,.07-.06,.15-.1,.23-.03,.06-.15-.01-.1,.1-.05,0-.01,.08-.06,.09,.02,.08-.03,.14-.04,.21,.05,.04,.1-.05,.14,0,.05,.06-.2,.14,.02,.18-.06,0-.08,.15-.18,.04-.01-.01-.06,0-.06,.03,0,.04-.01,.09,0,.12,.04,.06,.04-.02,.05-.02,.02,0,.06-.01,.08,0,.02,.02,0,.05-.02,.07-.02,.03-.03,.06-.05,.08-.1,.08-.1,.14,.01,.2Z"/>
      <path class="cls-36" d="M377.81,258.83s.08,.05,.03,.09c-.08,.06-.13,.12-.05,.22-.13,.05,.04,.27-.16,.27,0,0-.02,.03-.02,.03,.05,.11-.04,.2-.04,.31,0,.02,.06,.16-.07,.07,0,0-.03,.02-.03,.03,0,.01,0,.03,.02,.04,.03,.02,.07,.04,.13,.07-.23,.06-.2,.23-.23,.39-.02,.09-.06,.21-.16,.28-.04,.03-.1,.06,0,.11-.01,.02-.02,.03-.04,.05-.06,.07-.1,.14-.03,.23,.01,.01,.03,.05,.03,.05-.14,.1-.08,.3-.21,.41-.06,.05,0,.19-.07,.27-.01,.01-.02,.04-.02,.05,0,.06-.21,.09-.02,.17-.11,.09,.01,.06,.05,.08-.05,.07-.28,0-.15,.2,.02,.03-.09,.04-.13,.1-.08,.12,0,.25-.06,.36-.12-.07-.23-.15-.35-.22,.03-.14-.05-.27-.01-.41,.01-.04,0-.1,.03-.13,.13-.12,.13-.28,.16-.43,0-.04,.02-.08,.04-.12,.08-.14,.11-.29,.13-.44,0-.06-.03-.17,.11-.15,.02,0,.01-.03,.01-.04,0-.17,.09-.3,.15-.44,.01-.03,0-.06,0-.09,0-.09-.01-.17,.1-.2,.04-.01,.03-.06,.04-.1,.01-.08-.03-.17,.1-.19,.04,0,.02-.05,.02-.08,0-.04-.02-.1,0-.12,.05-.03,.06-.07,.06-.12,.22-.19,.44-.39,.66-.58Z"/>
      <path class="cls-41" d="M377.15,259.41c0,.05,.05,.09,.02,.16-.01-.02-.02-.04-.03-.05-.03,0-.03,.01-.03,.04,0,.05,0,.1,.03,.15,.01,.04,.02,.12-.07,.07-.06-.03-.06,.01-.05,.05,.02,.09-.04,.18-.03,.27-.06,.03-.07-.07-.07-.05,0,.06-.11,.12-.05,.16,.11,.09-.07,.16,0,.24-.17,.04-.06,.22-.14,.3-.02,.02,.04,.17-.08,.06-.01,.04-.04,.08-.04,.11,0,.17-.02,.34-.13,.48-.08,.1,0,.25-.11,.34,.17,.13-.05,.12-.07,.17-.02,.06-.06,.1-.04,.17,.02,.05,.04,.1-.03,.13-.04,.02-.01,.05,0,.06,.11,.07,.02,.14,0,.21-.19-.1-.38-.21-.56-.31-.06-.07-.06-.18-.03-.22,.06-.09-.03-.25,.14-.28,.03,0,0-.02,0-.03-.02-.02-.04-.06-.03-.07,.1-.08,.04-.24,.16-.32,.1-.07,.06-.21,.09-.32,.02-.05,.01-.11,.05-.16,.05-.08,.08-.16,.08-.26,0-.19,.1-.35,.19-.51,.29-.2,.57-.41,.86-.61Z"/>
      <path class="cls-44" d="M384.12,261.35s.07-.05,.03-.11c-.06-.09,.06-.18,0-.28,0,0,.05-.03,.08-.05-.07-.03-.13,.01-.2,.01,.03-.05,.06-.08,.11-.09,.05,0,.04-.02,.05-.06,.01-.1,0-.22,.12-.29,.09-.06,.04-.17,0-.26-.01-.04-.07-.07-.04-.11,.04-.06,.06,0,.1,.02,.05,.03,.08-.05,.13-.04,.18,.1,.36,.19,.53,.29,.04,.05,.02,.11-.03,.11-.11,0-.11,.09-.13,.16-.03,.08,.03,.18-.1,.23-.03,.01,.03,.16,.1,.21,.04,.02,.06,.04,.05,.08,0,.04-.03,.06-.08,.06-.11,.02-.26,.18-.26,.3,0,.05-.01,.08-.04,.11-.06,.07-.12,.14,0,.22,.04,.03,.03,.1,0,.1-.13,.02-.09,.06-.03,.12,.05,.05,.07,.1-.02,.13-.07,.02-.09,.08-.08,.14,.02,.09-.02,.15-.07,.21-.21,.14-.41,.28-.62,.42-.03-.01-.12,0-.04-.07,.03-.03,0-.06-.02-.06-.03,0-.1,0-.1,.01,0,.1-.07,.07-.11,.04-.08-.06,.04-.03,.04-.07,.01-.08,.07-.13,.14-.17,.09-.06,.07-.13-.03-.17,.04-.12,.19-.13,.23-.25,.04-.11-.04-.21-.04-.32,0-.02-.02-.04-.03-.05,.11,0,.12-.15,.25-.16-.04-.02-.07-.03-.11-.04,.07-.04,.21-.03,.1-.16-.04-.04,.03-.07,.05-.1,.03-.01,.05-.03,.06-.06Z"/>
      <path class="cls-26" d="M374.92,261.85c-.5-.17-1.01-.34-1.53-.43-.28-.05-.57-.1-.85-.11-.03-.04-.11,.03-.12-.05,1.05-.07,2.05-.33,3-.77,.08-.04,.17-.08,.26-.11,.08,.02,.03,.06,0,.07-.08,.06-.14,.14-.19,.22-.06,.1-.16,.03-.23,.06-.02,.02,0,.02,0,.03,.13,.08,.03,.22,.09,.32,.02,.04-.02,.08-.05,.1-.07,.04-.1-.04-.16-.04,.09,.02,.1,.07,.07,.14-.02,.05,0,.16-.11,.08,0,0-.05,.04-.02,.1,.05,.11,.09,.24-.09,.29-.02,0-.01,.08-.05,.1Z"/>
      <path class="cls-19" d="M374.92,261.85s.01-.08,.02-.12c0-.02-.02-.04,.01-.05,.12-.04,.15-.1,.09-.22-.02-.03-.16-.14,.04-.12,0,0,.01-.04,.02-.08,.01,.04,.02,.07,.04,.11,.02-.06,.04-.1,.05-.15,.01-.04,0-.06-.05-.05-.05,0-.09,0-.06-.07,.03-.06,.06,0,.09,0,.04,0,.07,.09,.13,.03,.05-.05,0-.09,0-.14-.01-.05-.01-.11-.01-.17,0-.02,.03-.04,0-.06,0,0-.03,.03-.04,.04-.03,.02-.04-.01-.04-.03,0-.05,.02-.1,.08-.09,.16,.04,.22-.07,.26-.17,.03-.07,.15-.05,.14-.15,.21-.12,.42-.23,.62-.35,.04,.07-.02,.12-.05,.16-.07,.14-.12,.28-.1,.45,0,.03-.02,.12-.06,.16-.05,.05-.05,.1-.05,.16,0,.1-.04,.21-.08,.31-.03,.07-.19,.08-.08,.2,.01,.01-.02,.03-.04,.03-.06,0-.07,.04-.07,.1,0,.07,.07,.05,.1,.07,0,.09-.28,.02-.12,.21-.15,.05-.09,.19-.09,.3-.24-.11-.48-.21-.72-.32Z"/>
      <path class="cls-42" d="M384.34,262.57c.03-.08,.04-.16,.03-.25-.01-.11,.04-.15,.15-.14,0-.09-.17-.09-.1-.21,.01-.02,.01-.04,.03-.05,.03-.02,.06,.11,.09,0,.01-.06-.07-.05-.1-.08-.04-.04-.04-.08,0-.12,.06-.05,.16-.09,.08-.2-.03-.04,.05-.06,.08-.09,.08-.08,.06-.28,.26-.22,.03,0,.05,0,.05-.04,0-.07-.03-.02-.05-.01-.03,0-.05,0-.05-.03,0-.08-.04-.13-.09-.19-.01-.02-.04-.05,0-.06,.19-.06,.07-.26,.16-.36,.04-.04,.03-.04,.11-.04,.06,0,.04-.05,.05-.09,.13,.06,.25,.12,.38,.18,.05,.12-.05,.23-.05,.34,0,.09-.03,.16-.13,.17-.02,0-.05,.02-.04,.05,.01,.03,.04,.04,.06,.02,.02-.02,.05-.06,.06,0,0,.03,.07,.05,.03,.09-.1,.1-.11,.22-.1,.36,0,.05-.04,.12-.08,.17-.04,.06-.13,.09-.01,.16,.04,.03-.07,.13,.04,.18-.28,.15-.55,.31-.83,.46Z"/>
      <path class="cls-33" d="M380.51,259.94s-.18,0-.08,.13c.02,.02,.01,.05-.01,.05-.14,0-.18,.15-.28,.2-.02,.01-.03,.04-.05,.04-.06-.01-.06-.07-.08-.12,.08-.02-.02-.18,.12-.14,.03-.02,.07-.03,.09-.06-.05-.11,.05-.14,.13-.18-.06-.05-.1,.02-.14,0-.03-.07,0-.12,.06-.15,.04-.02,.05-.18,.02-.22-.05-.06,.02-.14,.14-.16,0-.06-.11-.01-.08-.08,.02-.05,.06-.09,.12-.1,.02,0,.05-.01,.07-.02,.03-.01,.09,0,.08-.06,0-.06-.06-.03-.09-.02-.05,.01-.07,0-.09-.04,.11,.01-.04-.17,.09-.13,.04,.01,.04,0,.05-.02,0-.03-.01-.03-.04-.04-.04,0-.1,0-.09-.05,0-.01,.06-.1,.11-.02,0,0,.01,0,.02,.01-.02-.12,.26-.14,.07-.31,.11,0,.18,0,.2-.09,.02-.08,.03-.09-.11-.27,.06-.02,.08,.03,.12,.05,0,0,.01-.01,.02-.02,.01-.07-.08-.17,.06-.21,.03,0,.01-.04,0-.05-.1-.06,.07-.13-.02-.19,.02-.03,.03,0,.05,0,.06,0,.07-.04,.07-.08h-.11c.06-.05,.11-.08,.05-.15-.06-.08-.04-.16-.02-.26,.02-.15,.11-.18,.19-.25,0,0,.02,0,.02-.02,.02-.11,.03-.11,.15-.09,0-.01,0-.02,0-.03,.08,.1,.13,.21,.19,.32-.06,.04-.18,.04-.13,.17,0,.02,0,.03,.03,.05,.11,.06,.1,.08,0,.13-.06,.03-.09,.05-.08,.13,.01,.11-.06,.22-.07,.34,0,.04-.02-.01-.03-.01-.1,.02-.14,.12-.09,.2,.06,.08,.02,.19-.07,.25-.03,.02-.1,.02-.09,.08,.03,.05,0,.07-.03,.09-.11,.04-.02,.16-.09,.22-.01,.15-.13,.28-.09,.45,.01,.05-.03,.1-.07,.14-.05,.05-.05,.11-.03,.17,.05,.05,.1,.11,.06,.19-.07,0-.13,.02-.12,.12-.01,.01-.02,.01-.04,0-.04,.02-.06,.05-.06,.09Z"/>
      <path class="cls-24" d="M382.64,260.16s-.06,.04-.09,.06c-.11-.15-.11-.2,.02-.28-.05-.04-.12,0-.17-.03,.02-.04,.04-.07,.05-.11,0-.03,0-.07,0-.1,.03-.05,.04,.12,.09,0,.03-.09,.02-.23,.17-.25,.01,.01,0,.03,0,.04,0,0,0,0,0,0,0,0,0-.02,0-.03-.01-.02-.01-.01,0,0-.03-.09-.05-.16,.04-.23,.06-.05,.01-.15,.05-.23,.02-.05,.06-.07,.09-.11,.09,.06,.16,.13,.23,.21,.04,.04,.05,.1,.12,.1,.01,0,.02,.02,.03,.03-.06,.08-.14,.15-.23,.18-.08,.02-.1,.06-.1,.12,.06,.06,.06-.09,.13-.04,.07,.05-.02,.12,.03,.18,0,0-.05,.06-.08,.03-.03-.02-.07-.02-.1-.03-.03-.01-.06,0-.06,.02,0,.06,.03,.04,.06,.03,.03,0,.07,.01,.06,.03-.07,.11,.04,.28-.11,.38-.07,.05-.16-.01-.21,.06Z"/>
      <path class="cls-31" d="M381.39,259.28s-.09,0-.07-.06c.02-.06,.05-.11,.1-.15,.13-.12,.14-.15,.08-.32-.01-.04,.02-.06,.07-.06,.12,0,.13-.02,.08-.12,0,0-.02-.02-.02-.02,.1-.16-.08-.29-.05-.45,.04,.03,.01,.11,.07,.11,.06,0,.09-.06,.09-.11,0-.05,.02-.08,.05-.11,0-.01,.02-.03,.02-.04-.02-.11-.02-.11,.14-.1,.01,0,.02,0,.03,0,.07,.08,.16,.15,.2,.25-.08,0-.1,.05-.15,.12-.09,.14-.04,.33-.19,.43-.09,.06,.02,.19,0,.21-.11,.06-.1,.12-.03,.19,.01,.02,.05,.05,.02,.06-.08,.02-.09,.1-.13,.15-.04,.05-.08,.03-.12,.04-.05,.02-.02,.05-.03,.07-.01-.01-.02-.02-.03-.03-.04-.03-.07-.07-.13-.03Z"/>
      <path class="cls-34" d="M380.26,268.7s.1-.04,.14-.06c-.02,.2-.04,.41-.06,.61h-.03c-.02-.18-.04-.37-.06-.55Z"/>
      <path class="cls-39" d="M383.24,259.18q-.08,.03-.12-.1c.05,.02,.09,.06,.12,.1Z"/>
      <path class="cls-34" d="M380.24,268.48c.03,.06,.1,.03,.15,.07-.05,.05-.09,0-.13,.02,0-.03-.01-.06-.02-.09Z"/>
      <path class="cls-37" d="M388.14,261.31s.08-.04,.12-.05c.01,0,.03,0,.04,0,.02,.02,0,.04-.02,.04-.05,0-.1,0-.15,0Z"/>
      <path class="cls-17" d="M372.41,261.26s.08,.04,.12,.05c-.05,0-.11,0-.15-.02-.06-.04,0-.04,.03-.04Z"/>
      <path class="cls-34" d="M380.42,268.55s-.05-.1,.02-.13c0,.05,0,.09-.02,.13Z"/>
      <path class="cls-30" d="M379.85,266.16c.05-.06,0-.17,.12-.18,.01,0,.02,.02,.04,.03-.09,.02,0,.19-.16,.15Z"/>
      <path class="cls-30" d="M381.91,260.59s-.1-.02-.1-.08c0-.01,.01-.03,.02-.04,.03,.02,.07,.04,.08,.12Z"/>
      <path class="cls-23" d="M381.24,263.26c.06,0,.1,0,.11,.05,0,.01-.02,.04-.03,.04-.06,0-.04-.05-.08-.09Z"/>
      <path class="cls-30" d="M382.21,259.82s-.01,.02-.02,.04c0,0-.03-.02-.03-.03,0-.02,.02-.03,.03-.05,0,.01,.01,.03,.02,.04Z"/>
      <path class="cls-23" d="M381.91,261.46s-.01-.04,.02-.03c.01,0,.02,.03,.02,.05,0,0,.02,.03-.01,.03-.02,0-.03-.02-.03-.05Z"/>
      <path class="cls-23" d="M382.57,261.01c.06,.08,.07,.12,.05,.17-.07-.04-.04-.09-.05-.17Z"/>
      <path class="cls-23" d="M381.3,264.81s.02,.03,.02,.04c0,.02-.02,.04-.04,.02,0,0-.01-.03-.01-.04,0-.01,.02-.02,.03-.03Z"/>
      <path class="cls-45" d="M382.51,262.71s-.03,.04-.05,.04c-.02,0-.03-.03-.02-.05,0-.01,0-.05,.04-.03,.01,.01,.02,.03,.03,.04Z"/>
      <path class="cls-23" d="M381.75,263.27s-.04,.02-.05,.02c-.01,0-.02,0-.04-.01,0-.01,0-.04,.03-.04,.01,0,.02,.01,.06,.04Z"/>
      <path class="cls-45" d="M381.72,264.45s.03-.04,.04-.05c.03-.02,.02,.02,.03,.03,0,.03,0,.04-.03,.03-.01,0-.03,0-.04-.01Z"/>
      <path class="cls-45" d="M382.89,261.12s-.02,.03-.03,.03c-.02,0-.03-.01-.02-.03,0-.01,.02-.02,.03-.03,0,0,0,.02,.02,.03Z"/>
      <path class="cls-23" d="M382.19,262.13s.03,.02,.03,.03c0,.02-.02,.02-.03,.01-.01-.01-.05,.01-.04-.02,0-.02,0-.03,.04-.02Z"/>
      <path class="cls-23" d="M382.5,261.59s0,.08-.02,.07c-.04,0,0-.04,0-.06,0,0,.01-.01,.02-.02Z"/>
      <path class="cls-31" d="M381.29,260.69s.08-.04,.13-.03c-.03,.08-.08,.09-.13,.03Z"/>
      <path class="cls-31" d="M381.08,261.04c.05,.03,.09,.05,.09,.1,0,0-.02,.01-.02,.01-.05,0-.06-.04-.07-.11Z"/>
      <path class="cls-38" d="M380.23,260.03c-.01,.05-.03,.09-.09,.06-.06-.05-.04-.13-.05-.21,.07,.03,.03,.18,.15,.14Z"/>
      <path class="cls-15" d="M380.12,257.47s.03,.03,.03,.04c0,0-.01,.02-.02,.03,0,0-.02-.02-.03-.03,0,0,0-.02,.01-.04Z"/>
      <path class="cls-28" d="M382.25,260.71c0-.05,0-.1,0-.14,.06,.04,.15,.07,0,.14Z"/>
      <path class="cls-28" d="M380.84,265.24c-.05,.03-.09,0-.12-.01,0-.01,.02-.03,.03-.03,.04-.02,.06,.01,.09,.05Z"/>
      <path class="cls-28" d="M381.73,262.37s.05,.01,.05,.03c0,.02,0,.05-.02,.05-.02,0-.04-.02-.06-.04,.01-.02,.02-.03,.03-.04Z"/>
      <path class="cls-28" d="M382.09,261.32c-.01-.07-.04-.11,0-.17,.05,.05,.02,.1,0,.17Z"/>
      <path class="cls-28" d="M382.23,260.92s.04,.03,.05,.05c0,.01-.01,.02-.02,.04-.02-.01-.05-.02-.06-.04,0-.01,0-.04,.03-.05Z"/>
      <path class="cls-28" d="M380.53,265.6l.02,.13h-.03s-.01-.09-.02-.13h.02Z"/>
      <path class="cls-28" d="M382.36,260.43s.02,.02,.04,.03c-.02,0-.03,.02-.05,.03,0,0-.03-.02-.03-.03,0-.02,.01-.03,.05-.03Z"/>
      <path class="cls-28" d="M381.95,261.85s-.03,.02-.04,.04c0-.01-.01-.03,0-.04,0-.02,.03-.03,.05-.03,.01,0,.02,.01,0,.03Z"/>
      <path class="cls-28" d="M382.06,261.37s-.02,.04-.03,.04c-.03,0-.02-.03-.02-.04,0-.02,0-.03,.02-.03,.01,0,.02,.02,.02,.03Z"/>
      <path class="cls-18" d="M377.4,262.85s-.03,.04-.06,.03c0,0-.01-.01-.02-.02,.02-.01,.04-.03,.06-.04,.02,0,.02,.02,.02,.03Z"/>
      <path class="cls-18" d="M379.29,257.12s-.02,.02-.02,.03c0-.01-.03-.02-.02-.03,0-.02,.02-.03,.03-.05,0,.01,0,.03,.02,.04Z"/>
      <path class="cls-40" d="M382.83,263.11c.06,0,.1,.03,.09,.08-.01,.04-.06,.08-.1,.11,0,0-.03-.02-.04-.04-.01-.03,0-.05,.03-.05,.11,0,.04-.06,.02-.11Z"/>
      <path class="cls-30" d="M379.65,265.34c.1,.13-.03,.15-.07,.21-.03,.03-.06,0-.06-.01-.02-.11,.11-.11,.13-.19Z"/>
      <path class="cls-35" d="M379.97,263.08c.1-.04,.13,0,.11,.1-.06-.02-.08-.07-.11-.1Z"/>
      <path class="cls-30" d="M379.57,265.56c.06,0,.07,.05,.09,.09-.07,0-.1-.02-.09-.09Z"/>
      <path class="cls-30" d="M380.45,262.75c0-.06,.03-.08,.06-.12,.02,.07,0,.1-.06,.12Z"/>
      <path class="cls-29" d="M381.39,259.28c.06-.04,.1-.06,.13,.03-.04-.01-.08-.02-.13-.03Z"/>
      <path class="cls-38" d="M380.66,259.53c-.08-.05-.07-.11-.01-.17,.06-.07,.12-.14,.06-.25-.02-.03-.02-.09,.02-.12,.06-.06,.09-.12,.07-.21,0-.05,.03-.01,.05-.01,.02,.08,.07,.04,.07,0,0-.07,.04-.09,.1-.08-.06,.05,.04,.1,0,.15-.03,.04-.06,.09-.1,.12-.11,.08-.14,.18-.07,.3,.01,.02,.02,.04,0,.06-.05,.08-.11,.15-.19,.2Z"/>
      <path class="cls-38" d="M380.6,259.84s-.01-.05-.01-.07c0-.03-.05-.05-.02-.08,.03-.03,.07-.01,.1,.01,.01,.01,.04,.01,.06,.02-.01,.04-.02,.08-.03,.13,0,0-.01,0-.02,.01-.02,0-.04,0-.06,0,0,0-.01,0-.02-.01Z"/>
      <path class="cls-38" d="M380.93,259.19c-.05-.06-.06-.11,0-.15,.06-.05,.11-.03,.08,.04-.01,.03-.05,.07-.08,.12Z"/>
      <path class="cls-38" d="M380.57,259.84s.02,0,.03,0h0s.06,.02,.09,0c.03,.01,.06,.03,.04,.07-.02,.03-.04,.06-.07,.03-.04-.03-.09-.04-.09-.1Z"/>
      <path class="cls-38" d="M380.39,260.63c.05,0,.09-.07,.15-.03,0,0,0,.03,0,.04-.05,.06-.1,.02-.14,0Z"/>
      <path class="cls-38" d="M380.95,258.56s.02-.06,.03-.09c.04,.02,.03,.06,.04,.09,0,.02,.02,.05-.02,.06-.05,0-.02-.05-.05-.06Z"/>
      <path class="cls-31" d="M380.58,261.28s.02-.02,.03-.03c.03,0,.03,.02,.03,.04,0,0,.02,.03-.01,.03-.02,0-.04-.01-.04-.04Z"/>
      <path class="cls-38" d="M380.31,260.88s-.02-.04-.01-.04c0-.01,.02-.02,.03-.03,0,.01,.01,.02,.01,.04,0,.01-.02,.02-.03,.04Z"/>
      <path class="cls-44" d="M384.03,261.31s.01-.03,.03-.02c.02,.01,.06-.04,.06,.03,0,.01,.02,.03-.01,.03-.03,0-.06,0-.07-.04Z"/>
      <path class="cls-44" d="M384.06,261.41s-.08,.01-.12-.04c.05,0,.09,0,.12,.04Z"/>
      <path class="cls-31" d="M379.46,264.73c-.02,.07-.03,.1-.04,.14-.02,0-.05-.01-.05-.03-.01-.05,.03-.06,.09-.11Z"/>
      <path class="cls-38" d="M379.63,263.45s-.03-.08-.02-.13c.03,.05,.03,.08,.02,.13Z"/>
      <path class="cls-38" d="M379.35,263.96s-.02,.04-.03,.04c-.02,0-.03-.01-.04-.03,0-.03,.02-.02,.03-.02,.01,0,.02,0,.04,.02Z"/>
      <path class="cls-38" d="M379.74,262.71s.01,.04-.02,.04c-.01,0-.02-.03-.02-.05,0,0-.02-.03,.01-.03,.02,0,.03,.02,.03,.04Z"/>
      <path class="cls-38" d="M378.92,264.95s-.01-.04,0-.05c0,0,.02-.01,.03-.02,0,0,.01,.02,0,.03,0,.01-.02,.02-.03,.04Z"/>
      <path class="cls-35" d="M379.89,261.91c0-.08-.1-.08-.11-.15,0-.02,0-.05,.03-.05,.08,0,.1,.09,.14,.14,.03,.03-.02,.04-.05,.06Z"/>
      <path class="cls-35" d="M379.26,263.62s-.02-.09,0-.14c.05,.05,.05,.09,0,.14Z"/>
      <path class="cls-43" d="M385.16,261.64c-.02,.05-.04,.01-.05,0-.02,0-.05,0-.04-.03,0-.03,.03-.04,.06-.03,.02,.01,.05,.02,.03,.05Z"/>
      <path class="cls-43" d="M385.21,261.28s-.02,.01-.03,.02c0-.01-.02-.02-.02-.03,0,0,.01-.02,.02-.02,.02,0,.03,0,.03,.03Z"/>
      <path class="cls-32" d="M381.08,257.54s.03,.02,.03,.04c0,.02-.02,.02-.03,.02-.01-.01-.05,0-.04-.03,0-.02,0-.03,.04-.02Z"/>
      <path class="cls-28" d="M382.71,259.44s.04,.07,0,.1c0,0-.03,0-.04-.01-.03-.04,.06-.05,.03-.09Z"/>
      <path class="cls-28" d="M382.67,259.8s-.02,.01-.03,0c-.01-.01-.02-.03-.03-.05,0,0,.02,0,.03,0,.02,0,.03,.02,.03,.05Z"/>
      <path class="cls-29" d="M380.7,259.84c-.03,.09-.06,.02-.09,0,.03-.02,.06-.02,.09,0Z"/>
    </g>
  </g>
</svg>