<?xml version="1.0" encoding="utf-8"?>
<!-- Generator: Adobe Illustrator 27.0.1, SVG Export Plug-In . SVG Version: 6.00 Build 0)  -->
<svg version="1.1" id="Layer_1" xmlns="http://www.w3.org/2000/svg" xmlns:xlink="http://www.w3.org/1999/xlink" x="0px" y="0px"
	 viewBox="0 0 765 259" style="enable-background:new 0 0 765 259;" xml:space="preserve">
<style type="text/css">
	.st0{clip-path:url(#SVGID_00000052079772353710661520000018186822815654805433_);}
	.st1{fill-rule:evenodd;clip-rule:evenodd;fill:#00ADFF;}
	.st2{clip-path:url(#SVGID_00000059304442977843308240000009755261172578313613_);}
	.st3{fill:#101828;}
</style>
<g>
	<defs>
		<rect id="SVGID_1_" y="0" width="256" height="256"/>
	</defs>
	<clipPath id="SVGID_00000105394379728419466550000004885641967234204832_">
		<use xlink:href="#SVGID_1_"  style="overflow:visible;"/>
	</clipPath>
	<g style="clip-path:url(#SVGID_00000105394379728419466550000004885641967234204832_);">
		<path class="st1" d="M133.49,0.11l-1.3-0.05l-0.2-0.01C130.77,0.02,129.44,0,128,0c-1.42,0-2.73,0.02-3.94,0.05l-0.54,0.22v0
			l-0.75,0.3c-3.03,1.23-5.98,2.59-8.82,4.08c-2.87,1.5-5.67,3.13-8.39,4.9c-3.01,1.96-5.91,4.06-8.68,6.3
			c-2.75,2.22-5.37,4.57-7.84,7.05h0c-1.82,1.82-3.53,3.66-5.13,5.52c-1.65,1.91-3.21,3.86-4.69,5.85c-2,2.69-3.85,5.46-5.55,8.3
			c-1.53,2.55-2.94,5.16-4.24,7.82c3.68-0.84,7.4-1.51,11.17-1.98c4.46-0.57,8.98-0.87,13.54-0.9c1.25-1.76,2.59-3.49,4-5.18
			c1.54-1.84,3.19-3.64,4.93-5.39l0,0c1.17-1.17,2.39-2.32,3.63-3.43c1.24-1.1,2.5-2.16,3.79-3.17c0.96-0.76,1.92-1.48,2.88-2.17
			v0.01c0.99-0.71,1.97-1.38,2.96-2.02l0.01-0.01l0.72-0.46l0.01-0.01c1.64-1.04,3.34-2.04,5.09-2.98c1.71-0.92,3.47-1.79,5.29-2.6
			l0.56-0.25l0.28-0.12h0.3c2.41,0.01,4.79,0.1,7.12,0.27c2.34,0.16,4.71,0.41,7.08,0.73c6.23,0.85,12.4,2.25,18.43,4.18
			c5.95,1.91,11.77,4.35,17.37,7.31c3.12,1.65,6.18,3.46,9.17,5.44c2.94,1.94,5.81,4.05,8.6,6.33c1.41,1.15,2.82,2.36,4.22,3.62
			c1.43,1.29,2.78,2.57,4.05,3.84c1.26,1.26,2.55,2.61,3.84,4.05c1.19,1.32,2.34,2.65,3.43,3.98c5.38,2.69,10.55,5.82,15.48,9.36
			c4.98,3.58,9.68,7.57,14.05,11.95c2.52,2.52,4.93,5.18,7.21,7.95c0.7,0.85,1.39,1.71,2.06,2.57c-2.63-8.83-6.24-17.43-10.82-25.63
			c-5.63-10.08-12.74-19.57-21.32-28.16c-8.59-8.59-18.08-15.7-28.16-21.32c-10.42-5.82-21.49-10.07-32.86-12.75
			c-3.96-0.93-7.94-1.67-11.92-2.22C141.55,0.65,137.52,0.28,133.49,0.11z M91.87,116.99c1.59-2.5,3.33-4.92,5.2-7.25
			c1.87-2.32,3.86-4.55,5.99-6.68c2.12-2.12,4.35-4.12,6.68-5.99c1.56-1.25,3.16-2.44,4.79-3.57c-2.7-0.78-5.45-1.4-8.24-1.85
			c-3.7-0.6-7.5-0.91-11.35-0.91c-0.97,0-1.85,0.01-2.64,0.05c-0.83,0.03-1.72,0.08-2.64,0.15c-0.63,0.05-1.18,0.1-1.61,0.14
			c-0.31,0.03-0.68,0.07-1.11,0.12c-0.89,0.95-1.76,1.9-2.59,2.85c-0.95,1.09-1.89,2.2-2.8,3.34c-3.77,4.7-7.06,9.65-9.87,14.78
			c-2.87,5.25-5.25,10.7-7.13,16.27c-0.79,2.36-1.5,4.73-2.11,7.1c-0.62,2.4-1.15,4.82-1.59,7.25c-0.4,2.23-0.74,4.49-1,6.79
			c-0.26,2.3-0.44,4.58-0.54,6.85c-0.03,0.8-0.06,1.57-0.08,2.31c-0.01,0.62-0.02,1.39-0.02,2.32c0,1.04,0.01,1.96,0.03,2.74
			c0.02,0.87,0.06,1.78,0.11,2.73c0.24,4.44,0.77,8.87,1.58,13.25c0.81,4.34,1.9,8.66,3.29,12.9c0.57,1.77,1.19,3.51,1.85,5.22
			c0.66,1.69,1.37,3.4,2.14,5.1h0l0.38,0.83l0.24,0.51c6.21,4.83,12.95,8.85,20.07,12c5.6,2.48,11.42,4.42,17.41,5.79
			c-1.11-1-2.18-2.02-3.23-3.07l0-0.01c-1.75-1.74-3.39-3.54-4.93-5.38c-1.58-1.88-3.05-3.81-4.42-5.77
			c-1.03-1.48-2.01-2.99-2.94-4.52c-0.92-1.53-1.8-3.09-2.62-4.7c-1.95-3.78-3.59-7.68-4.92-11.69c-1.35-4.05-2.37-8.17-3.06-12.32
			v-0.01l-0.08-0.48v-0.01c-0.24-1.49-0.44-2.96-0.59-4.44c-0.16-1.48-0.27-2.97-0.35-4.47c-0.03-0.66-0.06-1.37-0.08-2.11
			c-0.02-0.83-0.03-1.53-0.03-2.1l0.01-0.01l0-0.79v-0.01l0.01-0.79v0c0.11-5.5,0.77-11,1.98-16.4c1.19-5.34,2.93-10.58,5.2-15.63
			c0.82-1.82,1.69-3.6,2.63-5.33C89.78,120.4,90.78,118.69,91.87,116.99z M116.99,164.13c-2.5-1.6-4.92-3.33-7.25-5.21
			c-2.32-1.86-4.55-3.86-6.68-5.98l0-0.01c-2.14-2.14-4.14-4.37-5.99-6.66c-1.25-1.56-2.44-3.16-3.57-4.79
			c-0.78,2.7-1.4,5.45-1.85,8.24c-0.6,3.7-0.91,7.49-0.91,11.35c0,0.96,0.01,1.85,0.04,2.64c0.03,0.84,0.08,1.72,0.15,2.65h0
			c0.05,0.63,0.09,1.18,0.13,1.61c0.03,0.31,0.07,0.68,0.12,1.1c0.95,0.89,1.9,1.76,2.86,2.6c1.09,0.95,2.2,1.89,3.34,2.8
			c4.7,3.77,9.65,7.06,14.78,9.87c5.25,2.87,10.69,5.25,16.27,7.13c2.36,0.8,4.73,1.5,7.1,2.11c2.4,0.62,4.82,1.15,7.25,1.59
			c2.23,0.4,4.5,0.74,6.8,1c2.29,0.26,4.58,0.44,6.85,0.54c0.8,0.04,1.58,0.06,2.31,0.08c0.62,0.01,1.4,0.02,2.32,0.02
			c1.04,0,1.96-0.01,2.74-0.03c0.87-0.02,1.78-0.06,2.72-0.11c4.44-0.24,8.87-0.76,13.25-1.58c4.34-0.81,8.66-1.91,12.9-3.29
			c1.77-0.57,3.51-1.19,5.21-1.85c1.7-0.65,3.4-1.37,5.11-2.14v0.01l0.82-0.38l0.51-0.24c4.83-6.21,8.85-12.95,12-20.08
			c2.48-5.59,4.42-11.42,5.79-17.4c-1,1.1-2.02,2.18-3.06,3.23c-1.73,1.73-3.52,3.37-5.39,4.93c-1.88,1.57-3.81,3.05-5.77,4.42
			l0-0.01c-1.51,1.05-3.02,2.03-4.51,2.93c-1.53,0.92-3.09,1.8-4.7,2.63c-3.77,1.94-7.69,3.58-11.69,4.92
			c-4.05,1.35-8.17,2.37-12.32,3.07h-0.01l-0.48,0.07h-0.01c-1.49,0.24-2.97,0.44-4.44,0.6c-1.49,0.15-2.98,0.27-4.47,0.35
			c-0.66,0.03-1.37,0.06-2.11,0.08c-0.83,0.02-1.53,0.03-2.1,0.03l-0.01-0.01h-0.79h-0.01l-0.79-0.01h-0.01
			c-5.5-0.11-11-0.77-16.39-1.98c-5.34-1.2-10.58-2.93-15.63-5.2c-1.82-0.82-3.6-1.69-5.33-2.63
			C120.4,166.23,118.68,165.22,116.99,164.13z M164.13,139.01c-1.59,2.5-3.33,4.92-5.2,7.25c-1.87,2.32-3.86,4.55-5.99,6.68
			c-2.12,2.12-4.35,4.12-6.68,5.99c-1.55,1.25-3.15,2.44-4.79,3.57c2.7,0.78,5.46,1.4,8.24,1.85c3.7,0.6,7.5,0.91,11.35,0.91
			c0.97,0,1.85-0.02,2.65-0.04c0.83-0.03,1.7-0.08,2.63-0.15h0.01c0.62-0.04,1.15-0.09,1.61-0.13c0.31-0.03,0.68-0.07,1.1-0.12
			c0.89-0.94,1.76-1.9,2.6-2.86c0.95-1.09,1.88-2.2,2.8-3.34c3.77-4.7,7.06-9.64,9.87-14.78c2.87-5.25,5.25-10.69,7.13-16.27
			c0.8-2.36,1.5-4.72,2.11-7.1c0.62-2.4,1.15-4.82,1.59-7.25c0.4-2.23,0.74-4.5,0.99-6.8c0.26-2.3,0.44-4.58,0.54-6.85
			c0.07-1.48,0.1-3.03,0.1-4.63c0-1.04-0.01-1.96-0.03-2.74c-0.03-0.87-0.06-1.78-0.11-2.73c-0.24-4.44-0.76-8.87-1.57-13.25
			c-0.81-4.34-1.91-8.66-3.29-12.91c-0.57-1.77-1.19-3.51-1.85-5.21c-0.66-1.7-1.37-3.4-2.14-5.1l0,0l-0.38-0.83l-0.24-0.51
			c-6.21-4.83-12.95-8.85-20.07-12c-5.6-2.48-11.42-4.42-17.41-5.79c1.1,1,2.18,2.02,3.23,3.06c1.73,1.73,3.37,3.53,4.93,5.39
			c1.58,1.88,3.05,3.81,4.42,5.77l0,0c1.05,1.51,2.03,3.02,2.93,4.52c0.92,1.53,1.8,3.1,2.62,4.7c1.95,3.77,3.59,7.68,4.92,11.69
			c1.34,4.05,2.37,8.17,3.06,12.32v0.01l0.08,0.48v0.01c0.24,1.48,0.44,2.97,0.59,4.44c0.16,1.48,0.28,2.97,0.35,4.47
			c0.03,0.67,0.06,1.37,0.08,2.11c0.02,0.83,0.03,1.53,0.03,2.1c0,0.35-0.01,0.89-0.02,1.61c-0.11,5.51-0.77,11-1.97,16.4
			c-1.2,5.34-2.93,10.58-5.2,15.63c-0.82,1.82-1.69,3.6-2.63,5.33C166.23,135.6,165.22,137.32,164.13,139.01z M139.02,91.87
			c2.5,1.6,4.92,3.33,7.25,5.21c2.32,1.87,4.55,3.86,6.67,5.98c2.12,2.12,4.12,4.35,5.99,6.68c1.25,1.56,2.44,3.16,3.57,4.79
			c0.78-2.7,1.4-5.45,1.85-8.24c0.6-3.71,0.91-7.5,0.91-11.35c0-0.97-0.01-1.85-0.04-2.65c-0.03-0.83-0.08-1.71-0.15-2.64v-0.01
			c-0.04-0.61-0.09-1.15-0.13-1.61c-0.03-0.31-0.07-0.68-0.12-1.1c-0.95-0.89-1.9-1.76-2.86-2.6c-1.09-0.95-2.2-1.89-3.34-2.8
			c-4.7-3.77-9.65-7.06-14.78-9.87c-5.24-2.87-10.69-5.25-16.27-7.13c-2.36-0.79-4.73-1.5-7.1-2.11c-2.4-0.62-4.82-1.15-7.25-1.59
			c-2.22-0.4-4.49-0.74-6.8-0.99c-2.3-0.26-4.58-0.44-6.85-0.54c-0.8-0.04-1.58-0.06-2.31-0.08c-0.61-0.01-1.39-0.02-2.32-0.02
			c-1.87,0-3.7,0.05-5.47,0.14c-4.44,0.24-8.87,0.76-13.25,1.58c-4.34,0.81-8.65,1.91-12.9,3.29c-1.77,0.57-3.51,1.19-5.21,1.85
			c-1.7,0.66-3.4,1.37-5.1,2.14h0l-0.83,0.38l-0.51,0.24c-4.83,6.21-8.85,12.95-12,20.08c-2.48,5.59-4.42,11.42-5.79,17.4
			c0.97-1.08,1.99-2.15,3.07-3.23l0.01-0.01c1.75-1.74,3.54-3.39,5.38-4.93c1.88-1.58,3.81-3.05,5.78-4.42
			c1.47-1.03,2.99-2.01,4.52-2.93c1.52-0.92,3.09-1.8,4.7-2.63c3.77-1.94,7.68-3.59,11.68-4.92c4.05-1.34,8.17-2.37,12.33-3.06h0.01
			l0.48-0.08h0c1.49-0.24,2.97-0.44,4.45-0.59v0c1.48-0.16,2.97-0.27,4.47-0.35c0.67-0.03,1.37-0.06,2.12-0.08
			c0.83-0.02,1.53-0.03,2.1-0.03c0.37,0,0.9,0.01,1.61,0.02c5.5,0.11,11,0.77,16.39,1.98c5.34,1.19,10.58,2.93,15.63,5.2
			c1.82,0.82,3.6,1.69,5.33,2.63C135.61,89.78,137.31,90.78,139.02,91.87z M43.96,59.68c1.15-1.41,2.36-2.82,3.62-4.22
			c1.29-1.43,2.57-2.78,3.84-4.04c1.26-1.26,2.61-2.54,4.04-3.84c1.32-1.19,2.65-2.34,3.98-3.43c2.69-5.38,5.82-10.56,9.36-15.48
			c3.58-4.98,7.57-9.68,11.95-14.05l0,0c2.53-2.52,5.18-4.93,7.95-7.21c0.85-0.7,1.71-1.38,2.57-2.06
			c-8.83,2.63-17.43,6.24-25.63,10.82C55.57,21.8,46.08,28.91,37.49,37.49c-8.58,8.59-15.69,18.08-21.32,28.16
			C10.35,76.07,6.1,87.14,3.42,98.51c-0.93,3.96-1.67,7.93-2.22,11.92c-0.55,4.02-0.92,8.05-1.09,12.08l-0.05,1.3l-0.01,0.2
			C0.02,125.23,0,126.57,0,128c0,1.42,0.02,2.74,0.05,3.95l0.21,0.54l0,0.01l0.3,0.74h0c1.23,3.03,2.59,5.98,4.08,8.82
			c1.5,2.87,3.14,5.67,4.9,8.39c1.96,3.01,4.07,5.91,6.3,8.68c2.2,2.73,4.56,5.35,7.05,7.84h0c1.79,1.79,3.64,3.51,5.52,5.13
			c1.91,1.65,3.86,3.21,5.85,4.69c2.69,2,5.46,3.85,8.29,5.55c2.55,1.53,5.16,2.95,7.82,4.24c-0.84-3.67-1.51-7.4-1.98-11.16
			c-0.56-4.46-0.87-8.98-0.9-13.54c-1.76-1.25-3.49-2.58-5.18-4.01c-1.84-1.54-3.64-3.19-5.38-4.93l-0.01-0.01
			c-1.2-1.2-2.35-2.42-3.43-3.63c-1.1-1.24-2.16-2.5-3.17-3.79c-0.76-0.96-1.48-1.92-2.17-2.88c-0.67-0.93-1.34-1.92-2.02-2.96
			l-0.01-0.01l-0.46-0.72l0,0c-1.05-1.65-2.04-3.34-2.98-5.08c-0.92-1.71-1.8-3.48-2.61-5.29l-0.25-0.56l-0.12-0.27v-0.3
			c0.01-2.41,0.1-4.78,0.27-7.11c0.17-2.34,0.41-4.7,0.74-7.08c0.85-6.23,2.25-12.4,4.18-18.43c1.91-5.95,4.35-11.77,7.31-17.37
			c1.65-3.12,3.46-6.18,5.44-9.17C39.58,65.34,41.69,62.47,43.96,59.68z M235.93,127.43l0.25,0.56l0.12,0.27v0.3
			c-0.01,2.41-0.1,4.78-0.27,7.12c-0.16,2.35-0.41,4.71-0.73,7.07c-0.85,6.23-2.25,12.4-4.18,18.43
			c-1.91,5.95-4.35,11.77-7.31,17.38c-1.65,3.12-3.46,6.18-5.44,9.16c-1.94,2.94-4.05,5.81-6.32,8.59
			c-1.15,1.41-2.36,2.81-3.62,4.21h0.01c-1.26,1.39-2.54,2.74-3.84,4.05h-0.01c-1.3,1.3-2.65,2.58-4.04,3.84v0
			c-1.28,1.16-2.61,2.3-3.98,3.43c-2.69,5.38-5.82,10.56-9.36,15.48c-3.58,4.98-7.57,9.68-11.94,14.06c-2.51,2.5-5.16,4.91-7.95,7.2
			c-0.85,0.7-1.71,1.39-2.57,2.06c8.83-2.63,17.43-6.24,25.63-10.82c10.08-5.62,19.57-12.73,28.16-21.31
			c8.58-8.59,15.69-18.08,21.32-28.16c5.82-10.42,10.07-21.49,12.75-32.87c0.93-3.96,1.67-7.93,2.22-11.92
			c0.55-4.02,0.92-8.05,1.09-12.08l0.05-1.3l0.01-0.19v-0.01c0.04-1.22,0.06-2.56,0.06-4c0-1.41-0.02-2.73-0.06-3.94l-0.21-0.54h0
			l-0.3-0.74h0c-1.23-3.03-2.59-5.98-4.08-8.82c-1.5-2.87-3.14-5.67-4.91-8.39c-1.96-3.01-4.06-5.91-6.29-8.68
			c-2.21-2.73-4.56-5.35-7.05-7.84c-1.82-1.82-3.66-3.53-5.52-5.14c-1.91-1.65-3.86-3.21-5.85-4.69c-2.69-2-5.46-3.85-8.29-5.55
			c-2.55-1.53-5.16-2.95-7.82-4.24c0.85,3.67,1.51,7.4,1.98,11.17c0.57,4.47,0.87,8.99,0.9,13.54c1.78,1.26,3.51,2.6,5.19,4
			c1.86,1.56,3.66,3.2,5.39,4.93c1.18,1.17,2.32,2.39,3.43,3.64c1.1,1.24,2.16,2.5,3.17,3.79c0.76,0.96,1.48,1.93,2.17,2.89l0,0
			c0.7,0.98,1.38,1.97,2.02,2.95l0,0.01l0.47,0.72l0,0c1.04,1.64,2.04,3.34,2.98,5.08C234.24,123.85,235.11,125.62,235.93,127.43z
			 M128.57,235.93l-0.56,0.25l-0.28,0.12h-0.3c-2.41-0.01-4.79-0.1-7.12-0.27c-2.35-0.17-4.7-0.41-7.08-0.74
			c-6.22-0.85-12.39-2.25-18.43-4.18c-5.95-1.91-11.77-4.35-17.38-7.31c-3.12-1.65-6.18-3.46-9.16-5.44
			c-2.94-1.95-5.81-4.05-8.59-6.33c-1.41-1.15-2.82-2.36-4.22-3.62c-1.39-1.26-2.74-2.54-4.04-3.84h-0.01
			c-1.26-1.27-2.55-2.62-3.84-4.05h-0.01c-1.16-1.28-2.3-2.61-3.42-3.98c-5.37-2.69-10.56-5.82-15.48-9.36
			c-4.98-3.58-9.68-7.57-14.05-11.95c-2.51-2.5-4.91-5.16-7.2-7.95c-0.7-0.85-1.39-1.71-2.06-2.57c2.63,8.83,6.24,17.43,10.82,25.63
			c5.63,10.08,12.74,19.57,21.32,28.16c8.59,8.58,18.08,15.69,28.16,21.31c10.42,5.82,21.5,10.07,32.87,12.75
			c3.96,0.93,7.93,1.68,11.92,2.22c4.02,0.55,8.05,0.92,12.09,1.09l1.3,0.05l0.19,0.01c1.22,0.04,2.56,0.06,4,0.06
			c1.42,0,2.74-0.02,3.95-0.05l0.54-0.21l0.74-0.3c3.04-1.23,5.98-2.6,8.83-4.08c2.87-1.5,5.67-3.14,8.39-4.91
			c3.02-1.96,5.91-4.06,8.68-6.29c2.74-2.21,5.35-4.56,7.84-7.05c1.82-1.82,3.53-3.66,5.13-5.52c1.65-1.9,3.21-3.86,4.69-5.85
			c2-2.69,3.85-5.46,5.55-8.29c1.53-2.55,2.94-5.16,4.24-7.82c-3.68,0.84-7.41,1.5-11.17,1.98c-4.46,0.57-8.99,0.87-13.54,0.9
			c-1.25,1.76-2.58,3.49-4,5.18c-1.54,1.84-3.19,3.64-4.93,5.38l0,0.01c-1.17,1.17-2.39,2.32-3.64,3.43
			c-1.23,1.1-2.5,2.16-3.79,3.17c-0.91,0.71-1.87,1.44-2.89,2.17v0.01c-0.93,0.67-1.92,1.34-2.95,2.01l-0.01,0l-0.72,0.47l-0.01,0
			c-1.64,1.05-3.34,2.04-5.08,2.98C132.15,234.24,130.38,235.12,128.57,235.93z"/>
	</g>
</g>
<g>
	<defs>
		<rect id="SVGID_00000167386081359590272660000008506085197577922455_" x="302" y="10" width="463" height="249"/>
	</defs>
	<clipPath id="SVGID_00000008850011093431409940000010924812781646698146_">
		<use xlink:href="#SVGID_00000167386081359590272660000008506085197577922455_"  style="overflow:visible;"/>
	</clipPath>
	<g style="clip-path:url(#SVGID_00000008850011093431409940000010924812781646698146_);">
		<path class="st3" d="M699.18,27.78c2.52,0,4.52,0.46,6,1.39c1.48,0.86,2.21,1.98,2.21,3.34s-0.43,2.44-1.29,3.24
			c-0.86,0.8-1.94,1.2-3.23,1.2c-1.72,0-2.89-0.4-3.51-1.2c-0.55-0.8-0.92-1.88-1.11-3.24c-0.18-0.93-0.4-1.61-0.65-2.04
			c-0.25-0.49-0.71-0.74-1.39-0.74c-1.97,0-3.66,2.01-5.08,6.02c-1.35,3.95-2.65,10.16-3.88,18.63l-0.83,5.47
			c2.46-0.12,4.22-0.25,5.26-0.37l3.51-0.19c0.25,0,0.43,0.12,0.55,0.37c0.12,0.25,0.15,0.49,0.09,0.74
			c-0.18,0.62-0.58,1.33-1.2,2.13c-0.62,0.74-1.2,1.11-1.75,1.11c-0.12,0-0.86-0.09-2.22-0.28c-1.35-0.25-2.89-0.46-4.62-0.65
			L680.99,97c-0.86,5.99-1.94,10.69-3.23,14.09c-1.23,3.4-2.77,5.81-4.62,7.23c-1.85,1.48-4.22,2.22-7.11,2.22
			c-2.52,0-4.52-0.46-6-1.39c-1.48-0.86-2.22-1.98-2.22-3.34c0-1.36,0.43-2.41,1.29-3.15c0.8-0.74,1.78-1.11,2.95-1.11
			c1.48,0,2.49,0.37,3.05,1.11c0.49,0.74,0.86,1.82,1.11,3.24c0.18,0.99,0.4,1.7,0.65,2.13c0.18,0.43,0.59,0.65,1.2,0.65
			c0.62,0,1.11-0.49,1.48-1.48c0.43-0.93,0.86-2.63,1.29-5.1c0.49-2.47,1.17-6.7,2.03-12.7l4.71-32.71
			c0.12-0.68,0.18-1.48,0.18-2.41c0-1.11-0.31-1.79-0.92-2.04c-0.62-0.31-1.88-0.46-3.79-0.46c-0.18,0-0.28-0.22-0.28-0.65
			c0-0.56,0.09-0.83,0.28-0.83c2.03,0,3.48-0.28,4.34-0.83c0.86-0.56,1.42-1.61,1.66-3.15c1.23-7.6,2.65-13.41,4.25-17.42
			c1.66-4.08,3.72-6.95,6.18-8.62C691.95,28.61,695.18,27.78,699.18,27.78z M706.55,96.35c-4.06,0-7.17-1.3-9.32-3.89
			c-2.09-2.66-3.14-6.09-3.14-10.29c0-1.85,0.15-3.52,0.46-5c0.68-3.71,2-7.01,3.97-9.92c2.03-2.9,4.46-5.16,7.29-6.76
			c2.83-1.61,5.88-2.41,9.14-2.41c4.12,0,7.26,1.27,9.42,3.8c2.22,2.47,3.32,5.81,3.32,10.01c0,1.67-0.18,3.43-0.55,5.28
			c-0.8,4.08-2.28,7.57-4.43,10.47c-2.09,2.84-4.59,5-7.48,6.49C712.4,95.61,709.51,96.35,706.55,96.35z M709.69,94.03
			c1.97,0,3.66-1.14,5.08-3.43c1.48-2.29,2.55-5.41,3.23-9.36c0.43-2.41,0.65-4.85,0.65-7.32c0-4.02-0.62-7.29-1.85-9.82
			c-1.17-2.53-2.8-3.8-4.89-3.8c-1.85,0-3.51,1.08-4.99,3.24c-1.42,2.16-2.49,5.37-3.23,9.64c-0.43,2.41-0.65,4.85-0.65,7.32
			c0,4.02,0.58,7.29,1.75,9.82C705.97,92.8,707.6,94.03,709.69,94.03z M756.14,58.45c1.6,0,3.11,0.59,4.52,1.76
			c1.48,1.17,2.09,2.5,1.85,3.98c-0.12,0.93-0.55,1.79-1.29,2.59c-0.74,0.8-1.66,1.2-2.77,1.2c-1.11,0-2.31-0.53-3.6-1.58
			c-0.43-0.31-0.86-0.59-1.29-0.83c-0.43-0.25-0.86-0.37-1.29-0.37c-1.05,0-2.34,1.64-3.88,4.91c-1.54,3.27-3.02,7.2-4.43,11.77
			c-1.35,4.51-2.34,8.49-2.95,11.95v0.09c-0.12,0.56-0.62,0.99-1.48,1.3c-0.86,0.37-2.09,0.56-3.69,0.56
			c-2.03,0-3.05-0.25-3.05-0.74c0.06-0.43,0.25-1.36,0.55-2.78c0.37-1.42,0.68-2.78,0.92-4.08l3.79-20.66
			c0.12-0.99,0.18-1.64,0.18-1.95c0-1.73-0.55-2.59-1.66-2.59c-1.23,0-2.99,1.24-5.26,3.71c-0.06,0.06-0.15,0.09-0.28,0.09
			c-0.25,0-0.43-0.09-0.55-0.28c-0.12-0.25-0.09-0.46,0.09-0.65c2.22-2.59,4.18-4.48,5.91-5.65c1.78-1.17,3.57-1.76,5.35-1.76
			c1.54,0,2.65,0.43,3.32,1.3c0.68,0.8,1.02,2.01,1.02,3.61c0,0.93-0.09,1.95-0.28,3.06l-1.85,10.19
			C747.68,64.5,751.71,58.45,756.14,58.45z"/>
		<path class="st3" d="M356.49,10.83c3.71,0,7.59,0.34,11.64,1.02c4.05,0.59,7.21,1.4,9.49,2.41c0.76,0.25,1.22,0.59,1.39,1.02
			c0.25,0.34,0.46,0.97,0.63,1.91l1.52,17.66c0,0.25-0.21,0.42-0.63,0.51c-0.42,0.08-0.68-0.04-0.76-0.38
			c-2.87-6.69-6.71-11.86-11.52-15.5c-4.81-3.64-10.38-5.46-16.7-5.46c-8.35,0-14.8,3.09-19.36,9.27
			c-4.56,6.18-6.83,14.48-6.83,24.9c0,7.79,1.22,14.9,3.67,21.34c2.53,6.44,6.03,11.56,10.5,15.37c4.55,3.73,9.7,5.59,15.44,5.59
			c5.4,0,10.21-1.78,14.43-5.34c4.3-3.64,8.14-9.15,11.52-16.51c0.08-0.34,0.34-0.47,0.76-0.38c0.51,0.08,0.76,0.25,0.76,0.51
			l-1.9,17.28c-0.17,1.02-0.38,1.69-0.63,2.03c-0.17,0.25-0.63,0.55-1.39,0.89c-7.51,2.79-15.23,4.19-23.16,4.19
			c-10.29,0-18.9-2.03-25.82-6.1c-6.92-4.15-12.02-9.36-15.31-15.62c-3.21-6.35-4.81-12.96-4.81-19.82c0-8.04,2.15-15.16,6.45-21.34
			c4.39-6.18,10.16-10.97,17.34-14.35C340.46,12.53,348.23,10.83,356.49,10.83z M434.44,83.24c0.17,0,0.34,0.17,0.51,0.51
			c0.25,0.34,0.3,0.59,0.13,0.76c-3.12,3.05-6.29,5.25-9.49,6.61c-3.21,1.36-6.71,2.03-10.5,2.03c-5.32,0-9.91-1.1-13.79-3.3
			c-3.88-2.29-6.83-5.29-8.86-9.02c-2.03-3.81-3.04-7.88-3.04-12.19c0-4.91,1.27-9.44,3.8-13.59c2.53-4.23,5.99-7.54,10.38-9.91
			c4.39-2.46,9.28-3.68,14.68-3.68c5.23,0,9.24,1.14,12.02,3.43c2.78,2.2,4.18,5.25,4.18,9.15c0,2.46-0.46,3.68-1.39,3.68h-7.72
			l-22.78,0.25c-0.25,1.61-0.38,3.39-0.38,5.33c0,7.28,1.69,13.04,5.06,17.28c3.46,4.23,8.18,6.35,14.17,6.35
			c2.11,0,4.3-0.3,6.58-0.89c2.28-0.59,4.35-1.48,6.2-2.67L434.44,83.24z M413.56,43.99c-2.53,0-4.72,1.02-6.58,3.05
			c-1.86,2.03-3.21,4.83-4.05,8.38l17.97-0.38C420.64,47.67,418.2,43.99,413.56,43.99z M500.11,90.1c0.25,0,0.38,0.25,0.38,0.76
			c0,0.51-0.13,0.76-0.38,0.76c-2.19,0-3.92-0.04-5.19-0.13l-7.59-0.13l-7.34,0.13c-1.35,0.08-3.12,0.13-5.32,0.13
			c-0.25,0-0.38-0.25-0.38-0.76c0-0.51,0.13-0.76,0.38-0.76c2.62,0,4.39-0.59,5.32-1.78c0.93-1.27,1.39-3.6,1.39-6.99V63.04
			c0-4.57-0.84-7.96-2.53-10.16c-1.6-2.2-4.18-3.3-7.72-3.3c-2.03,0-4.13,0.42-6.33,1.27c-2.11,0.85-3.96,1.99-5.57,3.43v27.06
			c0,3.39,0.46,5.72,1.39,6.99c1.01,1.19,2.83,1.78,5.44,1.78c0.25,0,0.38,0.25,0.38,0.76c0,0.51-0.13,0.76-0.38,0.76
			c-2.19,0-3.92-0.04-5.19-0.13l-7.59-0.13l-7.47,0.13c-1.27,0.08-2.99,0.13-5.19,0.13c-0.25,0-0.38-0.25-0.38-0.76
			c0-0.51,0.13-0.76,0.38-0.76c2.61,0,4.39-0.59,5.32-1.78c0.93-1.27,1.39-3.6,1.39-6.99V57.45c0-2.63-0.34-4.53-1.01-5.72
			c-0.59-1.27-1.56-1.91-2.91-1.91c-1.43,0-3.46,0.59-6.07,1.78h-0.25c-0.25,0-0.46-0.21-0.63-0.64c-0.08-0.42-0.04-0.68,0.13-0.76
			l17.59-8.64c0.51-0.17,0.8-0.25,0.89-0.25c0.93,0,1.81,0.93,2.66,2.79c0.84,1.78,1.35,4.23,1.52,7.37
			c5.82-6.94,12.23-10.42,19.24-10.42c4.55,0,8.14,1.48,10.76,4.45c2.7,2.88,4.05,6.69,4.05,11.43v24.39c0,3.39,0.46,5.72,1.39,6.99
			C495.68,89.5,497.49,90.1,500.11,90.1z M540.78,82.73c0.34,0,0.59,0.17,0.76,0.51c0.25,0.34,0.25,0.59,0,0.76
			c-3.12,3.13-6.16,5.46-9.11,6.99c-2.95,1.44-6.07,2.16-9.36,2.16c-3.71,0-6.88-0.89-9.49-2.67c-2.62-1.78-3.92-4.78-3.92-9.02
			v-28.2c0-2.63-0.46-4.45-1.39-5.46s-2.61-1.52-5.06-1.52c-0.08,0-0.21-0.13-0.38-0.38c-0.08-0.25-0.13-0.51-0.13-0.76
			c0-0.34,0.04-0.59,0.13-0.76c0.08-0.25,0.21-0.38,0.38-0.38c4.3-0.17,7.76-1.1,10.38-2.79c2.7-1.69,4.77-4.28,6.2-7.75
			c0.17-0.34,0.51-0.51,1.01-0.51c0.59,0,0.89,0.17,0.89,0.51V43.6c4.89-0.08,10.38-0.47,16.45-1.14c0.17,0,0.34,0.34,0.51,1.02
			c0.25,0.59,0.38,1.27,0.38,2.03c0,0.85-0.17,1.69-0.51,2.54c-0.25,0.76-0.55,1.1-0.89,1.02c-5.48-1.19-10.8-1.82-15.95-1.91v30.1
			c0,3.22,0.8,5.59,2.4,7.11c1.69,1.52,3.88,2.29,6.58,2.29c3.37,0,6.66-1.27,9.87-3.81L540.78,82.73z M588.86,83.24
			c0.17,0,0.34,0.17,0.51,0.51c0.25,0.34,0.29,0.59,0.13,0.76c-3.12,3.05-6.29,5.25-9.49,6.61s-6.71,2.03-10.5,2.03
			c-5.32,0-9.91-1.1-13.79-3.3c-3.88-2.29-6.83-5.29-8.86-9.02c-2.03-3.81-3.04-7.88-3.04-12.19c0-4.91,1.26-9.44,3.8-13.59
			c2.53-4.23,5.99-7.54,10.38-9.91c4.39-2.46,9.28-3.68,14.68-3.68c5.23,0,9.24,1.14,12.02,3.43c2.78,2.2,4.18,5.25,4.18,9.15
			c0,2.46-0.46,3.68-1.39,3.68h-7.72l-22.78,0.25c-0.25,1.61-0.38,3.39-0.38,5.33c0,7.28,1.69,13.04,5.06,17.28
			c3.46,4.23,8.18,6.35,14.17,6.35c2.11,0,4.3-0.3,6.58-0.89c2.28-0.59,4.35-1.48,6.2-2.67L588.86,83.24z M567.98,43.99
			c-2.53,0-4.72,1.02-6.58,3.05c-1.86,2.03-3.21,4.83-4.05,8.38l17.97-0.38C575.06,47.67,572.62,43.99,567.98,43.99z M627.95,41.32
			c1.94,0,3.8,0.72,5.57,2.16c1.85,1.35,2.78,3.01,2.78,4.95c0,1.78-0.55,3.26-1.65,4.45c-1.1,1.1-2.53,1.65-4.3,1.65
			c-1.27,0-2.32-0.25-3.16-0.76c-0.76-0.51-1.56-1.27-2.4-2.29c-0.76-0.85-1.43-1.44-2.03-1.78c-0.51-0.42-1.14-0.64-1.9-0.64
			c-0.84,0-1.77,0.34-2.78,1.02c-0.93,0.59-2.4,1.91-4.43,3.94v27.31c0,3.39,0.8,5.72,2.4,6.99c1.6,1.19,4.56,1.78,8.86,1.78
			c0.34,0,0.51,0.25,0.51,0.76c0,0.51-0.17,0.76-0.51,0.76c-2.95,0-5.27-0.04-6.96-0.13l-10.25-0.13l-7.47,0.13
			c-1.27,0.08-3,0.13-5.19,0.13c-0.25,0-0.38-0.25-0.38-0.76c0-0.51,0.13-0.76,0.38-0.76c2.62,0,4.39-0.59,5.31-1.78
			c0.93-1.27,1.39-3.6,1.39-6.99V57.45c0-2.63-0.34-4.53-1.01-5.72c-0.59-1.27-1.56-1.91-2.91-1.91c-1.43,0-3.46,0.59-6.07,1.78
			h-0.25c-0.25,0-0.46-0.21-0.63-0.64c-0.09-0.42-0.04-0.68,0.13-0.76l17.59-8.64c0.51-0.17,0.8-0.25,0.89-0.25
			c0.93,0,1.77,0.89,2.53,2.67c0.84,1.69,1.35,4.02,1.52,6.99c3.46-3.56,6.29-6.05,8.48-7.49
			C624.28,42.04,626.27,41.32,627.95,41.32z"/>
		<path class="st3" d="M393.94,220.99c0.42,0,0.63,0.25,0.63,0.76c0,0.51-0.21,0.76-0.63,0.76c-1.69,0-4.3-0.08-7.85-0.25
			c-3.71-0.17-6.37-0.25-7.97-0.25c-2.11,0-4.68,0.08-7.72,0.25c-2.87,0.17-5.15,0.25-6.83,0.25c-0.34,0-0.51-0.25-0.51-0.76
			c0-0.51,0.17-0.76,0.51-0.76c2.19,0,3.75-0.21,4.68-0.64c1.01-0.51,1.52-1.35,1.52-2.54c0-1.44-0.84-3.85-2.53-7.24l-13.16-26.04
			h-22.52l-8.98,19.94c-1.1,2.46-1.65,4.74-1.65,6.86c0,3.05,1.05,5.42,3.16,7.11c2.19,1.69,5.1,2.54,8.73,2.54
			c0.42,0,0.63,0.25,0.63,0.76c0,0.51-0.21,0.76-0.63,0.76c-1.52,0-3.71-0.08-6.58-0.25c-3.2-0.17-5.99-0.25-8.35-0.25
			c-2.28,0-5.02,0.08-8.23,0.25c-2.87,0.17-5.19,0.25-6.96,0.25c-0.34,0-0.51-0.25-0.51-0.76c0-0.51,0.17-0.76,0.51-0.76
			c2.36,0,4.34-0.47,5.95-1.4c1.6-1.02,3.21-2.75,4.81-5.21c1.6-2.54,3.5-6.27,5.69-11.18l27.46-60.58
			c0.17-0.25,0.55-0.38,1.14-0.38c0.68,0,1.05,0.13,1.14,0.38l31.63,62.49c2.95,6.01,5.4,10.16,7.34,12.45
			C389.81,219.85,391.83,220.99,393.94,220.99z M333.21,180.98h19.11l-10.12-20.07L333.21,180.98z M421.25,212.23
			c0,2.62,0.21,4.53,0.63,5.71c0.42,1.18,1.22,1.99,2.4,2.41c1.27,0.42,3.25,0.64,5.95,0.64c0.25,0,0.38,0.25,0.38,0.76
			c0,0.51-0.13,0.76-0.38,0.76c-2.78,0-4.98-0.04-6.58-0.13l-9.61-0.13l-9.36,0.13c-1.69,0.08-3.96,0.13-6.83,0.13
			c-0.17,0-0.25-0.25-0.25-0.76c0-0.51,0.09-0.76,0.25-0.76c2.7,0,4.68-0.21,5.95-0.64c1.27-0.42,2.11-1.23,2.53-2.41
			c0.51-1.27,0.76-3.18,0.76-5.71v-58.81c0-2.54-0.25-4.4-0.76-5.59c-0.42-1.18-1.27-1.99-2.53-2.41c-1.27-0.51-3.25-0.76-5.95-0.76
			c-0.17,0-0.25-0.25-0.25-0.76c0-0.51,0.09-0.76,0.25-0.76l6.83,0.13c3.88,0.17,7,0.25,9.36,0.25c2.61,0,5.86-0.09,9.74-0.25
			l6.45-0.13c0.25,0,0.38,0.25,0.38,0.76c0,0.51-0.13,0.76-0.38,0.76c-2.62,0-4.56,0.25-5.82,0.76c-1.27,0.51-2.11,1.4-2.53,2.67
			c-0.42,1.18-0.63,3.05-0.63,5.59V212.23z M484.92,155.96c0,3.05,0.76,5.76,2.28,8.13c1.6,2.37,3.54,4.44,5.82,6.22
			c2.28,1.78,5.36,3.94,9.24,6.48c4.22,2.71,7.59,5.08,10.12,7.11c2.53,2.03,4.68,4.53,6.45,7.49c1.77,2.88,2.66,6.22,2.66,10.03
			c0,4.4-1.18,8.34-3.54,11.81c-2.36,3.39-5.65,6.05-9.87,8c-4.13,1.86-8.77,2.79-13.92,2.79c-3.79,0-7.76-0.51-11.89-1.52
			c-4.13-1.1-6.92-2.29-8.35-3.56c-0.42-0.34-0.76-0.64-1.01-0.89c-0.17-0.34-0.25-0.85-0.25-1.52l-0.38-20.19v-0.13
			c0-0.34,0.21-0.51,0.63-0.51c0.42-0.08,0.67,0.04,0.76,0.38c2.53,5.16,4.72,9.36,6.58,12.57c1.94,3.22,4.34,6.05,7.21,8.51
			c2.95,2.46,6.28,3.68,9.99,3.68c3.37,0,6.16-0.89,8.35-2.67c2.19-1.86,3.29-5,3.29-9.4c0-3.73-0.84-6.99-2.53-9.78
			c-1.6-2.79-3.58-5.16-5.95-7.11c-2.36-1.95-5.61-4.28-9.74-6.99c-4.05-2.62-7.21-4.87-9.49-6.73c-2.19-1.86-4.09-4.11-5.69-6.73
			s-2.4-5.72-2.4-9.27c0-4.49,1.26-8.26,3.8-11.3c2.61-3.13,5.95-5.42,10-6.86c4.05-1.52,8.31-2.29,12.78-2.29
			c2.95,0,5.95,0.3,8.98,0.89c3.04,0.51,5.48,1.14,7.34,1.9c0.76,0.34,1.27,0.72,1.52,1.14c0.25,0.34,0.38,0.81,0.38,1.4v18.67
			c0,0.25-0.21,0.47-0.63,0.63c-0.42,0.09-0.68,0-0.76-0.25l-1.01-2.41c-2.11-5.33-4.6-9.87-7.47-13.59
			c-2.78-3.73-6.71-5.59-11.77-5.59c-3.37,0-6.16,0.97-8.35,2.92C485.97,149.4,484.92,152.24,484.92,155.96z M579.77,215.66
			c0.34,0,0.55,0.21,0.63,0.63c0.17,0.34,0.08,0.59-0.25,0.76l-13.03,6.22c-0.34,0.17-0.76,0.26-1.27,0.26
			c-1.27,0-2.53-0.64-3.8-1.91c-1.18-1.27-2.02-3.01-2.53-5.21l-5.82,3.18c-2.19,1.1-4.47,2.03-6.83,2.79
			c-2.36,0.68-4.47,1.02-6.33,1.02c-2.7,0-4.85-0.68-6.45-2.03c-1.52-1.44-2.28-3.47-2.28-6.1c0-1.95,0.46-3.51,1.39-4.7
			c1.01-1.18,2.4-2.16,4.18-2.92c1.86-0.85,4.77-1.95,8.73-3.3l12.91-4.19v-10.03c0-5.08-0.51-8.81-1.52-11.18
			c-1.01-2.46-2.66-3.68-4.93-3.68c-2.02,0-3.63,0.76-4.81,2.29c-1.18,1.52-1.9,4.02-2.15,7.49c-0.51,4.74-2.99,7.11-7.47,7.11
			c-3.96,0-5.95-1.74-5.95-5.21c0-2.29,1.43-4.57,4.3-6.86c2.87-2.29,6.33-4.15,10.37-5.59c4.05-1.44,7.59-2.16,10.63-2.16
			c3.96,0,7.17,1.19,9.62,3.56c2.53,2.37,3.8,5.84,3.8,10.41v22.48c0,2.46,0.42,4.36,1.27,5.72c0.93,1.35,2.19,2.03,3.8,2.03
			c1.18,0,2.4-0.3,3.67-0.89H579.77z M559.15,214.39c-0.08-0.59-0.13-1.48-0.13-2.67v-9.4l-6.96,2.54
			c-2.28,0.85-3.92,1.78-4.93,2.79c-0.93,1.02-1.39,2.24-1.39,3.68c0,1.78,0.51,3.18,1.52,4.19c1.01,1.02,2.28,1.52,3.8,1.52
			c1.86,0,4.01-0.59,6.45-1.78L559.15,214.39z M619.11,130.31c4.72,0,8.39,0.68,11.01,2.03c2.61,1.27,3.92,3.09,3.92,5.46
			c0,1.95-0.68,3.47-2.02,4.57c-1.27,1.1-2.74,1.65-4.43,1.65c-2.03,0-3.5-0.46-4.43-1.4c-0.93-0.93-1.77-2.29-2.53-4.06
			c-0.76-1.78-1.56-3.09-2.4-3.94c-0.84-0.93-2.19-1.4-4.05-1.4c-3.88,0-6.96,2.71-9.24,8.13c-2.19,5.42-3.29,13.89-3.29,25.4v7.75
			c2.61-0.08,7.26-0.47,13.92-1.14c0.25,0,0.46,0.34,0.63,1.02c0.17,0.59,0.25,1.27,0.25,2.03c0,0.85-0.17,1.69-0.51,2.54
			c-0.25,0.76-0.51,1.1-0.76,1.02c-4.05-1.02-8.56-1.65-13.54-1.9v34.17c0,2.62,0.25,4.53,0.76,5.71c0.51,1.18,1.52,1.99,3.04,2.41
			c1.6,0.42,4.09,0.64,7.46,0.64c0.34,0,0.51,0.25,0.51,0.76c0,0.51-0.17,0.76-0.51,0.76l-8.73-0.13c-1.94-0.09-4.81-0.13-8.6-0.13
			l-7.72,0.13c-1.35,0.08-3.25,0.13-5.69,0.13c-0.34,0-0.51-0.25-0.51-0.76c0-0.51,0.17-0.76,0.51-0.76c2.19,0,3.8-0.21,4.81-0.64
			c1.1-0.42,1.81-1.23,2.15-2.41c0.42-1.27,0.63-3.18,0.63-5.71v-28.58c0-2.62-0.55-4.32-1.64-5.08c-1.1-0.85-3.25-1.27-6.45-1.27
			c-0.25,0-0.38-0.38-0.38-1.14c0-0.76,0.13-1.14,0.38-1.14c2.95,0,4.98-0.38,6.07-1.14c1.1-0.85,1.69-2.33,1.77-4.45
			c0.42-13.8,3.04-23.75,7.84-29.85C602.16,133.4,609.41,130.31,619.11,130.31z M665.13,214.13c0.17,0,0.34,0.17,0.5,0.51
			c0.25,0.34,0.3,0.59,0.13,0.76c-3.12,3.05-6.28,5.25-9.49,6.6c-3.21,1.35-6.71,2.03-10.5,2.03c-5.31,0-9.91-1.1-13.79-3.3
			c-3.88-2.29-6.83-5.29-8.86-9.02c-2.03-3.81-3.04-7.87-3.04-12.19c0-4.91,1.27-9.44,3.8-13.59c2.53-4.23,5.99-7.54,10.38-9.91
			c4.39-2.46,9.28-3.68,14.68-3.68c5.23,0,9.24,1.14,12.02,3.43c2.78,2.2,4.18,5.25,4.18,9.15c0,2.46-0.47,3.68-1.39,3.68h-7.72
			l-22.78,0.25c-0.25,1.61-0.38,3.39-0.38,5.33c0,7.28,1.69,13.04,5.06,17.27c3.46,4.23,8.18,6.35,14.17,6.35
			c2.11,0,4.3-0.3,6.58-0.89c2.28-0.59,4.35-1.48,6.2-2.67L665.13,214.13z M644.25,174.89c-2.53,0-4.72,1.02-6.58,3.05
			c-1.86,2.03-3.21,4.82-4.05,8.38l17.97-0.38C651.34,178.57,648.89,174.89,644.25,174.89z M708.65,213.63
			c0.34,0,0.59,0.17,0.76,0.51c0.25,0.34,0.25,0.59,0,0.76c-3.12,3.13-6.16,5.46-9.11,6.99c-2.95,1.44-6.07,2.16-9.36,2.16
			c-3.71,0-6.88-0.89-9.49-2.67c-2.62-1.78-3.92-4.78-3.92-9.02v-28.2c0-2.62-0.46-4.45-1.39-5.46c-0.93-1.02-2.62-1.52-5.06-1.52
			c-0.09,0-0.21-0.13-0.38-0.38c-0.09-0.25-0.13-0.51-0.13-0.76c0-0.34,0.04-0.59,0.13-0.76c0.08-0.25,0.21-0.38,0.38-0.38
			c4.3-0.17,7.76-1.1,10.38-2.79c2.7-1.69,4.77-4.28,6.2-7.75c0.17-0.34,0.51-0.51,1.01-0.51c0.59,0,0.89,0.17,0.89,0.51v10.16
			c4.89-0.08,10.38-0.47,16.45-1.14c0.17,0,0.34,0.34,0.51,1.02c0.25,0.59,0.38,1.27,0.38,2.03c0,0.85-0.17,1.69-0.51,2.54
			c-0.25,0.76-0.55,1.1-0.89,1.02c-5.48-1.18-10.8-1.82-15.94-1.9v30.1c0,3.22,0.8,5.59,2.4,7.11c1.69,1.52,3.88,2.29,6.58,2.29
			c3.37,0,6.66-1.27,9.87-3.81L708.65,213.63z M764.7,173.49c0.17,0,0.25,0.25,0.25,0.76s-0.08,0.76-0.25,0.76
			c-2.7,0-5.06,1.18-7.09,3.56c-1.94,2.29-3.71,5.63-5.31,10.03l-14.04,37.47c-4.47,11.85-8.77,20.15-12.91,24.89
			c-4.05,4.83-8.56,7.24-13.54,7.24c-2.53,0-4.47-0.55-5.82-1.65c-1.35-1.01-2.03-2.54-2.03-4.57c0-1.95,0.59-3.43,1.77-4.45
			c1.18-1.02,2.62-1.52,4.3-1.52c0.93,0,1.69,0.13,2.28,0.38c0.67,0.25,1.48,0.68,2.4,1.27c1.6,1.1,3.12,1.65,4.55,1.65
			c1.94,0,3.67-0.76,5.19-2.29c1.6-1.44,3.25-3.9,4.93-7.37c1.69-3.39,3.71-8.26,6.07-14.61l-20.24-41.03
			c-1.86-3.64-3.33-6.05-4.43-7.24c-1.01-1.19-2.28-1.78-3.8-1.78c-0.25,0-0.38-0.25-0.38-0.76s0.13-0.76,0.38-0.76
			c2.36,0,4.18,0.04,5.44,0.13l5.32,0.13l8.73-0.13c1.35-0.08,3.16-0.13,5.44-0.13c0.25,0,0.38,0.25,0.38,0.76s-0.13,0.76-0.38,0.76
			c-2.19,0-3.8,0.21-4.81,0.63c-1.01,0.34-1.52,0.93-1.52,1.78c0,0.68,0.25,1.52,0.76,2.54l14.93,30.61l7.59-22.1
			c0.76-2.2,1.14-4.19,1.14-5.97c0-2.37-0.67-4.19-2.02-5.46c-1.35-1.35-3.29-2.03-5.82-2.03c-0.17,0-0.25-0.25-0.25-0.76
			s0.08-0.76,0.25-0.76c2.28,0,4.01,0.04,5.19,0.13l7.59,0.13l5.06-0.13C761.03,173.53,762.59,173.49,764.7,173.49z"/>
	</g>
</g>
</svg>
