<?xml version="1.0" encoding="UTF-8"?>
<svg id="Layer_2" data-name="Layer 2" xmlns="http://www.w3.org/2000/svg" viewBox="0 0 22.49 22.49">
  <defs>
    <style>
      .cls-1 {
        fill: #fff;
      }

      .cls-2 {
        fill: none;
        stroke: #fff;
        stroke-miterlimit: 10;
      }
    </style>
  </defs>
  <g id="Layer_1-2" data-name="Layer 1">
    <g id="nL02wX.tif">
      <path class="cls-1" d="M7.81,5.4c2.65,0,5.3,0,7.95,0,.09,0,.1,.02,.1,.1,0,4.01,0,8.02,0,12.02-.04,0-.08,0-.12,0-2.58,0-5.15,0-7.73,0-.76,0-1.39-.64-1.4-1.4,0-3.11,0-6.23,0-9.34,0-.25,.07-.48,.19-.69,.23-.39,.57-.61,1-.71Zm7.33,5c0-1.37,0-2.75,0-4.12,0-.16,0-.16-.16-.16-1.03,0-2.05,0-3.08,0-1.25,0-2.5,0-3.75,0-.26,0-.49,.07-.66,.28-.12,.16-.15,.35-.15,.54,0,2.58,0,5.16,0,7.74,0,.02,0,.04,0,.06,0,.08,.03,.09,.1,.06,.21-.1,.44-.13,.68-.13,2.27,0,4.54,0,6.82,0q.2,0,.2-.19c0-1.36,0-2.72,0-4.08Zm-3.59,5.01c-1.12,0-2.24,0-3.36,0-.1,0-.19,0-.28,.02-.33,.06-.59,.4-.55,.73,.05,.41,.33,.64,.77,.64,2.29,0,4.58,0,6.87,0,.11,0,.14-.04,.14-.15,0-.36,0-.73,0-1.09q0-.17-.17-.17c-1.14,0-2.28,0-3.42,0Z"/>
    </g>
    <circle class="cls-2" cx="11.24" cy="11.24" r="10.74"/>
  </g>
</svg>