<svg xmlns="http://www.w3.org/2000/svg" viewBox="0 0 100 100">
  <defs>
    <style>
      .cls-1 {
        fill: #020202;
      }
      .background {
        fill: #FFFFFF;
      }
    </style>
  </defs>
  <rect class="background" width="100" height="100" />
  <g id="Layer_1-2" data-name="Layer 1" transform="translate(7.97, 7.97)">
    <path class="cls-1" d="M42.03,84.06c-8.74,0-17.12-2.66-24.24-7.69-3.83-2.72-7.15-6.01-9.86-9.78C2.74,59.4,0,50.91,0,42.03,0,18.85,18.85,0,42.03,0s42.03,18.85,42.03,42.03c0,9.24-2.95,18.02-8.53,25.37-.83,1.1-2.4,1.32-3.5,.48-1.1-.83-1.32-2.4-.48-3.5,4.91-6.48,7.51-14.21,7.51-22.35,0-20.42-16.61-37.03-37.03-37.03S5,21.61,5,42.03c0,7.82,2.42,15.3,6.99,21.64,2.39,3.33,5.31,6.23,8.69,8.62,6.27,4.43,13.65,6.77,21.35,6.77,1.38,0,2.5,1.12,2.5,2.5s-1.12,2.5-2.5,2.5Z"/>
    <path class="cls-1" d="M67.17,41.67c0,.74-.37,1.24-1.27,1.57-1.8,.66-3.55,1.42-5.24,2.3-3.63,1.89-6.85,4.32-9.6,7.35-2.91,3.21-5.07,6.88-6.67,10.9-.28,.7-.51,1.41-.8,2.1-.28,.67-.82,1.02-1.52,1.04-.72,.03-1.31-.3-1.62-.96-.59-1.22-1.13-2.48-1.71-3.7-1.5-3.18-3.06-6.33-5.23-9.13-1.6-2.07-3.53-3.77-5.76-5.15-2.94-1.82-6.1-3.19-9.29-4.5-.32-.13-.65-.25-.92-.47-.99-.84-.81-2.37,.38-2.92,.77-.35,1.59-.61,2.38-.93,2.77-1.13,5.38-2.54,7.83-4.28,3.07-2.19,5.68-4.83,7.85-7.91,1.89-2.67,3.36-5.57,4.51-8.63,.45-1.2,1.63-1.61,2.67-.95,.38,.24,.57,.61,.72,1.01,1.31,3.49,3.05,6.75,5.35,9.7,2.68,3.44,5.9,6.27,9.67,8.47,2.12,1.23,4.32,2.3,6.63,3.12,.26,.09,.51,.2,.76,.32,.61,.32,.91,.82,.89,1.65Z"/>
    <path class="cls-1" d="M68.32,74.52c0,.26-.13,.45-.46,.56-.65,.24-1.27,.51-1.88,.83-1.3,.68-2.46,1.55-3.45,2.64-1.04,1.15-1.82,2.47-2.4,3.92-.1,.25-.19,.51-.29,.76-.1,.24-.3,.36-.55,.37-.26,0-.47-.11-.58-.34-.21-.44-.4-.89-.61-1.33-.54-1.14-1.1-2.28-1.88-3.28-.58-.74-1.27-1.36-2.07-1.85-1.06-.66-2.19-1.15-3.34-1.62-.12-.05-.23-.09-.33-.17-.36-.3-.29-.85,.14-1.05,.28-.13,.57-.22,.86-.33,1-.41,1.94-.91,2.81-1.54,1.1-.79,2.04-1.74,2.82-2.84,.68-.96,1.21-2,1.62-3.1,.16-.43,.59-.58,.96-.34,.14,.09,.2,.22,.26,.36,.47,1.25,1.1,2.43,1.92,3.48,.96,1.24,2.12,2.25,3.48,3.04,.76,.44,1.55,.83,2.38,1.12,.09,.03,.18,.07,.27,.12,.22,.11,.33,.3,.32,.59Z"/>
  </g>
</svg>