<?xml version="1.0" encoding="UTF-8"?>
<svg id="Layer_2" data-name="Layer 2" xmlns="http://www.w3.org/2000/svg" viewBox="0 0 22.49 22.49">
  <defs>
    <style>
      .cls-1 {
        fill: none;
        stroke: #000;
        stroke-miterlimit: 10;
      }
    </style>
  </defs>
  <g id="Layer_1-2" data-name="Layer 1">
    <g>
      <g id="Ww0tPX">
        <g>
          <path d="M4.49,15.31c.5-.54,1.17-.95,1.95-1.2,.55-.17,1.12-.19,1.69-.2,.21,0,.25-.04,.18-.24-.24-.68-.43-1.38-.38-2.12,.05-.7,.3-1.32,.68-1.9,.48-.72,1.07-1.31,1.88-1.63,.66-.27,1.36-.34,2.07-.3,.4,.02,.41,0,.29-.38-.29-.91-.36-1.82-.09-2.75,.11-.38,.25-.76,.49-1.08,.14-.2,.32-.26,.54-.12,.22,.14,.25,.33,.12,.54-.66,1.1-.63,2.24-.23,3.4,.17,.49,.17,.46,.68,.48,1.2,.04,2.21-.36,3.06-1.21,.24-.25,.43-.25,.64-.05,.17,.16,.15,.36-.08,.6-.81,.85-1.8,1.35-2.98,1.44-.21,.01-.42,.03-.63,.02-.23-.02-.23,.06-.16,.24,.25,.71,.41,1.44,.32,2.21-.23,1.76-1.8,3.75-4.2,3.73-.17,0-.34,.01-.51,0-.21-.02-.26,.03-.19,.25,.23,.71,.32,1.44,.22,2.19-.08,.59-.29,1.14-.58,1.66-.15,.28-.37,.37-.58,.26-.22-.11-.27-.34-.1-.64,.64-1.15,.62-2.32,.19-3.52-.05-.15-.11-.24-.29-.25-1.32-.08-2.52,.17-3.46,1.18-.19,.2-.41,.22-.58,.07-.18-.16-.18-.36,.06-.67Zm6.81-6.65c-.1-.04-.19,0-.28,.02-1.15,.35-2.17,1.62-2.28,2.81-.07,.73,.16,1.4,.37,2.09,.09,.29,.22,.44,.54,.4,.19-.02,.38,0,.57,0,1.14,0,2.08-.41,2.79-1.33,.79-1.02,.9-2.13,.52-3.34-.25-.77-.23-.77-1.02-.79-.07,0-.13-.01-.2,0-.34,.03-.69-.03-1,.14h0Z"/>
          <path d="M6.95,16.96c-.46-.34-.93-.69-1.39-1.04-.09-.07-.25-.14-.1-.28,.11-.1,.22-.26,.41-.1,.2,.16,.41,.31,.61,.46,.69,.51,1.39,1.03,2.08,1.54,.09,.07,.21,.12,.19,.26-.02,.1-.04,.22-.13,.28-.11,.08-.19-.03-.27-.09-.47-.34-.93-.69-1.4-1.03Z"/>
          <path d="M15.47,5.55c.44,.33,.89,.65,1.32,.99,.1,.07,.3,.13,.16,.32-.13,.17-.28,.19-.47,.05-.37-.29-.74-.56-1.12-.83-.5-.37-.99-.74-1.49-1.1-.08-.06-.17-.1-.19-.2-.03-.13,.02-.25,.11-.33,.09-.08,.18,.01,.25,.07,.47,.35,.95,.7,1.42,1.05h0Z"/>
          <path d="M7.72,15.96c-.33-.25-.67-.5-1-.75-.06-.04-.14-.09-.11-.18,.02-.08,.11-.07,.17-.09,.2-.07,.37-.04,.55,.1,.47,.37,.96,.72,1.43,1.07,.08,.06,.18,.11,.2,.23,.02,.14,.09,.31-.03,.4-.11,.09-.22-.07-.31-.14-.3-.21-.59-.44-.89-.66h0Z"/>
          <path d="M14.69,6.54c.33,.24,.66,.48,.98,.73,.06,.05,.17,.08,.14,.19-.03,.1-.14,.09-.21,.11-.15,.06-.29,.04-.42-.07-.48-.37-.97-.73-1.46-1.08-.23-.16-.22-.39-.21-.61,0-.16,.11-.07,.18-.02,.34,.25,.67,.5,1.01,.75,0,0,0,0,0,0Z"/>
          <path d="M11.43,10.97c-.49-.36-.98-.72-1.46-1.09-.11-.08-.26-.16-.12-.34,.12-.16,.25-.17,.41-.05,.98,.73,1.96,1.47,2.95,2.19,.17,.13,.14,.25,.05,.39-.11,.17-.22,.08-.33,0-.5-.37-.99-.74-1.49-1.1Z"/>
          <path d="M10.97,11.6c.48,.36,.96,.71,1.44,1.07,.1,.07,.27,.14,.14,.31-.11,.15-.24,.22-.43,.08-.96-.72-1.92-1.43-2.88-2.14-.18-.13-.19-.28-.07-.43,.14-.18,.26-.02,.36,.05,.48,.35,.96,.71,1.44,1.07h0Z"/>
          <path d="M11.3,8.66c.22,.27,.53,.43,.8,.64,.43,.33,.87,.65,1.3,.97,.06,.05,.13,.09,.17,.15,.1,.14,.11,.34,.02,.46-.1,.13-.22-.03-.3-.1-.72-.53-1.44-1.06-2.15-1.6-.1-.08-.27-.13-.26-.28,.02-.14,.2-.11,.3-.17,.04-.02,.08-.05,.12-.07h0Z"/>
          <path d="M10.17,12.62c.38,.28,.76,.56,1.14,.85,.06,.04,.15,.07,.13,.17-.02,.09-.12,.08-.19,.11-.16,.06-.29,.02-.42-.08-.6-.45-1.2-.9-1.8-1.34-.08-.06-.17-.12-.19-.24-.02-.12-.06-.29,.03-.35,.1-.08,.19,.07,.28,.13,.35,.25,.69,.51,1.03,.76Z"/>
        </g>
      </g>
      <circle class="cls-1" cx="11.24" cy="11.24" r="10.74"/>
    </g>
  </g>
</svg>