<?xml version="1.0" encoding="UTF-8"?>
<svg id="Layer_2" data-name="Layer 2" xmlns="http://www.w3.org/2000/svg" viewBox="0 0 29.96 33.32">
  <g id="Layer_1-2" data-name="Layer 1">
    <path d="M14.98,29.96c-3.12,0-6.1-.95-8.64-2.74-1.37-.97-2.55-2.14-3.51-3.49C.98,21.17,0,18.14,0,14.98,0,6.72,6.72,0,14.98,0s14.98,6.72,14.98,14.98c0,3.29-1.05,6.42-3.04,9.04-.3,.39-.86,.47-1.25,.17-.39-.3-.47-.86-.17-1.25,1.75-2.31,2.68-5.06,2.68-7.97,0-7.28-5.92-13.2-13.2-13.2S1.78,7.7,1.78,14.98c0,2.79,.86,5.45,2.49,7.71,.85,1.19,1.89,2.22,3.1,3.07,2.23,1.58,4.87,2.41,7.61,2.41,.49,0,.89,.4,.89,.89s-.4,.89-.89,.89Z"/>
    <path d="M23.94,14.85c0,.26-.13,.44-.45,.56-.64,.23-1.26,.51-1.87,.82-1.29,.67-2.44,1.54-3.42,2.62-1.04,1.14-1.81,2.45-2.38,3.89-.1,.25-.18,.5-.29,.75-.1,.24-.29,.36-.54,.37-.26,0-.47-.11-.58-.34-.21-.44-.4-.88-.61-1.32-.54-1.13-1.09-2.26-1.86-3.25-.57-.74-1.26-1.35-2.05-1.84-1.05-.65-2.17-1.14-3.31-1.6-.11-.05-.23-.09-.33-.17-.35-.3-.29-.85,.13-1.04,.28-.13,.57-.22,.85-.33,.99-.4,1.92-.9,2.79-1.52,1.09-.78,2.02-1.72,2.8-2.82,.67-.95,1.2-1.98,1.61-3.08,.16-.43,.58-.57,.95-.34,.13,.09,.2,.22,.26,.36,.47,1.24,1.09,2.4,1.91,3.46,.95,1.23,2.1,2.24,3.45,3.02,.76,.44,1.54,.82,2.36,1.11,.09,.03,.18,.07,.27,.12,.22,.11,.32,.29,.32,.59Z"/>
    <g id="KhS4zC.tif">
      <path d="M28.01,26.86c0,2.12,0,4.25,0,6.37,0,.07-.01,.09-.09,.09-3.48,0-6.96,0-10.44,0-.12-.06-.16-.15-.16-.28,0-2.01,0-4.02,0-6.03,0-.21,.08-.29,.3-.3,.15,0,.31,0,.46,0,.07,0,.1-.03,.1-.1,0-.09,0-.18,0-.27,0-.22,.03-.26,.23-.34,.63-.25,1.28-.32,1.95-.24,.8,.09,1.53,.38,2.2,.83,.08,.05,.13,.05,.21,0,.94-.62,1.97-.94,3.11-.84,.38,.03,.74,.13,1.1,.27,.12,.05,.17,.13,.17,.26,0,.11,0,.22,0,.32,0,.08,.03,.11,.11,.11,.15,0,.3,0,.45,0,.12,0,.22,.04,.29,.15Zm-9.35,2.36c0,.89,0,1.77,0,2.66q0,.17,.16,.13c.27-.07,.54-.12,.81-.13,.98-.05,1.88,.21,2.71,.71,.03,.02,.05,.05,.08,.03,.04-.02,.02-.06,.02-.1,0-1.78,0-3.55,0-5.33,0-.09-.03-.15-.11-.2-.31-.2-.63-.38-.98-.51-.84-.31-1.69-.39-2.55-.13-.11,.03-.15,.08-.15,.2,0,.89,0,1.78,0,2.67Zm8.04,0c0-.9,0-1.79,0-2.69,0-.08,0-.14-.1-.17-.29-.09-.58-.15-.89-.17-.99-.05-1.88,.25-2.7,.79-.07,.05-.1,.1-.1,.19,0,.36,0,.72,0,1.08,0,1.41,0,2.82,0,4.24,0,.04-.02,.09,.02,.11,.04,.02,.07-.02,.1-.04,.18-.11,.37-.21,.56-.29,.95-.41,1.93-.54,2.95-.27,.15,.04,.15,.04,.15-.12,0-.89,0-1.78,0-2.67Zm-3.16,3.63h.1c1.24,0,2.49,0,3.73,0q.18,0,.18-.18c0-1.76,0-3.53,0-5.29q0-.21-.21-.21t-.17,.18c0,1.66,0,3.32,0,4.98,0,.24-.15,.34-.36,.25-.71-.29-1.44-.31-2.18-.16-.38,.08-.74,.22-1.09,.42Zm-1.72,0s0-.02,0-.02c-.03-.02-.05-.03-.08-.04-.78-.37-1.59-.53-2.45-.4-.25,.04-.49,.11-.72,.2-.22,.09-.37-.01-.37-.24,0-.04,0-.08,0-.11,0-1.61,0-3.21,0-4.82,0-.25,.03-.23-.23-.23-.15,0-.16,0-.16,.16,0,1.78,0,3.57,0,5.35,0,.16,0,.16,.16,.16,1.25,0,2.5,0,3.75,0,.03,0,.07,0,.1,0Z"/>
    </g>
  </g>
</svg>