<?xml version="1.0" encoding="UTF-8"?>
<svg id="Layer_2" data-name="Layer 2" xmlns="http://www.w3.org/2000/svg" viewBox="0 0 22.49 22.49">
  <defs>
    <style>
      .cls-1 {
        fill: none;
        stroke: #000;
        stroke-miterlimit: 10;
      }
    </style>
  </defs>
  <g id="Layer_1-2" data-name="Layer 1">
    <g>
      <g>
        <path d="M6.46,17.45c-.2,0-.38-.12-.46-.3l-1.59-3.61h-.85c-.28,0-.5-.22-.5-.5s.22-.5,.5-.5h1.17c.2,0,.38,.12,.46,.3l1.04,2.37,1.6-9.75c.04-.24,.25-.42,.49-.42h9.32c.28,0,.5,.22,.5,.5s-.22,.5-.5,.5H8.76l-1.81,10.99c-.04,.22-.21,.39-.43,.42-.02,0-.04,0-.06,0Z"/>
        <path d="M10.49,10.54c-.11-.14-.22-.24-.33-.3s-.28-.11-.5-.14c-.13-.02-.19-.09-.19-.21,0-.02,0-.05,0-.1,0-.04,.02-.08,.04-.11,.25,.02,.49,.03,.73,.04,.24,0,.51,0,.81,0,.61,0,1.17-.01,1.66-.04,0,.03,.02,.06,.03,.1,0,.04,.02,.06,.02,.08,0,.14-.06,.21-.19,.21-.26,.02-.43,.05-.51,.08-.08,.03-.13,.09-.13,.17,0,.12,.08,.27,.24,.46l1.1,1.38,1.05-1.5c.11-.17,.16-.29,.16-.36,0-.06-.03-.11-.1-.14-.06-.03-.2-.06-.41-.08-.13,0-.19-.07-.19-.22,0-.02,0-.05,0-.08,0-.03,.02-.07,.04-.1,.39,.03,.81,.04,1.26,.04,.4,0,.77-.01,1.13-.04,.03,.06,.04,.12,.04,.19,0,.13-.06,.2-.19,.21-.24,.03-.44,.08-.6,.15-.16,.07-.31,.2-.45,.4l-1.4,1.97,1.8,2.29c.21,.26,.39,.43,.55,.53,.16,.1,.34,.16,.55,.19,.08,0,.12,.08,.12,.21,0,.06,0,.14-.03,.24-.28-.02-.57-.04-.87-.05-.3-.01-.58-.02-.82-.02s-.5,0-.8,.02-.59,.03-.88,.05c-.02-.1-.03-.18-.03-.24,0-.12,.05-.18,.15-.19,.23-.04,.4-.08,.51-.13,.11-.04,.17-.12,.17-.21,0-.05-.02-.1-.07-.16-.04-.06-.09-.12-.14-.19l-1.22-1.6-1.01,1.5c-.06,.09-.11,.16-.14,.22s-.05,.11-.05,.16c0,.12,.07,.21,.2,.26,.13,.05,.33,.11,.59,.16,.1,.02,.15,.08,.15,.19,0,.06-.01,.14-.03,.24-.26-.02-.5-.04-.73-.05s-.47-.02-.71-.02c-.23,0-.46,0-.71,.02-.25,.01-.5,.03-.76,.05-.02-.1-.03-.18-.03-.24,0-.11,.04-.17,.13-.19,.23-.05,.46-.12,.69-.2s.43-.23,.59-.45l1.48-2.08-1.78-2.36Z"/>
      </g>
      <circle class="cls-1" cx="11.24" cy="11.24" r="10.74"/>
    </g>
  </g>
</svg>