<?xml version="1.0" encoding="UTF-8"?>
<svg id="Layer_2" data-name="Layer 2" xmlns="http://www.w3.org/2000/svg" viewBox="0 0 22.49 22.49">
  <defs>
    <style>
      .cls-1 {
        fill: none;
        stroke: #000;
        stroke-miterlimit: 10;
      }
    </style>
  </defs>
  <g id="Layer_1-2" data-name="Layer 1">
    <g>
      <circle class="cls-1" cx="11.24" cy="11.24" r="10.74"/>
      <g id="bFspdn.tif">
        <g>
          <path d="M7.03,4.78c.23-.01,.4,.11,.55,.25,.41,.4,.8,.42,1.32,.16,.35-.17,.52-.35,.57-.73,.14-.93,.21-.97,1.16-.97,.54,0,1.07,0,1.61,0,.55,0,.75,.17,.78,.7,.03,.55,.2,.88,.78,1.06,.39,.12,.67,.15,.96-.14,.07-.07,.17-.12,.25-.18,.38-.26,.57-.24,.89,.08,.5,.5,1.01,1,1.51,1.51,.31,.31,.37,.55,.09,.87-.46,.5-.52,.98-.18,1.56,.11,.19,.18,.35,.43,.35,.23,0,.45,.04,.68,.07,.29,.04,.48,.21,.5,.5,.04,.83,.05,1.67,0,2.5-.02,.3-.23,.45-.51,.5-.25,.05-.51,.1-.76,.14-.14,.02-.23,.09-.25,.23,0,.02-.01,.04-.02,.06-.35,.64-.33,1.22,.21,1.77,.25,.26,.2,.53-.06,.8-.53,.54-1.06,1.07-1.6,1.6-.26,.26-.54,.31-.8,.06-.54-.52-1.07-.56-1.7-.17-.16,.1-.28,.17-.3,.37-.02,.23-.08,.47-.13,.7-.08,.34-.25,.51-.6,.52-.75,.01-1.51,0-2.26,0-.32,0-.52-.17-.59-.49-.05-.25-.11-.5-.14-.76-.02-.18-.12-.27-.28-.32-.16-.05-.33-.08-.46-.17-.35-.24-.64-.16-.93,.11-.1,.1-.23,.17-.35,.25-.26,.17-.52,.15-.73-.06-.56-.55-1.11-1.1-1.66-1.66-.22-.22-.26-.51-.05-.73,.54-.54,.55-1.09,.19-1.73-.09-.16-.16-.29-.37-.31-.23-.03-.47-.08-.7-.13-.35-.08-.51-.24-.52-.6-.02-.75-.01-1.51,0-2.26,0-.31,.17-.57,.49-.58,.8,0,1.18-.43,1.36-1.15,.04-.17,.06-.28-.05-.42-.14-.19-.27-.39-.41-.58-.18-.26-.18-.53,.04-.76,.55-.56,1.1-1.11,1.66-1.66,.1-.1,.23-.17,.39-.17Zm9.44,10.56c-.12-.18-.26-.39-.41-.58-.18-.24-.21-.48-.07-.75,.21-.43,.37-.88,.46-1.34,.07-.36,.28-.54,.64-.6,.78-.13,.78-.14,.78-.92q0-.75-.76-.82c-.39-.04-.54-.14-.64-.51-.12-.47-.29-.92-.54-1.34-.15-.25-.12-.49,.04-.72,.15-.22,.44-.42,.41-.67-.03-.26-.34-.41-.54-.61-.47-.49-.48-.48-1.02-.1-.07,.05-.14,.09-.2,.14-.2,.13-.41,.14-.61,.02-.45-.27-.93-.45-1.43-.57-.29-.07-.43-.26-.47-.55-.02-.2-.06-.41-.09-.61-.02-.15-.1-.23-.27-.23-.33,0-.66,0-.99,0-.17,0-.27,.06-.29,.24-.03,.22-.08,.45-.13,.67-.05,.24-.19,.41-.43,.47-.46,.12-.9,.31-1.32,.53-.33,.18-.61,.15-.92-.07-.58-.43-.59-.41-1.09,.09-.18,.18-.46,.35-.5,.57-.05,.24,.24,.45,.39,.66,.18,.26,.2,.5,.04,.78-.22,.36-.4,.75-.48,1.17-.08,.44-.32,.63-.74,.7-.7,.12-.7,.13-.7,.83,0,.79,0,.81,.77,.93,.38,.06,.58,.26,.66,.63,.08,.39,.2,.76,.42,1.09,.24,.36,.22,.67-.04,1.01-.4,.53-.39,.55,.09,1.02,.19,.19,.36,.47,.59,.53,.26,.06,.47-.25,.69-.4,.25-.17,.49-.19,.75-.03,.34,.22,.71,.39,1.11,.46,.5,.09,.71,.36,.78,.84,.09,.61,.11,.61,.74,.61,.85,0,.85,0,1.02-.85,.06-.29,.21-.45,.49-.53,.28-.08,.58-.14,.81-.3,.65-.43,1.24-.42,1.79,.15,.11,.11,.21,.09,.32-.02,.26-.27,.52-.53,.79-.79,.05-.05,.11-.1,.1-.22Z"/>
          <path d="M11.27,15.28c-2.21,0-4.04-1.84-4.03-4.05,0-2.19,1.84-4.02,4.04-4.02,2.21,0,4.04,1.84,4.03,4.05,0,2.19-1.84,4.02-4.04,4.02Zm0-1.08c1.64,0,2.95-1.3,2.96-2.93,0-1.66-1.3-2.98-2.95-2.98-1.65,0-2.97,1.31-2.97,2.96,0,1.66,1.29,2.96,2.96,2.96Z"/>
        </g>
      </g>
    </g>
  </g>
</svg>