<?xml version="1.0" encoding="UTF-8"?>
<svg id="Layer_2" data-name="Layer 2" xmlns="http://www.w3.org/2000/svg" viewBox="0 0 22.49 22.49">
  <defs>
    <style>
      .cls-1 {
        fill: #231e1f;
      }

      .cls-2 {
        fill: none;
        stroke: #000;
        stroke-miterlimit: 10;
      }
    </style>
  </defs>
  <g id="Layer_1-2" data-name="Layer 1">
    <g>
      <circle class="cls-2" cx="11.24" cy="11.24" r="10.74"/>
      <g>
        <rect class="cls-1" x="7.98" y="9.48" width=".73" height="2.83" transform="translate(-4.58 15.53) rotate(-72.31)"/>
        <rect class="cls-1" x="7.34" y="14.05" width="3.84" height=".73" transform="translate(-7.72 12.16) rotate(-49.71)"/>
        <path class="cls-1" d="M12.1,10.4c-.02-.24,.1-3.41,.14-4.38l.73,.03c-.06,1.54-.15,4.06-.14,4.28l-.72,.07Z"/>
        <circle cx="11.5" cy="11.94" r="2.47"/>
        <path class="cls-1" d="M7.21,18.48c-.95,0-1.73-.78-1.73-1.73s.78-1.73,1.73-1.73,1.73,.78,1.73,1.73-.77,1.73-1.73,1.73Zm0-2.73c-.55,0-1,.45-1,1s.45,1,1,1,1-.45,1-1-.45-1-1-1Z"/>
        <path class="cls-1" d="M12.6,6.59c-.95,0-1.73-.78-1.73-1.73s.78-1.73,1.73-1.73,1.73,.78,1.73,1.73-.77,1.73-1.73,1.73Zm0-2.73c-.55,0-1,.45-1,1s.45,1,1,1,1-.45,1-1-.45-1-1-1Z"/>
        <path class="cls-1" d="M16.86,16.04c-.95,0-1.73-.78-1.73-1.73s.77-1.73,1.73-1.73,1.73,.78,1.73,1.73-.78,1.73-1.73,1.73Zm0-2.73c-.55,0-1,.45-1,1s.45,1,1,1,1-.45,1-1-.45-1-1-1Z"/>
        <path class="cls-1" d="M5.63,11.8c-.95,0-1.73-.78-1.73-1.73s.78-1.73,1.73-1.73,1.73,.78,1.73,1.73-.77,1.73-1.73,1.73Zm0-2.73c-.55,0-1,.45-1,1s.45,1,1,1,1-.45,1-1-.45-1-1-1Z"/>
        <rect class="cls-1" x="14.25" y="12.25" width=".73" height="2.28" transform="translate(-3.37 21.73) rotate(-67.4)"/>
      </g>
    </g>
  </g>
</svg>