<?xml version="1.0" encoding="UTF-8"?>
<svg id="Layer_2" data-name="Layer 2" xmlns="http://www.w3.org/2000/svg" viewBox="0 0 29.96 33.97">
  <g id="Layer_1-2" data-name="Layer 1">
    <g id="nL02wX.tif">
      <path d="M18.1,24.92c1.97,0,3.95,0,5.92,0,.07,0,.08,.02,.08,.08,0,2.99,0,5.97,0,8.96-.03,0-.06,0-.09,0-1.92,0-3.84,0-5.76,0-.57,0-1.04-.48-1.04-1.04,0-2.32,0-4.64,0-6.96,0-.18,.05-.35,.14-.51,.17-.29,.43-.45,.75-.53Zm5.46,3.72c0-1.02,0-2.05,0-3.07,0-.12,0-.12-.12-.12-.76,0-1.53,0-2.29,0-.93,0-1.86,0-2.79,0-.19,0-.37,.05-.49,.21-.09,.12-.11,.26-.11,.4,0,1.92,0,3.85,0,5.77,0,.01,0,.03,0,.04,0,.06,.02,.07,.08,.05,.16-.07,.33-.1,.51-.1,1.69,0,3.39,0,5.08,0q.15,0,.15-.14c0-1.01,0-2.03,0-3.04Zm-2.67,3.73c-.83,0-1.67,0-2.5,0-.07,0-.14,0-.21,.02-.25,.04-.44,.3-.41,.55,.04,.3,.24,.48,.57,.48,1.71,0,3.41,0,5.12,0,.08,0,.11-.03,.11-.11,0-.27,0-.54,0-.81q0-.13-.13-.13c-.85,0-1.7,0-2.55,0Z"/>
    </g>
    <g>
      <path d="M14.98,29.96c-3.12,0-6.1-.95-8.64-2.74-1.37-.97-2.55-2.14-3.51-3.49C.98,21.17,0,18.14,0,14.98,0,6.72,6.72,0,14.98,0s14.98,6.72,14.98,14.98c0,3.29-1.05,6.42-3.04,9.04-.3,.39-.86,.47-1.25,.17-.39-.3-.47-.86-.17-1.25,1.75-2.31,2.68-5.06,2.68-7.97,0-7.28-5.92-13.2-13.2-13.2S1.78,7.7,1.78,14.98c0,2.79,.86,5.45,2.49,7.71,.85,1.19,1.89,2.22,3.1,3.07,2.23,1.58,4.87,2.41,7.61,2.41,.49,0,.89,.4,.89,.89s-.4,.89-.89,.89Z"/>
      <path d="M23.94,14.85c0,.26-.13,.44-.45,.56-.64,.23-1.26,.51-1.87,.82-1.29,.67-2.44,1.54-3.42,2.62-1.04,1.14-1.81,2.45-2.38,3.89-.1,.25-.18,.5-.29,.75-.1,.24-.29,.36-.54,.37-.26,0-.47-.11-.58-.34-.21-.44-.4-.88-.61-1.32-.54-1.13-1.09-2.26-1.86-3.25-.57-.74-1.26-1.35-2.05-1.84-1.05-.65-2.17-1.14-3.31-1.6-.11-.05-.23-.09-.33-.17-.35-.3-.29-.85,.13-1.04,.28-.13,.57-.22,.85-.33,.99-.4,1.92-.9,2.79-1.52,1.09-.78,2.02-1.72,2.8-2.82,.67-.95,1.2-1.98,1.61-3.08,.16-.43,.58-.57,.95-.34,.13,.09,.2,.22,.26,.36,.47,1.24,1.09,2.4,1.91,3.46,.95,1.23,2.1,2.24,3.45,3.02,.76,.44,1.54,.82,2.36,1.11,.09,.03,.18,.07,.27,.12,.22,.11,.32,.29,.32,.59Z"/>
    </g>
  </g>
</svg>