<?xml version="1.0" encoding="UTF-8"?>
<svg id="Layer_2" data-name="Layer 2" xmlns="http://www.w3.org/2000/svg" viewBox="0 0 22.49 22.49">
  <defs>
    <style>
      .cls-1 {
        fill: none;
        stroke: #000;
        stroke-miterlimit: 10;
      }
    </style>
  </defs>
  <g id="Layer_1-2" data-name="Layer 1">
    <g>
      <circle class="cls-1" cx="11.24" cy="11.24" r="10.74"/>
      <g id="_2DXTTK.tif" data-name="2DXTTK.tif">
        <path d="M11.31,5.16c.81,3.24,2.83,5.24,6.13,6.03-4.06,1.61-4.28,1.82-6.16,6.13-.8-3.26-2.78-5.27-6.2-6.1,3.43-.83,5.42-2.84,6.24-6.06Z"/>
      </g>
      <g id="_2DXTTK.tif-2" data-name="2DXTTK.tif">
        <path d="M6.56,5.16c.24,.96,.84,1.55,1.81,1.78-1.2,.47-1.26,.54-1.82,1.81-.24-.96-.82-1.55-1.83-1.8,1.01-.25,1.6-.84,1.84-1.79Z"/>
      </g>
      <g id="_2DXTTK.tif-3" data-name="2DXTTK.tif">
        <path d="M15.63,13.74c.24,.96,.84,1.55,1.81,1.78-1.2,.47-1.26,.54-1.82,1.81-.24-.96-.82-1.55-1.83-1.8,1.01-.25,1.6-.84,1.84-1.79Z"/>
      </g>
    </g>
  </g>
</svg>