<?xml version="1.0" encoding="UTF-8"?>
<svg id="Layer_2" data-name="Layer 2" xmlns="http://www.w3.org/2000/svg" viewBox="0 0 22.49 22.49">
  <defs>
    <style>
      .cls-1 {
        fill: none;
        stroke: #000;
        stroke-miterlimit: 10;
      }
    </style>
  </defs>
  <g id="Layer_1-2" data-name="Layer 1">
    <g id="KhS4zC.tif">
      <path d="M19.32,7.91c0,2.66,0,5.33,0,7.99,0,.09-.02,.11-.13,.11-5.26,0-10.53,0-15.79,0-.17-.07-.24-.19-.24-.35,0-2.52,0-5.04,0-7.56,0-.26,.13-.37,.45-.37,.23,0,.46,0,.69,0,.11,0,.15-.04,.15-.13,0-.11,0-.23,0-.34,0-.27,.05-.33,.35-.43,.95-.31,1.94-.4,2.95-.3,1.21,.12,2.32,.48,3.33,1.04,.12,.07,.2,.07,.32,0,1.43-.78,2.98-1.18,4.71-1.05,.57,.04,1.13,.16,1.66,.34,.18,.06,.26,.16,.26,.32,0,.13,0,.27,0,.4,0,.1,.05,.14,.17,.14,.23,0,.45,0,.68,0,.19,0,.34,.05,.44,.19Zm-14.14,2.96c0,1.11,0,2.22,0,3.33q0,.21,.24,.16c.4-.09,.81-.15,1.23-.16,1.48-.06,2.84,.26,4.1,.88,.04,.02,.08,.06,.12,.04,.06-.02,.03-.08,.03-.12,0-2.23,0-4.45,0-6.68,0-.11-.05-.18-.16-.24-.47-.26-.95-.48-1.48-.64-1.27-.39-2.55-.49-3.86-.16-.17,.04-.23,.11-.23,.26,0,1.11,0,2.23,0,3.34Zm12.15,0c0-1.12,0-2.24,0-3.37,0-.1-.01-.17-.15-.21-.44-.12-.88-.19-1.34-.21-1.5-.06-2.85,.31-4.08,.99-.11,.06-.15,.13-.15,.24,0,.45,0,.9,0,1.36,0,1.77,0,3.54,0,5.31,0,.05-.03,.11,.03,.13,.05,.02,.1-.03,.15-.05,.28-.13,.56-.26,.85-.36,1.44-.52,2.92-.67,4.46-.34,.23,.05,.23,.05,.23-.15,0-1.11,0-2.23,0-3.34Zm-4.77,4.55h.16c1.88,0,3.76,0,5.64,0q.27,0,.27-.22c0-2.21,0-4.42,0-6.63q0-.26-.32-.26t-.26,.22c0,2.08,0,4.16,0,6.24,0,.29-.22,.43-.55,.32-1.07-.36-2.17-.39-3.29-.2-.58,.1-1.13,.27-1.64,.53Zm-2.6-.01s0-.02-.01-.02c-.04-.02-.08-.04-.12-.06-1.17-.47-2.4-.66-3.7-.5-.38,.05-.74,.14-1.09,.25-.33,.11-.55-.02-.56-.31,0-.05,0-.1,0-.14,0-2.01,0-4.03,0-6.04,0-.32,.04-.28-.35-.28-.23,0-.23,0-.23,.2,0,2.24,0,4.47,0,6.71,0,.2,0,.2,.25,.2,1.89,0,3.78,0,5.67,0,.05,0,.1,.01,.15-.01Z"/>
    </g>
    <circle class="cls-1" cx="11.24" cy="11.24" r="10.74"/>
  </g>
</svg>